{"glyphs":{"0":{"ha":876,"x_min":71,"x_max":806,"o":"m 439 -15 q 290 14 357 -15 q 174 95 222 43 q 98 219 125 147 q 71 375 71 290 l 71 614 q 98 769 71 699 q 174 892 125 840 q 290 974 222 944 q 439 1003 357 1003 q 587 974 519 1003 q 703 892 654 944 q 778 769 751 840 q 806 614 806 699 l 806 375 q 778 219 806 290 q 703 95 751 147 q 587 14 654 43 q 439 -15 519 -15 m 439 172 q 567 226 518 172 q 615 375 615 279 l 615 614 q 567 763 615 710 q 439 815 518 815 q 310 763 360 815 q 261 614 261 710 l 261 375 q 310 226 261 279 q 439 172 360 172 z "},"1":{"ha":503,"x_min":31,"x_max":393,"o":"m 203 799 l 31 799 l 31 986 l 393 986 l 393 0 l 203 0 l 203 799 z "},"2":{"ha":793,"x_min":53,"x_max":726,"o":"m 56 167 l 440 538 q 501 610 476 574 q 526 694 526 647 q 492 779 526 743 q 397 815 458 815 q 295 775 338 815 q 238 676 253 735 l 53 721 q 99 840 67 788 q 178 928 132 892 q 282 983 224 964 q 407 1003 340 1003 q 526 983 469 1003 q 624 926 582 964 q 692 833 667 889 q 717 704 717 778 q 705 608 717 651 q 671 528 693 565 q 619 456 649 490 q 554 389 589 422 l 346 188 l 726 188 l 726 0 l 56 0 l 56 167 z "},"3":{"ha":790,"x_min":25,"x_max":732,"o":"m 385 -17 q 267 1 325 -17 q 161 52 210 19 q 76 131 113 85 q 25 235 40 178 l 210 306 q 275 209 229 247 q 389 171 321 171 q 503 210 464 171 q 542 307 542 249 q 495 413 542 374 q 375 453 449 453 l 247 453 l 247 608 l 433 801 l 96 801 l 96 986 l 686 986 l 686 836 l 472 614 q 585 578 536 606 q 666 511 633 551 q 715 419 699 471 q 732 307 732 367 q 707 174 732 233 q 636 72 682 114 q 526 6 590 29 q 385 -17 463 -17 z "},"4":{"ha":885,"x_min":25,"x_max":835,"o":"m 515 225 l 25 225 l 25 379 l 536 986 l 706 986 l 706 400 l 835 400 l 835 225 l 706 225 l 706 0 l 515 0 l 515 225 m 515 400 l 515 704 l 258 400 l 515 400 z "},"5":{"ha":811,"x_min":51,"x_max":757,"o":"m 413 -15 q 294 3 351 -15 q 187 53 236 21 q 102 133 138 86 q 51 236 67 179 l 235 307 q 299 210 253 249 q 413 172 346 172 q 527 217 488 172 q 567 325 567 261 q 556 383 567 356 q 524 432 544 411 q 476 465 504 453 q 415 478 449 478 q 333 457 369 478 q 279 401 296 436 l 99 401 l 99 986 l 690 986 l 690 801 l 289 801 l 289 606 q 360 638 318 625 q 444 650 403 650 q 575 625 517 650 q 674 555 633 600 q 735 447 714 510 q 757 310 757 385 q 732 176 757 236 q 662 73 707 115 q 553 8 617 31 q 413 -15 490 -15 z "},"6":{"ha":790,"x_min":49,"x_max":736,"o":"m 392 -15 q 249 11 313 -15 q 142 83 186 38 q 73 191 97 129 q 49 325 49 253 q 56 394 49 363 q 78 455 64 425 q 114 517 93 485 q 163 588 135 549 l 457 986 l 692 986 l 438 640 q 545 616 492 638 q 641 553 599 594 q 710 455 683 513 q 736 325 736 397 q 712 191 736 253 q 643 83 688 129 q 535 11 599 38 q 392 -15 471 -15 m 392 168 q 453 180 425 168 q 501 213 481 192 q 533 262 522 233 q 544 322 544 290 q 533 383 544 354 q 501 432 522 411 q 453 465 481 453 q 392 478 425 478 q 331 465 358 478 q 283 432 303 453 q 251 383 263 411 q 240 322 240 354 q 251 262 240 290 q 283 213 263 233 q 331 180 303 192 q 392 168 358 168 z "},"7":{"ha":754,"x_min":47,"x_max":735,"o":"m 63 0 l 508 801 l 47 801 l 47 986 l 735 986 l 735 822 l 278 0 l 63 0 z "},"8":{"ha":817,"x_min":58,"x_max":758,"o":"m 408 -15 q 269 8 333 -15 q 159 74 206 32 q 85 175 113 117 q 58 303 58 233 q 91 444 58 386 q 185 539 124 503 q 122 625 144 575 q 100 736 100 675 q 122 842 100 793 q 185 927 144 892 q 282 983 225 963 q 408 1003 339 1003 q 535 983 478 1003 q 632 927 592 963 q 694 842 672 892 q 717 736 717 793 q 694 626 717 675 q 632 540 672 576 q 725 445 692 504 q 758 303 758 386 q 731 175 758 233 q 658 74 704 117 q 547 8 611 32 q 408 -15 483 -15 m 408 161 q 473 173 444 161 q 522 205 501 185 q 552 251 542 225 q 563 307 563 278 q 552 363 563 336 q 522 409 542 389 q 473 441 501 429 q 408 453 444 453 q 343 441 372 453 q 294 409 314 429 q 265 363 275 389 q 254 307 254 336 q 265 251 254 278 q 294 205 275 225 q 343 173 314 185 q 408 161 372 161 m 408 606 q 497 638 461 606 q 532 719 532 671 q 497 801 532 768 q 408 833 461 833 q 320 801 356 833 q 285 719 285 768 q 320 638 285 671 q 408 606 356 606 z "},"9":{"ha":790,"x_min":54,"x_max":743,"o":"m 351 347 q 244 371 297 349 q 149 433 192 393 q 81 531 107 474 q 54 663 54 589 q 78 797 54 735 q 148 904 103 858 q 256 976 193 950 q 399 1003 319 1003 q 541 976 478 1003 q 649 904 604 950 q 719 797 694 858 q 743 663 743 735 q 735 594 743 625 q 713 532 728 563 q 677 470 699 501 q 628 400 656 439 l 333 0 l 97 0 l 351 347 m 399 510 q 460 522 432 510 q 508 556 488 535 q 540 605 529 576 q 551 665 551 633 q 540 726 551 697 q 508 775 529 754 q 460 808 488 796 q 399 819 432 819 q 289 775 332 819 q 246 665 246 731 q 258 605 246 633 q 290 556 269 576 q 338 522 310 535 q 399 510 365 510 z "}," ":{"ha":317,"x_min":0,"x_max":0,"o":""},"!":{"ha":404,"x_min":81,"x_max":324,"o":"m 106 617 l 106 986 l 297 986 l 297 617 l 260 356 l 143 356 l 106 617 m 201 -11 q 155 -1 176 -11 q 117 24 133 8 q 90 63 100 40 q 81 110 81 85 q 90 157 81 135 q 117 195 100 179 q 155 221 133 211 q 201 231 176 231 q 288 195 253 231 q 324 110 324 160 q 288 24 324 60 q 201 -11 253 -11 z "},"\"":{"ha":603,"x_min":81,"x_max":522,"o":"m 81 986 l 242 986 l 242 588 l 81 588 l 81 986 m 361 986 l 522 986 l 522 588 l 361 588 l 361 986 z "},"#":{"ha":1008,"x_min":44,"x_max":964,"o":"m 531 257 l 332 257 l 251 0 l 89 0 l 169 257 l 44 257 l 44 403 l 215 403 l 271 585 l 146 585 l 146 731 l 318 731 l 396 986 l 561 986 l 481 731 l 678 731 l 757 986 l 921 986 l 840 731 l 964 731 l 964 585 l 794 585 l 738 403 l 864 403 l 864 257 l 692 257 l 611 0 l 449 0 l 531 257 m 378 403 l 576 403 l 631 585 l 435 585 l 378 403 z "},"$":{"ha":765,"x_min":44,"x_max":713,"o":"m 356 -14 q 174 30 258 -8 q 44 128 90 68 l 168 264 q 254 195 204 218 q 356 167 304 172 l 356 410 l 304 429 q 139 537 204 464 q 74 721 74 610 q 94 830 74 781 q 153 915 115 879 q 242 973 190 951 q 356 1000 294 994 l 356 1108 l 431 1108 l 431 1001 q 584 955 515 994 q 688 863 653 915 l 557 740 q 431 818 500 806 l 431 592 l 489 569 q 655 460 597 531 q 713 271 713 390 q 635 72 713 144 q 431 -12 558 -1 l 431 -122 l 356 -122 l 356 -14 m 522 269 q 499 334 522 307 q 431 382 475 361 l 431 169 q 497 203 471 178 q 522 269 522 229 m 264 728 q 288 664 264 688 q 356 621 311 640 l 356 818 q 290 788 317 811 q 264 728 264 765 z "},"%":{"ha":1361,"x_min":39,"x_max":1322,"o":"m 269 0 l 894 986 l 1092 986 l 467 0 l 269 0 m 1049 -11 q 942 10 992 -11 q 855 69 892 32 q 797 156 818 107 q 775 263 775 206 q 797 369 775 319 q 855 456 818 419 q 942 515 892 493 q 1049 536 992 536 q 1154 515 1104 536 q 1242 456 1204 493 q 1301 369 1279 419 q 1322 263 1322 319 q 1301 156 1322 206 q 1242 69 1279 107 q 1154 10 1204 32 q 1049 -11 1104 -11 m 1049 150 q 1127 183 1096 150 q 1158 263 1158 217 q 1127 342 1158 308 q 1049 375 1096 375 q 969 342 1001 375 q 938 263 938 308 q 969 183 938 217 q 1049 150 1001 150 m 313 450 q 206 472 256 450 q 119 531 156 493 q 60 617 82 568 q 39 724 39 667 q 60 831 39 781 q 119 917 82 881 q 206 976 156 954 q 313 997 256 997 q 418 976 368 997 q 506 917 468 954 q 565 831 543 881 q 586 724 586 781 q 565 617 586 667 q 506 531 543 568 q 418 472 468 493 q 313 450 368 450 m 313 611 q 392 644 360 611 q 424 724 424 678 q 392 803 424 769 q 313 836 360 836 q 233 803 265 836 q 201 724 201 769 q 233 644 201 678 q 313 611 265 611 z "},"&":{"ha":1057,"x_min":86,"x_max":1079,"o":"m 414 -15 q 271 8 332 -15 q 169 72 210 32 q 107 166 128 113 q 86 281 86 219 q 99 369 86 329 q 136 440 113 408 q 192 499 160 472 q 260 549 224 525 q 188 639 219 589 q 156 756 156 689 q 176 850 156 806 q 234 928 197 894 q 322 983 271 963 q 433 1003 372 1003 q 547 982 496 1003 q 633 926 597 961 q 689 848 669 892 q 708 757 708 804 q 696 678 708 713 q 660 615 683 643 q 607 563 638 586 q 540 519 576 540 l 701 364 l 846 538 l 979 425 l 825 244 l 1079 0 l 829 0 l 708 115 q 568 16 638 47 q 414 -15 499 -15 m 413 153 q 498 172 456 153 q 588 233 540 190 l 383 429 q 297 349 321 389 q 272 275 272 310 q 285 219 272 243 q 317 181 297 196 q 363 160 338 167 q 413 153 388 153 m 338 754 q 363 690 338 717 q 424 631 388 664 l 426 632 q 498 681 475 656 q 521 749 521 706 q 495 817 521 792 q 431 842 469 842 q 365 819 393 842 q 338 754 338 796 z "},"'":{"ha":322,"x_min":81,"x_max":242,"o":"m 81 986 l 242 986 l 242 588 l 81 588 l 81 986 z "},"(":{"ha":393,"x_min":54,"x_max":354,"o":"m 215 444 q 248 141 215 289 q 354 -161 281 -7 l 232 -222 q 54 444 54 100 q 232 1111 54 789 l 354 1050 q 248 748 281 896 q 215 444 215 600 z "},")":{"ha":393,"x_min":39,"x_max":339,"o":"m 178 444 q 145 748 178 600 q 39 1050 113 896 l 161 1111 q 339 444 339 789 q 161 -222 339 100 l 39 -161 q 145 141 113 -7 q 178 444 178 289 z "},"*":{"ha":683,"x_min":43,"x_max":640,"o":"m 115 497 l 235 660 l 43 722 l 83 849 l 276 786 l 276 986 l 408 986 l 408 786 l 600 849 l 640 724 l 449 660 l 568 497 l 463 421 l 343 582 l 222 421 l 115 497 z "},"+":{"ha":683,"x_min":50,"x_max":633,"o":"m 50 485 l 260 485 l 260 694 l 425 694 l 425 485 l 633 485 l 633 319 l 425 319 l 425 110 l 260 110 l 260 319 l 50 319 l 50 485 z "},",":{"ha":388,"x_min":21,"x_max":315,"o":"m 315 110 q 309 69 315 90 q 292 33 303 49 l 133 -211 l 21 -211 l 129 8 q 88 51 104 24 q 72 110 72 78 q 82 157 72 135 q 108 195 92 179 q 147 221 125 211 q 193 231 168 231 q 280 195 244 231 q 315 110 315 160 z "},"-":{"ha":556,"x_min":79,"x_max":476,"o":"m 79 481 l 476 481 l 476 297 l 79 297 l 79 481 z "},".":{"ha":354,"x_min":56,"x_max":299,"o":"m 176 -11 q 130 -1 151 -11 q 92 24 108 8 q 65 63 75 40 q 56 110 56 85 q 65 157 56 135 q 92 195 75 179 q 130 221 108 211 q 176 231 151 231 q 263 195 228 231 q 299 110 299 160 q 263 24 299 60 q 176 -11 228 -11 z "},"/":{"ha":758,"x_min":25,"x_max":733,"o":"m 561 986 l 733 986 l 197 -153 l 25 -153 l 561 986 z "},":":{"ha":382,"x_min":69,"x_max":313,"o":"m 190 439 q 144 449 165 439 q 106 474 122 458 q 79 513 89 490 q 69 560 69 535 q 79 607 69 585 q 106 645 89 629 q 144 671 122 661 q 190 681 165 681 q 277 645 242 681 q 313 560 313 610 q 277 474 313 510 q 190 439 242 439 m 190 -11 q 144 -1 165 -11 q 106 24 122 8 q 79 63 89 40 q 69 110 69 85 q 79 157 69 135 q 106 195 89 179 q 144 221 122 211 q 190 231 165 231 q 277 195 242 231 q 313 110 313 160 q 277 24 313 60 q 190 -11 242 -11 z "},";":{"ha":382,"x_min":19,"x_max":314,"o":"m 190 439 q 144 449 165 439 q 106 474 122 458 q 79 513 89 490 q 69 560 69 535 q 79 607 69 585 q 106 645 89 629 q 144 671 122 661 q 190 681 165 681 q 277 645 242 681 q 313 560 313 610 q 277 474 313 510 q 190 439 242 439 m 314 110 q 308 69 314 90 q 290 33 301 49 l 132 -211 l 19 -211 l 128 8 q 87 51 103 24 q 71 110 71 78 q 81 157 71 135 q 107 195 90 179 q 145 221 124 211 q 192 231 167 231 q 278 195 243 231 q 314 110 314 160 z "},"=":{"ha":751,"x_min":83,"x_max":668,"o":"m 83 338 l 668 338 l 668 174 l 83 174 l 83 338 m 83 631 l 668 631 l 668 465 l 83 465 l 83 631 z "},"?":{"ha":753,"x_min":33,"x_max":686,"o":"m 253 383 q 285 489 253 446 q 372 569 318 532 q 418 600 396 586 q 458 630 440 614 q 485 665 475 646 q 496 710 496 683 q 459 787 496 758 q 374 815 422 815 q 272 790 324 815 q 185 708 221 764 l 33 810 q 88 882 54 847 q 166 944 122 917 q 263 987 210 971 q 378 1003 317 1003 q 502 979 446 1003 q 599 917 558 956 q 663 827 640 878 q 686 721 686 776 q 658 586 686 643 q 561 478 629 529 q 476 414 508 439 q 443 361 443 389 l 443 357 l 253 357 l 253 383 m 347 -11 q 301 -1 322 -11 q 263 24 279 8 q 236 63 246 40 q 226 110 226 85 q 236 157 226 135 q 263 195 246 179 q 301 221 279 211 q 347 231 322 231 q 434 195 399 231 q 469 110 469 160 q 434 24 469 60 q 347 -11 399 -11 z "},"@":{"ha":1115,"x_min":54,"x_max":1069,"o":"m 536 -15 q 331 22 421 -15 q 181 126 242 60 q 87 280 119 192 q 54 468 54 368 q 98 685 54 586 q 216 854 142 783 q 388 964 290 925 q 593 1003 486 1003 q 782 972 694 1003 q 933 884 869 942 q 1033 745 997 826 q 1069 564 1069 664 q 1049 408 1069 474 q 994 301 1029 343 q 912 238 958 258 q 814 218 865 218 q 724 240 763 218 q 667 289 685 261 q 592 239 636 257 q 494 221 547 221 q 404 240 444 221 q 335 291 364 258 q 292 367 307 324 q 278 460 278 410 q 299 578 278 522 q 358 675 321 633 q 447 740 396 717 q 556 764 497 764 q 650 738 614 764 q 701 683 686 711 l 715 750 l 853 750 l 788 444 q 786 367 778 399 q 838 335 794 335 q 925 388 893 335 q 957 567 957 442 q 927 708 957 647 q 847 811 897 769 q 731 874 797 853 q 592 894 665 894 q 433 866 510 894 q 299 783 357 838 q 206 649 240 728 q 171 468 171 569 q 195 316 171 385 q 267 197 219 247 q 382 120 314 147 q 536 93 450 93 q 666 107 603 93 q 786 151 729 121 l 829 46 q 688 0 764 15 q 536 -15 611 -15 m 524 349 q 592 366 561 349 q 642 413 622 383 l 675 565 q 638 613 665 589 q 564 638 610 638 q 474 601 513 638 q 425 508 436 565 q 422 446 418 475 q 440 395 426 417 q 474 361 453 374 q 524 349 496 349 z "},"A":{"ha":1032,"x_min":1,"x_max":1032,"o":"m 426 986 l 606 986 l 1032 0 l 821 0 l 725 225 l 304 225 l 210 0 l 1 0 l 426 986 m 379 401 l 650 401 l 515 721 l 379 401 z "},"B":{"ha":881,"x_min":110,"x_max":832,"o":"m 110 986 l 471 986 q 587 963 533 986 q 680 901 640 940 q 742 810 719 863 q 764 700 764 758 q 743 599 764 643 q 686 524 722 556 q 792 433 751 492 q 832 290 832 374 q 809 176 832 229 q 745 83 786 122 q 648 22 704 44 q 526 0 592 0 l 110 0 l 110 986 m 513 185 q 603 217 569 185 q 636 297 636 249 q 603 378 636 346 q 513 411 569 411 l 311 411 l 311 185 l 513 185 m 451 582 q 536 614 504 582 q 568 692 568 646 q 536 769 568 736 q 451 803 504 803 l 311 803 l 311 582 l 451 582 z "},"C":{"ha":1046,"x_min":51,"x_max":1017,"o":"m 561 -17 q 363 24 456 -17 q 201 133 269 64 q 92 294 132 201 q 51 493 51 388 q 92 692 51 599 q 201 853 132 785 q 363 963 269 922 q 561 1003 456 1003 q 705 984 636 1003 q 833 931 774 965 q 938 848 892 896 q 1017 740 985 800 l 842 643 q 727 764 797 719 q 561 808 657 808 q 440 783 496 808 q 343 715 385 758 q 278 615 301 672 q 254 493 254 557 q 278 371 254 428 q 343 271 301 314 q 440 203 385 228 q 561 178 496 178 q 727 222 657 178 q 842 343 797 267 l 1017 246 q 938 138 985 186 q 833 55 892 89 q 705 2 774 21 q 561 -17 636 -17 z "},"D":{"ha":994,"x_min":110,"x_max":942,"o":"m 110 986 l 435 986 q 633 948 540 986 q 794 843 726 910 q 902 686 863 776 q 942 493 942 596 q 902 300 942 390 q 794 143 863 210 q 633 38 726 76 q 435 0 540 0 l 110 0 l 110 986 m 435 185 q 559 209 503 185 q 655 275 615 233 q 717 373 694 317 q 739 493 739 429 q 717 613 739 557 q 655 711 694 669 q 559 777 615 753 q 435 801 503 801 l 311 801 l 311 185 l 435 185 z "},"E":{"ha":789,"x_min":110,"x_max":724,"o":"m 110 986 l 724 986 l 724 794 l 311 794 l 311 592 l 640 592 l 640 400 l 311 400 l 311 192 l 724 192 l 724 0 l 110 0 l 110 986 z "},"F":{"ha":753,"x_min":110,"x_max":710,"o":"m 110 986 l 710 986 l 710 794 l 311 794 l 311 590 l 624 590 l 624 399 l 311 399 l 311 0 l 110 0 l 110 986 z "},"G":{"ha":1060,"x_min":53,"x_max":989,"o":"m 588 -17 q 374 22 472 -17 q 205 130 276 61 q 93 292 133 199 q 53 493 53 385 q 91 692 53 599 q 198 853 129 785 q 362 963 267 922 q 571 1003 457 1003 q 799 960 700 1003 q 968 842 897 917 l 828 703 q 721 778 783 749 q 571 808 658 808 q 442 783 500 808 q 342 715 383 758 q 278 615 301 672 q 256 493 256 557 q 278 369 256 426 q 344 269 301 311 q 449 202 388 226 q 586 178 510 178 q 702 190 647 178 q 793 231 757 203 l 793 401 l 581 401 l 581 590 l 989 590 l 989 128 q 910 65 956 92 q 813 19 865 38 q 703 -8 761 1 q 588 -17 646 -17 z "},"H":{"ha":1050,"x_min":110,"x_max":940,"o":"m 110 986 l 311 986 l 311 593 l 739 593 l 739 986 l 940 986 l 940 0 l 739 0 l 739 401 l 311 401 l 311 0 l 110 0 l 110 986 z "},"I":{"ha":421,"x_min":110,"x_max":311,"o":"m 110 986 l 311 986 l 311 0 l 110 0 l 110 986 z "},"J":{"ha":654,"x_min":1,"x_max":551,"o":"m 249 -17 q 95 14 156 -17 q 1 79 35 44 l 115 226 q 240 171 171 171 q 318 197 286 171 q 350 282 350 224 l 350 986 l 551 986 l 551 269 q 526 140 551 194 q 459 51 501 86 q 362 0 417 17 q 249 -17 307 -17 z "},"K":{"ha":964,"x_min":110,"x_max":999,"o":"m 310 447 l 310 0 l 110 0 l 110 986 l 310 986 l 310 568 l 665 986 l 914 986 l 508 513 l 999 0 l 738 0 l 310 447 z "},"L":{"ha":765,"x_min":110,"x_max":733,"o":"m 110 986 l 311 986 l 311 192 l 733 192 l 733 0 l 110 0 l 110 986 z "},"M":{"ha":1228,"x_min":110,"x_max":1117,"o":"m 110 986 l 293 986 l 613 467 l 933 986 l 1117 986 l 1117 0 l 915 0 l 915 601 l 681 219 l 547 219 l 311 603 l 311 0 l 110 0 l 110 986 z "},"N":{"ha":1100,"x_min":110,"x_max":990,"o":"m 817 0 l 311 643 l 311 0 l 110 0 l 110 986 l 283 986 l 789 343 l 789 986 l 990 986 l 990 0 l 817 0 z "},"O":{"ha":1122,"x_min":51,"x_max":1071,"o":"m 561 178 q 681 203 625 178 q 779 271 738 228 q 844 371 821 314 q 868 493 868 428 q 844 615 868 557 q 779 715 821 672 q 681 783 738 758 q 561 808 625 808 q 440 783 496 808 q 343 715 385 758 q 278 615 301 672 q 254 493 254 557 q 278 371 254 428 q 343 271 301 314 q 440 203 385 228 q 561 178 496 178 m 561 -17 q 363 24 456 -17 q 201 133 269 64 q 92 294 132 201 q 51 493 51 388 q 92 692 51 599 q 201 853 132 785 q 363 963 269 922 q 561 1003 456 1003 q 760 963 667 1003 q 922 853 853 922 q 1031 692 990 785 q 1071 493 1071 599 q 1031 294 1071 388 q 922 133 990 201 q 760 24 853 64 q 561 -17 667 -17 z "},"P":{"ha":821,"x_min":110,"x_max":783,"o":"m 783 654 q 758 523 783 583 q 685 418 732 463 q 576 348 639 374 q 438 322 513 322 l 311 322 l 311 0 l 110 0 l 110 986 l 438 986 q 576 960 513 986 q 685 890 639 935 q 758 785 732 846 q 783 654 783 725 m 588 654 q 546 756 588 715 q 435 797 504 797 l 311 797 l 311 511 l 435 511 q 546 552 504 511 q 588 654 588 593 z "},"Q":{"ha":1136,"x_min":51,"x_max":1097,"o":"m 561 -17 q 363 24 456 -17 q 201 133 269 64 q 92 294 132 201 q 51 493 51 388 q 92 692 51 599 q 201 853 132 785 q 363 963 269 922 q 561 1003 456 1003 q 760 963 667 1003 q 922 853 853 922 q 1031 692 990 785 q 1071 493 1071 599 q 1049 347 1071 417 q 990 218 1028 278 l 1097 129 l 982 -11 l 867 85 q 724 10 801 36 q 561 -17 647 -17 m 561 178 q 708 217 642 178 l 564 338 l 679 476 l 833 347 q 868 493 868 417 q 844 615 868 557 q 779 715 821 672 q 681 783 738 758 q 561 808 625 808 q 440 783 496 808 q 343 715 385 758 q 278 615 301 672 q 254 493 254 557 q 278 371 254 428 q 343 271 301 314 q 440 203 385 228 q 561 178 496 178 z "},"R":{"ha":911,"x_min":110,"x_max":942,"o":"m 110 986 l 488 986 q 613 964 557 986 q 708 902 668 942 q 769 809 747 863 q 790 694 790 756 q 738 531 790 594 q 588 438 686 468 l 942 0 l 699 0 l 360 415 l 311 415 l 311 0 l 110 0 l 110 986 m 464 588 q 556 616 521 588 q 590 694 590 644 q 556 774 590 746 q 464 801 521 801 l 311 801 l 311 588 l 464 588 z "},"S":{"ha":792,"x_min":36,"x_max":743,"o":"m 397 -17 q 184 31 279 -17 q 36 160 89 78 l 192 289 q 285 203 228 233 q 404 172 343 172 q 501 199 464 172 q 538 268 538 225 q 505 340 538 310 q 399 396 472 371 l 315 425 q 134 536 196 467 q 72 707 72 606 q 97 831 72 776 q 167 924 122 886 q 272 983 211 963 q 406 1003 333 1003 q 575 970 497 1003 q 718 867 653 938 l 583 729 q 503 793 549 772 q 408 814 458 814 q 359 808 383 814 q 317 792 335 803 q 288 765 299 781 q 276 726 276 749 q 313 656 276 682 q 428 603 349 631 l 507 574 q 679 463 615 533 q 742 281 743 393 q 716 160 742 214 q 645 66 690 106 q 537 5 600 26 q 397 -17 474 -17 z "},"T":{"ha":789,"x_min":29,"x_max":760,"o":"m 292 794 l 29 794 l 29 986 l 760 986 l 760 794 l 494 794 l 494 0 l 292 0 l 292 794 z "},"U":{"ha":1000,"x_min":99,"x_max":901,"o":"m 500 -17 q 338 12 411 -17 q 210 94 264 40 q 128 222 157 147 q 99 389 99 297 l 99 986 l 300 986 l 300 386 q 355 233 300 288 q 500 178 410 178 q 645 233 590 178 q 700 386 700 288 l 700 986 l 901 986 l 901 389 q 872 222 901 297 q 788 94 842 147 q 661 12 735 40 q 500 -17 588 -17 z "},"V":{"ha":1001,"x_min":4,"x_max":999,"o":"m 4 986 l 222 986 l 501 301 l 776 986 l 999 986 l 590 0 l 411 0 l 4 986 z "},"W":{"ha":1417,"x_min":13,"x_max":1404,"o":"m 13 986 l 225 986 l 415 331 l 619 986 l 796 986 l 999 331 l 1190 986 l 1404 986 l 1097 0 l 917 0 l 708 678 l 500 0 l 319 0 l 13 986 z "},"X":{"ha":968,"x_min":-8,"x_max":976,"o":"m -8 0 l 363 499 l 13 986 l 246 986 l 483 654 l 722 986 l 956 986 l 604 499 l 976 0 l 740 0 l 483 342 l 228 0 l -8 0 z "},"Y":{"ha":958,"x_min":14,"x_max":944,"o":"m 378 415 l 14 986 l 247 986 l 478 613 l 710 986 l 944 986 l 579 414 l 579 0 l 378 0 l 378 415 z "},"Z":{"ha":858,"x_min":53,"x_max":806,"o":"m 53 138 l 524 794 l 61 794 l 61 986 l 796 986 l 796 849 l 322 192 l 806 192 l 806 0 l 53 0 l 53 138 z "},"[":{"ha":451,"x_min":106,"x_max":413,"o":"m 106 1111 l 413 1111 l 413 972 l 267 972 l 267 -83 l 413 -83 l 413 -222 l 106 -222 l 106 1111 z "},"]":{"ha":451,"x_min":39,"x_max":346,"o":"m 346 -222 l 39 -222 l 39 -83 l 185 -83 l 185 972 l 39 972 l 39 1111 l 346 1111 l 346 -222 z "},"_":{"ha":715,"x_min":57,"x_max":658,"o":"m 57 0 l 658 0 l 658 -146 l 57 -146 l 57 0 z "},"`":{"ha":0,"x_min":-168,"x_max":167,"o":"m 25 778 l -168 1014 l 53 1014 l 167 778 l 25 778 z "},"a":{"ha":850,"x_min":47,"x_max":758,"o":"m 390 -15 q 249 14 313 -15 q 142 93 186 43 q 72 208 97 143 q 47 347 47 274 q 72 485 47 419 q 142 601 97 551 q 249 681 186 651 q 390 710 313 710 q 492 692 447 710 q 568 644 538 674 l 568 694 l 758 694 l 758 0 l 568 0 l 568 51 q 492 3 538 21 q 390 -15 447 -15 m 418 158 q 509 180 474 158 q 568 235 544 201 l 568 461 q 509 515 544 493 q 418 536 474 536 q 347 521 379 536 q 292 480 315 506 q 257 420 269 454 q 244 347 244 386 q 257 274 244 308 q 292 215 269 240 q 347 174 315 189 q 418 158 379 158 z "},"b":{"ha":851,"x_min":92,"x_max":803,"o":"m 460 -15 q 358 3 404 -15 q 282 51 313 21 l 282 0 l 92 0 l 92 1014 l 282 1014 l 282 644 q 358 692 313 674 q 460 710 404 710 q 600 681 536 710 q 708 601 664 651 q 778 485 753 551 q 803 347 803 419 q 778 208 803 274 q 708 93 753 143 q 600 14 664 43 q 460 -15 536 -15 m 432 158 q 503 174 471 158 q 559 215 536 189 q 594 274 582 240 q 607 347 607 308 q 594 420 607 386 q 559 480 582 454 q 503 521 536 506 q 432 536 471 536 q 341 515 376 536 q 282 461 306 493 l 282 235 q 341 180 306 201 q 432 158 376 158 z "},"c":{"ha":775,"x_min":47,"x_max":744,"o":"m 415 -15 q 271 12 338 -15 q 154 88 204 39 q 76 202 104 136 q 47 347 47 268 q 76 492 47 426 q 154 607 104 558 q 271 683 204 656 q 415 710 338 710 q 519 695 469 710 q 612 654 569 681 q 688 591 654 628 q 744 510 722 554 l 579 421 q 516 501 558 469 q 415 532 474 532 q 346 518 378 532 q 290 480 314 504 q 252 422 265 456 q 239 347 239 388 q 252 273 239 307 q 290 215 265 239 q 346 176 314 190 q 415 163 378 163 q 516 194 474 163 q 579 274 558 225 l 744 185 q 688 103 722 140 q 612 40 654 67 q 519 -1 569 14 q 415 -15 469 -15 z "},"d":{"ha":850,"x_min":47,"x_max":758,"o":"m 390 -15 q 249 14 313 -15 q 142 93 186 43 q 72 208 97 143 q 47 347 47 274 q 72 485 47 419 q 142 601 97 551 q 249 681 186 651 q 390 710 313 710 q 492 692 447 710 q 568 644 538 674 l 568 1014 l 758 1014 l 758 0 l 568 0 l 568 51 q 492 3 538 21 q 390 -15 447 -15 m 418 158 q 509 180 474 158 q 568 235 544 201 l 568 461 q 509 515 544 493 q 418 536 474 536 q 347 521 379 536 q 292 480 315 506 q 257 420 269 454 q 244 347 244 386 q 257 274 244 308 q 292 215 269 240 q 347 174 315 189 q 418 158 379 158 z "},"e":{"ha":803,"x_min":47,"x_max":754,"o":"m 415 -15 q 270 10 338 -15 q 153 83 203 36 q 76 198 104 131 q 47 347 47 265 q 74 490 47 424 q 151 606 101 557 q 267 682 200 654 q 413 710 333 710 q 542 688 481 710 q 651 624 604 667 q 726 517 699 581 q 754 368 754 453 q 754 340 754 356 q 751 303 754 325 l 232 303 q 253 241 236 268 q 294 196 269 214 q 351 168 319 178 q 417 158 382 158 q 527 184 482 158 q 596 246 572 210 l 738 140 q 607 27 689 69 q 415 -15 525 -15 m 564 432 q 506 524 551 494 q 407 553 460 553 q 353 546 381 553 q 303 524 326 539 q 263 487 281 510 q 239 432 246 464 l 564 432 z "},"f":{"ha":631,"x_min":22,"x_max":635,"o":"m 188 528 l 22 528 l 22 694 l 188 694 l 188 747 q 204 853 188 803 q 255 940 221 903 q 340 1000 289 978 q 457 1022 390 1022 q 564 1009 519 1022 q 635 982 608 996 l 565 826 q 529 842 550 835 q 481 850 508 850 q 406 822 433 850 q 378 746 378 793 l 378 694 l 611 694 l 611 528 l 378 528 l 378 0 l 188 0 l 188 528 z "},"g":{"ha":856,"x_min":47,"x_max":764,"o":"m 400 -283 q 233 -260 314 -283 q 93 -186 151 -236 l 197 -44 q 293 -99 242 -82 q 397 -117 344 -117 q 460 -108 429 -117 q 517 -80 492 -99 q 558 -32 542 -61 q 574 38 574 -3 l 574 81 q 498 32 543 50 q 394 14 453 14 q 256 41 319 14 q 145 115 192 68 q 73 224 99 161 q 47 361 47 288 q 74 497 47 433 q 147 608 100 561 q 256 683 193 656 q 394 710 319 710 q 498 692 453 710 q 574 644 543 674 l 574 694 l 764 694 l 764 39 q 732 -115 764 -53 q 648 -214 700 -176 q 531 -267 596 -251 q 400 -283 465 -283 m 424 186 q 515 208 479 186 q 574 264 550 231 l 574 461 q 515 515 550 493 q 424 536 479 536 q 295 488 346 536 q 244 361 244 439 q 258 291 244 324 q 295 235 271 258 q 352 199 319 213 q 424 186 385 186 z "},"h":{"ha":832,"x_min":92,"x_max":749,"o":"m 92 0 l 92 1014 l 282 1014 l 282 636 q 364 691 315 672 q 471 710 413 710 q 588 688 536 710 q 676 625 640 665 q 730 528 711 585 q 749 403 749 472 l 749 0 l 558 0 l 558 371 q 526 491 558 446 q 429 536 494 536 q 342 514 381 536 q 282 457 304 492 l 282 0 l 92 0 z "},"i":{"ha":374,"x_min":65,"x_max":308,"o":"m 186 781 q 140 790 161 781 q 101 816 118 800 q 75 854 85 832 q 65 901 65 876 q 75 949 65 926 q 101 987 85 971 q 140 1013 118 1003 q 186 1022 161 1022 q 273 987 238 1022 q 308 901 308 951 q 273 816 308 851 q 186 781 238 781 m 92 694 l 282 694 l 282 0 l 92 0 l 92 694 z "},"j":{"ha":385,"x_min":-119,"x_max":319,"o":"m 38 -276 q -8 -274 15 -276 q -53 -267 -32 -271 q -92 -257 -74 -262 q -119 -246 -110 -251 l -76 -90 q 13 -111 -33 -111 q 78 -85 53 -111 q 103 6 103 -58 l 103 694 l 293 694 l 293 -25 q 273 -136 293 -89 q 219 -215 253 -183 q 138 -261 185 -246 q 38 -276 92 -276 m 197 781 q 151 790 172 781 q 113 816 129 800 q 86 854 96 832 q 76 901 76 876 q 86 949 76 926 q 113 987 96 971 q 151 1013 129 1003 q 197 1022 172 1022 q 284 987 249 1022 q 319 901 319 951 q 284 816 319 851 q 197 781 249 781 z "},"k":{"ha":772,"x_min":92,"x_max":800,"o":"m 282 319 l 282 0 l 92 0 l 92 1014 l 282 1014 l 282 439 l 507 694 l 736 694 l 461 382 l 800 0 l 565 0 l 282 319 z "},"l":{"ha":374,"x_min":92,"x_max":282,"o":"m 92 1014 l 282 1014 l 282 0 l 92 0 l 92 1014 z "},"m":{"ha":1240,"x_min":92,"x_max":1157,"o":"m 967 367 q 940 487 967 439 q 847 535 913 535 q 769 513 804 535 q 714 453 733 490 q 719 400 719 426 l 719 0 l 529 0 l 529 367 q 502 487 529 439 q 410 535 475 535 q 335 514 369 535 q 282 461 300 493 l 282 0 l 92 0 l 92 694 l 282 694 l 282 640 q 356 691 310 672 q 451 710 403 710 q 563 685 514 710 q 647 618 611 661 q 737 683 679 656 q 874 710 794 710 q 1001 685 947 710 q 1089 619 1054 661 q 1140 521 1124 578 q 1157 400 1157 464 l 1157 0 l 967 0 l 967 367 z "},"n":{"ha":832,"x_min":92,"x_max":749,"o":"m 92 694 l 282 694 l 282 636 q 364 691 315 672 q 471 710 413 710 q 588 688 536 710 q 676 625 640 665 q 730 528 711 585 q 749 403 749 472 l 749 0 l 558 0 l 558 371 q 526 491 558 446 q 429 536 494 536 q 342 514 381 536 q 282 457 304 492 l 282 0 l 92 0 l 92 694 z "},"o":{"ha":822,"x_min":46,"x_max":776,"o":"m 411 -15 q 269 13 336 -15 q 153 90 203 40 q 74 205 103 139 q 46 347 46 271 q 74 490 46 424 q 153 604 103 556 q 269 681 203 653 q 411 710 336 710 q 553 681 486 710 q 669 604 619 653 q 748 490 719 556 q 776 347 776 424 q 748 205 776 271 q 669 90 719 139 q 553 13 619 40 q 411 -15 486 -15 m 411 163 q 480 176 449 163 q 534 215 511 190 q 570 273 557 239 q 583 347 583 307 q 570 422 583 388 q 534 480 557 456 q 480 518 511 504 q 411 532 449 532 q 342 518 374 532 q 287 480 310 504 q 251 422 264 456 q 238 347 238 388 q 251 273 238 307 q 287 215 264 239 q 342 176 310 190 q 411 163 374 163 z "},"p":{"ha":851,"x_min":92,"x_max":803,"o":"m 92 694 l 282 694 l 282 644 q 358 692 313 674 q 460 710 404 710 q 600 681 536 710 q 708 601 664 651 q 778 485 753 551 q 803 347 803 419 q 778 208 803 274 q 708 93 753 143 q 600 14 664 43 q 460 -15 536 -15 q 358 3 404 -15 q 282 51 313 21 l 282 -269 l 92 -269 l 92 694 m 432 158 q 503 174 471 158 q 559 215 536 189 q 594 274 582 240 q 607 347 607 308 q 594 420 607 386 q 559 480 582 454 q 503 521 536 506 q 432 536 471 536 q 341 515 376 536 q 282 461 306 493 l 282 235 q 341 180 306 201 q 432 158 376 158 z "},"q":{"ha":850,"x_min":47,"x_max":758,"o":"m 568 51 q 492 3 538 21 q 390 -15 447 -15 q 249 14 313 -15 q 142 93 186 43 q 72 208 97 143 q 47 347 47 274 q 72 485 47 419 q 142 601 97 551 q 249 681 186 651 q 390 710 313 710 q 492 692 447 710 q 568 644 538 674 l 568 694 l 758 694 l 758 -269 l 568 -269 l 568 51 m 418 158 q 509 180 474 158 q 568 235 544 201 l 568 461 q 509 515 544 493 q 418 536 474 536 q 347 521 379 536 q 292 480 315 506 q 257 420 269 454 q 244 347 244 386 q 257 274 244 308 q 292 215 269 240 q 347 174 315 189 q 418 158 379 158 z "},"r":{"ha":538,"x_min":92,"x_max":524,"o":"m 92 694 l 282 694 l 282 611 q 344 676 300 649 q 443 703 389 703 q 491 699 469 703 q 524 690 513 694 l 494 511 q 472 517 488 514 q 436 519 457 519 q 351 501 396 519 q 282 442 307 483 l 282 0 l 92 0 l 92 694 z "},"s":{"ha":638,"x_min":39,"x_max":589,"o":"m 325 -15 q 158 17 233 -15 q 39 118 83 50 l 169 229 q 234 169 193 190 q 325 149 275 149 q 378 160 354 149 q 401 199 401 172 q 383 235 401 221 q 308 265 365 250 l 257 278 q 112 361 161 303 q 65 500 63 419 q 87 586 67 547 q 142 653 107 625 q 224 695 176 681 q 326 710 271 710 q 567 593 486 710 l 442 492 q 324 553 393 553 q 276 541 299 553 q 254 506 254 529 q 266 474 254 490 q 322 446 278 457 l 388 426 q 535 351 481 401 q 589 211 589 301 q 569 119 589 161 q 513 48 549 78 q 429 1 478 18 q 325 -15 381 -15 z "},"t":{"ha":644,"x_min":19,"x_max":636,"o":"m 457 -8 q 349 7 399 -8 q 264 53 300 22 q 208 132 228 85 q 188 243 188 179 l 188 528 l 19 528 l 19 694 l 188 694 l 188 903 l 378 903 l 378 694 l 588 694 l 588 528 l 378 528 l 378 281 q 404 190 378 217 q 483 164 431 164 q 538 172 511 164 q 579 188 564 179 l 636 32 q 560 5 611 18 q 457 -8 510 -8 z "},"u":{"ha":817,"x_min":83,"x_max":725,"o":"m 725 0 l 535 0 l 535 56 q 455 3 501 21 q 364 -15 408 -15 q 245 7 297 -15 q 157 69 193 29 q 102 166 121 110 q 83 292 83 222 l 83 694 l 274 694 l 274 324 q 305 203 274 249 q 404 158 336 158 q 476 180 440 158 q 535 238 511 201 l 535 694 l 725 694 l 725 0 z "},"v":{"ha":792,"x_min":1,"x_max":790,"o":"m 1 694 l 211 694 l 394 250 l 578 694 l 790 694 l 482 0 l 308 0 l 1 694 z "},"w":{"ha":1111,"x_min":7,"x_max":1104,"o":"m 556 394 l 426 0 l 238 0 l 7 694 l 210 694 l 342 250 l 482 694 l 628 694 l 769 250 l 900 694 l 1104 694 l 875 0 l 686 0 l 556 394 z "},"x":{"ha":788,"x_min":4,"x_max":783,"o":"m 394 204 l 233 0 l 4 0 l 274 340 l 11 694 l 236 694 l 393 482 l 550 694 l 776 694 l 514 340 l 783 0 l 556 0 l 394 204 z "},"y":{"ha":792,"x_min":3,"x_max":792,"o":"m 158 -269 l 294 39 l 3 694 l 211 694 l 397 244 l 582 694 l 792 694 l 365 -269 l 158 -269 z "},"z":{"ha":692,"x_min":57,"x_max":639,"o":"m 57 149 l 382 522 l 61 522 l 61 694 l 628 694 l 628 544 l 303 172 l 639 172 l 639 0 l 57 0 l 57 149 z "},"{":{"ha":472,"x_min":39,"x_max":435,"o":"m 321 -222 q 177 -169 228 -222 q 126 -25 126 -117 l 126 293 q 110 351 126 328 q 51 375 94 375 l 39 375 l 39 514 l 51 514 q 110 536 94 514 q 126 593 126 558 l 126 914 q 177 1058 126 1006 q 321 1111 228 1111 l 435 1111 l 435 972 l 368 972 q 306 953 324 972 q 289 888 289 933 l 289 585 q 266 489 289 522 q 204 444 243 456 q 266 399 243 433 q 289 301 289 364 l 289 1 q 306 -64 289 -44 q 368 -83 324 -83 l 435 -83 l 435 -222 l 321 -222 z "},"|":{"ha":371,"x_min":104,"x_max":265,"o":"m 104 986 l 265 986 l 265 -153 l 104 -153 l 104 986 z "},"}":{"ha":472,"x_min":38,"x_max":433,"o":"m 38 -222 l 38 -83 l 104 -83 q 166 -64 149 -83 q 183 1 183 -44 l 183 301 q 206 399 183 364 q 268 444 229 433 q 206 489 229 456 q 183 585 183 522 l 183 888 q 166 953 183 933 q 104 972 149 972 l 38 972 l 38 1111 l 151 1111 q 295 1058 244 1111 q 346 914 346 1006 l 346 593 q 362 536 346 558 q 421 514 378 514 l 433 514 l 433 375 l 421 375 q 362 351 378 375 q 346 293 346 328 l 346 -25 q 295 -169 346 -117 q 151 -222 244 -222 l 38 -222 z "}," ":{"ha":317,"x_min":0,"x_max":0,"o":""},"¡":{"ha":383,"x_min":71,"x_max":314,"o":"m 288 103 l 288 -269 l 96 -269 l 96 103 l 132 363 l 250 363 l 288 103 m 192 467 q 145 476 167 467 q 107 502 124 486 q 81 540 90 518 q 71 588 71 563 q 81 635 71 613 q 107 673 90 657 q 145 699 124 689 q 192 708 167 708 q 278 673 243 708 q 314 588 314 638 q 278 502 314 538 q 192 467 243 467 z "},"£":{"ha":808,"x_min":64,"x_max":758,"o":"m 64 536 l 163 536 q 139 620 149 578 q 129 706 129 663 q 153 828 129 774 q 218 922 176 883 q 318 982 260 961 q 447 1003 376 1003 q 635 951 558 1003 q 753 821 713 900 l 603 717 q 546 784 583 753 q 451 815 508 815 q 358 786 396 815 q 319 692 319 757 q 331 615 319 654 q 358 536 343 576 l 596 536 l 596 458 l 385 458 q 402 392 396 426 q 408 319 408 357 q 400 256 408 289 q 371 188 392 224 l 758 188 l 758 0 l 64 0 l 64 188 l 188 188 q 219 314 219 247 q 210 385 219 349 q 190 458 201 421 l 64 458 l 64 536 z "},"¥":{"ha":1003,"x_min":35,"x_max":967,"o":"m 107 493 l 354 493 l 35 986 l 267 986 l 500 606 l 735 986 l 967 986 l 647 493 l 894 493 l 894 414 l 596 414 l 596 310 l 894 310 l 894 231 l 596 231 l 596 0 l 406 0 l 406 231 l 107 231 l 107 310 l 406 310 l 406 414 l 107 414 l 107 493 z "},"¨":{"ha":0,"x_min":-285,"x_max":285,"o":"m -164 781 q -210 790 -189 781 q -249 816 -232 800 q -275 854 -265 832 q -285 901 -285 876 q -275 949 -285 926 q -249 987 -265 971 q -210 1013 -232 1003 q -164 1022 -189 1022 q -77 987 -112 1022 q -42 901 -42 951 q -77 816 -42 851 q -164 781 -112 781 m 163 781 q 116 790 138 781 q 78 816 94 800 q 51 854 61 832 q 42 901 42 876 q 51 949 42 926 q 78 987 61 971 q 116 1013 94 1003 q 163 1022 138 1022 q 249 987 214 1022 q 285 901 285 951 q 249 816 285 851 q 163 781 214 781 z "},"©":{"ha":1121,"x_min":51,"x_max":1069,"o":"m 560 100 q 713 131 640 100 q 838 215 785 163 q 922 340 890 268 q 953 493 953 411 q 922 646 953 574 q 838 771 890 718 q 713 855 785 824 q 560 886 640 886 q 408 855 479 886 q 283 771 336 824 q 199 646 231 718 q 168 493 168 574 q 199 340 168 411 q 283 215 231 268 q 408 131 336 163 q 560 100 479 100 m 560 -17 q 363 24 456 -17 q 201 133 269 64 q 92 295 132 203 q 51 493 51 388 q 92 691 51 599 q 201 853 132 783 q 363 963 269 922 q 560 1003 456 1003 q 758 963 665 1003 q 919 853 850 922 q 1029 691 989 783 q 1069 493 1069 599 q 1029 295 1069 388 q 919 133 989 203 q 758 24 850 64 q 560 -17 665 -17 m 563 226 q 458 247 507 226 q 373 304 410 268 q 315 389 336 340 q 294 493 294 438 q 315 596 294 547 q 373 681 336 644 q 458 739 410 718 q 563 760 507 760 q 707 722 643 760 q 804 618 771 683 l 700 563 q 645 624 679 601 q 563 647 611 647 q 503 635 531 647 q 456 601 476 622 q 424 551 436 579 q 413 493 413 524 q 424 433 413 461 q 456 385 436 406 q 503 351 476 364 q 563 339 531 339 q 645 362 611 339 q 700 422 679 385 l 804 368 q 707 265 771 303 q 563 226 643 226 z "},"«":{"ha":714,"x_min":43,"x_max":657,"o":"m 657 100 l 536 22 l 325 347 l 536 672 l 657 594 l 525 347 l 657 100 m 375 100 l 254 22 l 43 347 l 254 672 l 375 594 l 243 347 l 375 100 z "},"­":{"ha":556,"x_min":79,"x_max":476,"o":"m 79 481 l 476 481 l 476 297 l 79 297 l 79 481 z "},"¯":{"ha":0,"x_min":-237,"x_max":238,"o":"m -237 986 l 238 986 l 238 851 l -237 851 l -237 986 z "},"°":{"ha":519,"x_min":47,"x_max":474,"o":"m 261 692 q 322 717 297 692 q 347 778 347 742 q 322 839 347 814 q 261 864 297 864 q 199 839 224 864 q 174 778 174 814 q 199 717 174 742 q 261 692 224 692 m 261 564 q 178 581 217 564 q 110 626 139 597 q 64 694 81 656 q 47 778 47 733 q 64 861 47 822 q 110 929 81 900 q 178 975 139 958 q 261 992 217 992 q 343 975 304 992 q 411 929 382 958 q 457 861 440 900 q 474 778 474 822 q 457 694 474 733 q 411 626 440 656 q 343 581 382 597 q 261 564 304 564 z "},"´":{"ha":0,"x_min":-168,"x_max":167,"o":"m -54 1014 l 167 1014 l -26 778 l -168 778 l -54 1014 z "},"·":{"ha":367,"x_min":61,"x_max":304,"o":"m 182 257 q 135 267 157 257 q 97 292 114 276 q 71 331 81 308 q 61 378 61 353 q 71 425 61 403 q 97 463 81 447 q 135 489 114 479 q 182 499 157 499 q 269 463 233 499 q 304 378 304 428 q 269 292 304 328 q 182 257 233 257 z "},"¸":{"ha":0,"x_min":-162,"x_max":158,"o":"m -143 -176 q -49 -199 -100 -199 q -26 -197 -39 -199 q -3 -192 -14 -196 q 15 -180 7 -187 q 22 -160 22 -172 q 8 -133 22 -140 q -25 -125 -7 -125 q -58 -130 -43 -125 q -85 -142 -74 -135 l -133 -114 l -62 4 l 24 4 l -17 -62 q 10 -51 -7 -56 q 46 -47 26 -47 q 126 -76 93 -47 q 158 -151 158 -106 q 143 -206 158 -182 q 102 -248 128 -231 q 42 -274 76 -265 q -28 -283 8 -283 q -95 -279 -60 -283 q -162 -261 -131 -275 l -143 -176 z "},"»":{"ha":714,"x_min":57,"x_max":671,"o":"m 471 347 l 339 594 l 460 672 l 671 347 l 460 22 l 339 100 l 471 347 m 189 347 l 57 594 l 178 672 l 389 347 l 178 22 l 57 100 l 189 347 z "},"¿":{"ha":743,"x_min":61,"x_max":714,"o":"m 369 -283 q 245 -260 301 -283 q 148 -197 189 -236 q 84 -108 107 -158 q 61 -1 61 -57 q 90 133 61 76 q 186 242 118 190 q 272 306 239 281 q 304 358 304 331 l 304 363 l 494 363 l 494 336 q 462 231 494 274 q 375 150 429 188 q 329 119 351 133 q 290 89 307 104 q 262 55 272 74 q 251 10 251 36 q 288 -67 251 -39 q 374 -96 325 -96 q 475 -70 424 -96 q 563 11 526 -44 l 714 -90 q 659 -162 693 -128 q 581 -224 625 -197 q 484 -267 538 -251 q 369 -283 431 -283 m 399 467 q 352 476 374 467 q 314 502 331 486 q 288 540 297 518 q 278 588 278 563 q 288 635 278 613 q 314 673 297 657 q 352 699 331 689 q 399 708 374 708 q 485 673 450 708 q 521 588 521 638 q 485 502 521 538 q 399 467 450 467 z "},"À":{"ha":1032,"x_min":1,"x_max":1032,"o":"m 426 986 l 606 986 l 1032 0 l 821 0 l 725 225 l 304 225 l 210 0 l 1 0 l 426 986 m 379 401 l 650 401 l 515 721 l 379 401 m 443 1067 l 272 1257 l 485 1257 l 585 1067 l 443 1067 z "},"Á":{"ha":1032,"x_min":1,"x_max":1032,"o":"m 426 986 l 606 986 l 1032 0 l 821 0 l 725 225 l 304 225 l 210 0 l 1 0 l 426 986 m 379 401 l 650 401 l 515 721 l 379 401 m 549 1257 l 761 1257 l 590 1067 l 449 1067 l 549 1257 z "},"Â":{"ha":1032,"x_min":1,"x_max":1032,"o":"m 426 986 l 606 986 l 1032 0 l 821 0 l 725 225 l 304 225 l 210 0 l 1 0 l 426 986 m 379 401 l 650 401 l 515 721 l 379 401 m 428 1257 l 606 1257 l 768 1067 l 594 1067 l 517 1144 l 439 1067 l 265 1067 l 428 1257 z "},"Ã":{"ha":1032,"x_min":1,"x_max":1032,"o":"m 426 986 l 606 986 l 1032 0 l 821 0 l 725 225 l 304 225 l 210 0 l 1 0 l 426 986 m 379 401 l 650 401 l 515 721 l 379 401 m 260 1117 q 319 1232 271 1192 q 424 1272 367 1272 q 481 1263 454 1272 q 531 1240 508 1253 q 572 1218 553 1228 q 607 1208 590 1208 q 647 1225 635 1208 q 668 1274 660 1242 l 778 1274 l 772 1238 q 713 1122 761 1163 q 608 1082 665 1082 q 550 1092 576 1082 q 501 1114 524 1101 q 460 1136 479 1126 q 425 1146 442 1146 q 385 1129 397 1146 q 364 1081 372 1113 l 254 1081 l 260 1117 z "},"Ä":{"ha":1032,"x_min":1,"x_max":1032,"o":"m 426 986 l 606 986 l 1032 0 l 821 0 l 725 225 l 304 225 l 210 0 l 1 0 l 426 986 m 379 401 l 650 401 l 515 721 l 379 401 m 329 1056 q 283 1065 304 1056 q 244 1091 261 1075 q 218 1129 228 1107 q 208 1176 208 1151 q 218 1224 208 1201 q 244 1262 228 1246 q 283 1288 261 1278 q 329 1297 304 1297 q 416 1262 381 1297 q 451 1176 451 1226 q 416 1091 451 1126 q 329 1056 381 1056 m 703 1056 q 656 1065 678 1056 q 618 1091 635 1075 q 592 1129 601 1107 q 582 1176 582 1151 q 592 1224 582 1201 q 618 1262 601 1246 q 656 1288 635 1278 q 703 1297 678 1297 q 790 1262 754 1297 q 825 1176 825 1226 q 790 1091 825 1126 q 703 1056 754 1056 z "},"Å":{"ha":1032,"x_min":1,"x_max":1032,"o":"m 426 986 l 606 986 l 1032 0 l 821 0 l 725 225 l 304 225 l 210 0 l 1 0 l 426 986 m 379 401 l 650 401 l 515 721 l 379 401 m 515 1056 q 469 1065 490 1056 q 431 1091 447 1075 q 404 1129 414 1107 q 394 1176 394 1151 q 404 1224 394 1201 q 431 1262 414 1246 q 469 1288 447 1278 q 515 1297 490 1297 q 602 1262 567 1297 q 638 1176 638 1226 q 602 1091 638 1126 q 515 1056 567 1056 z "},"Æ":{"ha":1307,"x_min":-37,"x_max":1242,"o":"m 628 225 l 307 225 l 182 0 l -37 0 l 519 986 l 1242 986 l 1242 794 l 829 794 l 829 592 l 1158 592 l 1158 400 l 829 400 l 829 192 l 1242 192 l 1242 0 l 628 0 l 628 225 m 406 401 l 628 401 l 628 794 l 625 794 l 406 401 z "},"Ç":{"ha":1046,"x_min":51,"x_max":1017,"o":"m 561 -17 q 363 24 456 -17 q 201 133 269 64 q 92 294 132 201 q 51 493 51 388 q 92 692 51 599 q 201 853 132 785 q 363 963 269 922 q 561 1003 456 1003 q 705 984 636 1003 q 833 931 774 965 q 938 848 892 896 q 1017 740 985 800 l 842 643 q 727 764 797 719 q 561 808 657 808 q 440 783 496 808 q 343 715 385 758 q 278 615 301 672 q 254 493 254 557 q 278 371 254 428 q 343 271 301 314 q 440 203 385 228 q 561 178 496 178 q 727 222 657 178 q 842 343 797 267 l 1017 246 q 938 138 985 186 q 833 55 892 89 q 705 2 774 21 q 561 -17 636 -17 m 419 -176 q 514 -199 463 -199 q 536 -197 524 -199 q 559 -192 549 -196 q 577 -180 569 -187 q 585 -160 585 -172 q 570 -133 585 -140 q 538 -125 556 -125 q 504 -130 519 -125 q 478 -142 489 -135 l 429 -114 l 500 4 l 586 4 l 546 -62 q 572 -51 556 -56 q 608 -47 589 -47 q 688 -76 656 -47 q 721 -151 721 -106 q 706 -206 721 -182 q 665 -248 690 -231 q 605 -274 639 -265 q 535 -283 571 -283 q 467 -279 503 -283 q 400 -261 432 -275 l 419 -176 z "},"È":{"ha":789,"x_min":110,"x_max":724,"o":"m 110 986 l 724 986 l 724 794 l 311 794 l 311 592 l 640 592 l 640 400 l 311 400 l 311 192 l 724 192 l 724 0 l 110 0 l 110 986 m 342 1067 l 171 1257 l 383 1257 l 483 1067 l 342 1067 z "},"É":{"ha":789,"x_min":110,"x_max":724,"o":"m 110 986 l 724 986 l 724 794 l 311 794 l 311 592 l 640 592 l 640 400 l 311 400 l 311 192 l 724 192 l 724 0 l 110 0 l 110 986 m 447 1257 l 660 1257 l 489 1067 l 347 1067 l 447 1257 z "},"Ê":{"ha":789,"x_min":110,"x_max":724,"o":"m 110 986 l 724 986 l 724 794 l 311 794 l 311 592 l 640 592 l 640 400 l 311 400 l 311 192 l 724 192 l 724 0 l 110 0 l 110 986 m 326 1257 l 504 1257 l 667 1067 l 493 1067 l 415 1144 l 338 1067 l 164 1067 l 326 1257 z "},"Ë":{"ha":789,"x_min":107,"x_max":724,"o":"m 110 986 l 724 986 l 724 794 l 311 794 l 311 592 l 640 592 l 640 400 l 311 400 l 311 192 l 724 192 l 724 0 l 110 0 l 110 986 m 228 1056 q 181 1065 203 1056 q 143 1091 160 1075 q 117 1129 126 1107 q 107 1176 107 1151 q 117 1224 107 1201 q 143 1262 126 1246 q 181 1288 160 1278 q 228 1297 203 1297 q 315 1262 279 1297 q 350 1176 350 1226 q 315 1091 350 1126 q 228 1056 279 1056 m 601 1056 q 555 1065 576 1056 q 517 1091 533 1075 q 490 1129 500 1107 q 481 1176 481 1151 q 490 1224 481 1201 q 517 1262 500 1246 q 555 1288 533 1278 q 601 1297 576 1297 q 688 1262 653 1297 q 724 1176 724 1226 q 688 1091 724 1126 q 601 1056 653 1056 z "},"Ì":{"ha":421,"x_min":-33,"x_max":311,"o":"m 110 986 l 311 986 l 311 0 l 110 0 l 110 986 m 138 1067 l -33 1257 l 179 1257 l 279 1067 l 138 1067 z "},"Í":{"ha":421,"x_min":110,"x_max":456,"o":"m 110 986 l 311 986 l 311 0 l 110 0 l 110 986 m 243 1257 l 456 1257 l 285 1067 l 143 1067 l 243 1257 z "},"Î":{"ha":421,"x_min":-40,"x_max":463,"o":"m 110 986 l 311 986 l 311 0 l 110 0 l 110 986 m 122 1257 l 300 1257 l 463 1067 l 289 1067 l 211 1144 l 133 1067 l -40 1067 l 122 1257 z "},"Ï":{"ha":421,"x_min":-97,"x_max":519,"o":"m 110 986 l 311 986 l 311 0 l 110 0 l 110 986 m 24 1056 q -23 1065 -1 1056 q -61 1091 -44 1075 q -87 1129 -78 1107 q -97 1176 -97 1151 q -87 1224 -97 1201 q -61 1262 -78 1246 q -23 1288 -44 1278 q 24 1297 -1 1297 q 110 1262 75 1297 q 146 1176 146 1226 q 110 1091 146 1126 q 24 1056 75 1056 m 397 1056 q 351 1065 372 1056 q 313 1091 329 1075 q 286 1129 296 1107 q 276 1176 276 1151 q 286 1224 276 1201 q 313 1262 296 1246 q 351 1288 329 1278 q 397 1297 372 1297 q 484 1262 449 1297 q 519 1176 519 1226 q 484 1091 519 1126 q 397 1056 449 1056 z "},"Ð":{"ha":1015,"x_min":31,"x_max":963,"o":"m 131 986 l 456 986 q 654 948 561 986 q 815 843 747 910 q 923 686 883 776 q 963 493 963 596 q 923 300 963 390 q 815 143 883 210 q 654 38 747 76 q 456 0 561 0 l 131 0 l 131 986 m 456 185 q 580 209 524 185 q 676 275 636 233 q 738 373 715 317 q 760 493 760 429 q 738 613 760 557 q 676 711 715 669 q 580 777 636 753 q 456 801 524 801 l 332 801 l 332 185 l 456 185 m 31 585 l 510 585 l 510 410 l 31 410 l 31 585 z "},"Ñ":{"ha":1100,"x_min":110,"x_max":990,"o":"m 817 0 l 311 643 l 311 0 l 110 0 l 110 986 l 283 986 l 789 343 l 789 986 l 990 986 l 990 0 l 817 0 m 292 1117 q 351 1232 303 1192 q 456 1272 399 1272 q 513 1263 486 1272 q 563 1240 540 1253 q 603 1218 585 1228 q 639 1208 622 1208 q 679 1225 667 1208 q 700 1274 692 1242 l 810 1274 l 804 1238 q 745 1122 793 1163 q 640 1082 697 1082 q 582 1092 608 1082 q 533 1114 556 1101 q 492 1136 511 1126 q 457 1146 474 1146 q 417 1129 429 1146 q 396 1081 404 1113 l 286 1081 l 292 1117 z "},"Ò":{"ha":1122,"x_min":51,"x_max":1071,"o":"m 561 178 q 681 203 625 178 q 779 271 738 228 q 844 371 821 314 q 868 493 868 428 q 844 615 868 557 q 779 715 821 672 q 681 783 738 758 q 561 808 625 808 q 440 783 496 808 q 343 715 385 758 q 278 615 301 672 q 254 493 254 557 q 278 371 254 428 q 343 271 301 314 q 440 203 385 228 q 561 178 496 178 m 561 -17 q 363 24 456 -17 q 201 133 269 64 q 92 294 132 201 q 51 493 51 388 q 92 692 51 599 q 201 853 132 785 q 363 963 269 922 q 561 1003 456 1003 q 760 963 667 1003 q 922 853 853 922 q 1031 692 990 785 q 1071 493 1071 599 q 1031 294 1071 388 q 922 133 990 201 q 760 24 853 64 q 561 -17 667 -17 m 488 1067 l 317 1257 l 529 1257 l 629 1067 l 488 1067 z "},"Ó":{"ha":1122,"x_min":51,"x_max":1071,"o":"m 561 178 q 681 203 625 178 q 779 271 738 228 q 844 371 821 314 q 868 493 868 428 q 844 615 868 557 q 779 715 821 672 q 681 783 738 758 q 561 808 625 808 q 440 783 496 808 q 343 715 385 758 q 278 615 301 672 q 254 493 254 557 q 278 371 254 428 q 343 271 301 314 q 440 203 385 228 q 561 178 496 178 m 561 -17 q 363 24 456 -17 q 201 133 269 64 q 92 294 132 201 q 51 493 51 388 q 92 692 51 599 q 201 853 132 785 q 363 963 269 922 q 561 1003 456 1003 q 760 963 667 1003 q 922 853 853 922 q 1031 692 990 785 q 1071 493 1071 599 q 1031 294 1071 388 q 922 133 990 201 q 760 24 853 64 q 561 -17 667 -17 m 593 1257 l 806 1257 l 635 1067 l 493 1067 l 593 1257 z "},"Ô":{"ha":1122,"x_min":51,"x_max":1071,"o":"m 561 178 q 681 203 625 178 q 779 271 738 228 q 844 371 821 314 q 868 493 868 428 q 844 615 868 557 q 779 715 821 672 q 681 783 738 758 q 561 808 625 808 q 440 783 496 808 q 343 715 385 758 q 278 615 301 672 q 254 493 254 557 q 278 371 254 428 q 343 271 301 314 q 440 203 385 228 q 561 178 496 178 m 561 -17 q 363 24 456 -17 q 201 133 269 64 q 92 294 132 201 q 51 493 51 388 q 92 692 51 599 q 201 853 132 785 q 363 963 269 922 q 561 1003 456 1003 q 760 963 667 1003 q 922 853 853 922 q 1031 692 990 785 q 1071 493 1071 599 q 1031 294 1071 388 q 922 133 990 201 q 760 24 853 64 q 561 -17 667 -17 m 472 1257 l 650 1257 l 813 1067 l 639 1067 l 561 1144 l 483 1067 l 310 1067 l 472 1257 z "},"Õ":{"ha":1122,"x_min":51,"x_max":1071,"o":"m 561 178 q 681 203 625 178 q 779 271 738 228 q 844 371 821 314 q 868 493 868 428 q 844 615 868 557 q 779 715 821 672 q 681 783 738 758 q 561 808 625 808 q 440 783 496 808 q 343 715 385 758 q 278 615 301 672 q 254 493 254 557 q 278 371 254 428 q 343 271 301 314 q 440 203 385 228 q 561 178 496 178 m 561 -17 q 363 24 456 -17 q 201 133 269 64 q 92 294 132 201 q 51 493 51 388 q 92 692 51 599 q 201 853 132 785 q 363 963 269 922 q 561 1003 456 1003 q 760 963 667 1003 q 922 853 853 922 q 1031 692 990 785 q 1071 493 1071 599 q 1031 294 1071 388 q 922 133 990 201 q 760 24 853 64 q 561 -17 667 -17 m 304 1117 q 363 1232 315 1192 q 468 1272 411 1272 q 526 1263 499 1272 q 575 1240 553 1253 q 616 1218 597 1228 q 651 1208 635 1208 q 692 1225 679 1208 q 713 1274 704 1242 l 822 1274 l 817 1238 q 758 1122 806 1163 q 653 1082 710 1082 q 594 1092 621 1082 q 546 1114 568 1101 q 505 1136 524 1126 q 469 1146 486 1146 q 429 1129 442 1146 q 408 1081 417 1113 l 299 1081 l 304 1117 z "},"Ö":{"ha":1122,"x_min":51,"x_max":1071,"o":"m 561 178 q 681 203 625 178 q 779 271 738 228 q 844 371 821 314 q 868 493 868 428 q 844 615 868 557 q 779 715 821 672 q 681 783 738 758 q 561 808 625 808 q 440 783 496 808 q 343 715 385 758 q 278 615 301 672 q 254 493 254 557 q 278 371 254 428 q 343 271 301 314 q 440 203 385 228 q 561 178 496 178 m 561 -17 q 363 24 456 -17 q 201 133 269 64 q 92 294 132 201 q 51 493 51 388 q 92 692 51 599 q 201 853 132 785 q 363 963 269 922 q 561 1003 456 1003 q 760 963 667 1003 q 922 853 853 922 q 1031 692 990 785 q 1071 493 1071 599 q 1031 294 1071 388 q 922 133 990 201 q 760 24 853 64 q 561 -17 667 -17 m 374 1056 q 327 1065 349 1056 q 289 1091 306 1075 q 263 1129 272 1107 q 253 1176 253 1151 q 263 1224 253 1201 q 289 1262 272 1246 q 327 1288 306 1278 q 374 1297 349 1297 q 460 1262 425 1297 q 496 1176 496 1226 q 460 1091 496 1126 q 374 1056 425 1056 m 747 1056 q 701 1065 722 1056 q 663 1091 679 1075 q 636 1129 646 1107 q 626 1176 626 1151 q 636 1224 626 1201 q 663 1262 646 1246 q 701 1288 679 1278 q 747 1297 722 1297 q 834 1262 799 1297 q 869 1176 869 1226 q 834 1091 869 1126 q 747 1056 799 1056 z "},"×":{"ha":703,"x_min":58,"x_max":644,"o":"m 58 225 l 235 401 l 58 578 l 175 694 l 351 519 l 529 694 l 644 578 l 469 401 l 644 225 l 529 108 l 351 283 l 175 108 l 58 225 z "},"Ø":{"ha":1131,"x_min":56,"x_max":1075,"o":"m 565 178 q 685 203 629 178 q 783 271 742 228 q 849 371 825 314 q 872 493 872 428 q 849 615 872 557 q 783 715 825 672 q 685 783 742 758 q 565 808 629 808 q 444 783 500 808 q 347 715 389 758 q 282 615 306 672 q 258 493 258 557 q 282 371 258 428 q 347 271 306 314 q 444 203 389 228 q 565 178 500 178 m 565 -17 q 367 24 460 -17 q 205 133 274 64 q 96 294 136 201 q 56 493 56 388 q 96 692 56 599 q 205 853 136 785 q 367 963 274 922 q 565 1003 460 1003 q 764 963 671 1003 q 926 853 857 922 q 1035 692 994 785 q 1075 493 1075 599 q 1035 294 1075 388 q 926 133 994 201 q 764 24 857 64 q 565 -17 671 -17 m 171 -25 l 58 88 l 960 1011 l 1074 899 l 171 -25 z "},"Ù":{"ha":1000,"x_min":99,"x_max":901,"o":"m 500 -17 q 338 12 411 -17 q 210 94 264 40 q 128 222 157 147 q 99 389 99 297 l 99 986 l 300 986 l 300 386 q 355 233 300 288 q 500 178 410 178 q 645 233 590 178 q 700 386 700 288 l 700 986 l 901 986 l 901 389 q 872 222 901 297 q 788 94 842 147 q 661 12 735 40 q 500 -17 588 -17 m 426 1067 l 256 1257 l 468 1257 l 568 1067 l 426 1067 z "},"Ú":{"ha":1000,"x_min":99,"x_max":901,"o":"m 500 -17 q 338 12 411 -17 q 210 94 264 40 q 128 222 157 147 q 99 389 99 297 l 99 986 l 300 986 l 300 386 q 355 233 300 288 q 500 178 410 178 q 645 233 590 178 q 700 386 700 288 l 700 986 l 901 986 l 901 389 q 872 222 901 297 q 788 94 842 147 q 661 12 735 40 q 500 -17 588 -17 m 532 1257 l 744 1257 l 574 1067 l 432 1067 l 532 1257 z "},"Û":{"ha":1000,"x_min":99,"x_max":901,"o":"m 500 -17 q 338 12 411 -17 q 210 94 264 40 q 128 222 157 147 q 99 389 99 297 l 99 986 l 300 986 l 300 386 q 355 233 300 288 q 500 178 410 178 q 645 233 590 178 q 700 386 700 288 l 700 986 l 901 986 l 901 389 q 872 222 901 297 q 788 94 842 147 q 661 12 735 40 q 500 -17 588 -17 m 411 1257 l 589 1257 l 751 1067 l 578 1067 l 500 1144 l 422 1067 l 249 1067 l 411 1257 z "},"Ü":{"ha":1000,"x_min":99,"x_max":901,"o":"m 500 -17 q 338 12 411 -17 q 210 94 264 40 q 128 222 157 147 q 99 389 99 297 l 99 986 l 300 986 l 300 386 q 355 233 300 288 q 500 178 410 178 q 645 233 590 178 q 700 386 700 288 l 700 986 l 901 986 l 901 389 q 872 222 901 297 q 788 94 842 147 q 661 12 735 40 q 500 -17 588 -17 m 313 1056 q 266 1065 288 1056 q 228 1091 244 1075 q 201 1129 211 1107 q 192 1176 192 1151 q 201 1224 192 1201 q 228 1262 211 1246 q 266 1288 244 1278 q 313 1297 288 1297 q 399 1262 364 1297 q 435 1176 435 1226 q 399 1091 435 1126 q 313 1056 364 1056 m 686 1056 q 640 1065 661 1056 q 601 1091 618 1075 q 575 1129 585 1107 q 565 1176 565 1151 q 575 1224 565 1201 q 601 1262 585 1246 q 640 1288 618 1278 q 686 1297 661 1297 q 773 1262 738 1297 q 808 1176 808 1226 q 773 1091 808 1126 q 686 1056 738 1056 z "},"Ý":{"ha":958,"x_min":14,"x_max":944,"o":"m 378 415 l 14 986 l 247 986 l 478 613 l 710 986 l 944 986 l 579 414 l 579 0 l 378 0 l 378 415 m 511 1257 l 724 1257 l 553 1067 l 411 1067 l 511 1257 z "},"Þ":{"ha":829,"x_min":110,"x_max":783,"o":"m 783 493 q 758 362 783 422 q 685 257 732 301 q 576 187 639 213 q 438 161 513 161 l 311 161 l 311 0 l 110 0 l 110 986 l 311 986 l 311 825 l 438 825 q 576 799 513 825 q 685 729 639 774 q 758 624 732 685 q 783 493 783 564 m 588 493 q 546 595 588 554 q 435 636 504 636 l 311 636 l 311 350 l 435 350 q 546 391 504 350 q 588 493 588 432 z "},"ß":{"ha":814,"x_min":92,"x_max":767,"o":"m 92 708 q 117 839 92 781 q 188 938 143 897 q 290 1001 232 979 q 413 1022 347 1022 q 533 1001 476 1022 q 633 944 590 981 q 700 856 675 907 q 725 742 725 804 q 698 628 725 682 q 622 533 671 575 q 730 430 693 493 q 767 304 767 367 q 741 181 767 236 q 670 85 715 125 q 565 22 625 44 q 436 0 504 0 l 383 0 l 383 172 l 426 172 q 534 210 492 172 q 576 306 576 247 q 534 401 576 364 q 426 439 492 439 l 385 439 l 385 611 l 407 611 q 500 644 465 611 q 535 731 535 678 q 501 817 535 783 q 411 850 467 850 q 318 811 356 850 q 281 710 281 772 l 281 0 l 92 0 l 92 708 z "},"à":{"ha":850,"x_min":47,"x_max":758,"o":"m 390 -15 q 249 14 313 -15 q 142 93 186 43 q 72 208 97 143 q 47 347 47 274 q 72 485 47 419 q 142 601 97 551 q 249 681 186 651 q 390 710 313 710 q 492 692 447 710 q 568 644 538 674 l 568 694 l 758 694 l 758 0 l 568 0 l 568 51 q 492 3 538 21 q 390 -15 447 -15 m 418 158 q 509 180 474 158 q 568 235 544 201 l 568 461 q 509 515 544 493 q 418 536 474 536 q 347 521 379 536 q 292 480 315 506 q 257 420 269 454 q 244 347 244 386 q 257 274 244 308 q 292 215 269 240 q 347 174 315 189 q 418 158 379 158 m 399 778 l 206 1014 l 426 1014 l 540 778 l 399 778 z "},"á":{"ha":850,"x_min":47,"x_max":758,"o":"m 390 -15 q 249 14 313 -15 q 142 93 186 43 q 72 208 97 143 q 47 347 47 274 q 72 485 47 419 q 142 601 97 551 q 249 681 186 651 q 390 710 313 710 q 492 692 447 710 q 568 644 538 674 l 568 694 l 758 694 l 758 0 l 568 0 l 568 51 q 492 3 538 21 q 390 -15 447 -15 m 418 158 q 509 180 474 158 q 568 235 544 201 l 568 461 q 509 515 544 493 q 418 536 474 536 q 347 521 379 536 q 292 480 315 506 q 257 420 269 454 q 244 347 244 386 q 257 274 244 308 q 292 215 269 240 q 347 174 315 189 q 418 158 379 158 m 503 1014 l 724 1014 l 531 778 l 389 778 l 503 1014 z "},"â":{"ha":850,"x_min":47,"x_max":758,"o":"m 390 -15 q 249 14 313 -15 q 142 93 186 43 q 72 208 97 143 q 47 347 47 274 q 72 485 47 419 q 142 601 97 551 q 249 681 186 651 q 390 710 313 710 q 492 692 447 710 q 568 644 538 674 l 568 694 l 758 694 l 758 0 l 568 0 l 568 51 q 492 3 538 21 q 390 -15 447 -15 m 418 158 q 509 180 474 158 q 568 235 544 201 l 568 461 q 509 515 544 493 q 418 536 474 536 q 347 521 379 536 q 292 480 315 506 q 257 420 269 454 q 244 347 244 386 q 257 274 244 308 q 292 215 269 240 q 347 174 315 189 q 418 158 379 158 m 382 1014 l 546 1014 l 722 803 l 554 803 l 464 896 l 374 803 l 206 803 l 382 1014 z "},"ã":{"ha":850,"x_min":47,"x_max":758,"o":"m 390 -15 q 249 14 313 -15 q 142 93 186 43 q 72 208 97 143 q 47 347 47 274 q 72 485 47 419 q 142 601 97 551 q 249 681 186 651 q 390 710 313 710 q 492 692 447 710 q 568 644 538 674 l 568 694 l 758 694 l 758 0 l 568 0 l 568 51 q 492 3 538 21 q 390 -15 447 -15 m 418 158 q 509 180 474 158 q 568 235 544 201 l 568 461 q 509 515 544 493 q 418 536 474 536 q 347 521 379 536 q 292 480 315 506 q 257 420 269 454 q 244 347 244 386 q 257 274 244 308 q 292 215 269 240 q 347 174 315 189 q 418 158 379 158 m 207 829 q 266 944 218 904 q 371 985 314 985 q 428 975 401 985 q 478 953 456 965 q 519 931 500 940 q 554 921 538 921 q 594 938 582 921 q 615 986 607 954 l 725 986 l 719 950 q 660 835 708 875 q 556 794 613 794 q 497 804 524 794 q 449 826 471 814 q 408 849 426 839 q 372 858 389 858 q 332 842 344 858 q 311 793 319 825 l 201 793 l 207 829 z "},"ä":{"ha":850,"x_min":47,"x_max":758,"o":"m 390 -15 q 249 14 313 -15 q 142 93 186 43 q 72 208 97 143 q 47 347 47 274 q 72 485 47 419 q 142 601 97 551 q 249 681 186 651 q 390 710 313 710 q 492 692 447 710 q 568 644 538 674 l 568 694 l 758 694 l 758 0 l 568 0 l 568 51 q 492 3 538 21 q 390 -15 447 -15 m 418 158 q 509 180 474 158 q 568 235 544 201 l 568 461 q 509 515 544 493 q 418 536 474 536 q 347 521 379 536 q 292 480 315 506 q 257 420 269 454 q 244 347 244 386 q 257 274 244 308 q 292 215 269 240 q 347 174 315 189 q 418 158 379 158 m 282 781 q 235 790 257 781 q 197 816 214 800 q 171 854 181 832 q 161 901 161 876 q 171 949 161 926 q 197 987 181 971 q 235 1013 214 1003 q 282 1022 257 1022 q 369 987 333 1022 q 404 901 404 951 q 369 816 404 851 q 282 781 333 781 m 608 781 q 562 790 583 781 q 524 816 540 800 q 497 854 507 832 q 488 901 488 876 q 497 949 488 926 q 524 987 507 971 q 562 1013 540 1003 q 608 1022 583 1022 q 695 987 660 1022 q 731 901 731 951 q 695 816 731 851 q 608 781 660 781 z "},"å":{"ha":850,"x_min":47,"x_max":758,"o":"m 390 -15 q 249 14 313 -15 q 142 93 186 43 q 72 208 97 143 q 47 347 47 274 q 72 485 47 419 q 142 601 97 551 q 249 681 186 651 q 390 710 313 710 q 492 692 447 710 q 568 644 538 674 l 568 694 l 758 694 l 758 0 l 568 0 l 568 51 q 492 3 538 21 q 390 -15 447 -15 m 418 158 q 509 180 474 158 q 568 235 544 201 l 568 461 q 509 515 544 493 q 418 536 474 536 q 347 521 379 536 q 292 480 315 506 q 257 420 269 454 q 244 347 244 386 q 257 274 244 308 q 292 215 269 240 q 347 174 315 189 q 418 158 379 158 m 428 781 q 381 790 403 781 q 343 816 360 800 q 317 854 326 832 q 307 901 307 876 q 317 949 307 926 q 343 987 326 971 q 381 1013 360 1003 q 428 1022 403 1022 q 515 987 479 1022 q 550 901 550 951 q 515 816 550 851 q 428 781 479 781 z "},"æ":{"ha":1239,"x_min":42,"x_max":1192,"o":"m 319 -11 q 209 3 260 -11 q 121 45 158 17 q 63 117 83 74 q 42 217 42 160 q 63 308 42 268 q 120 374 83 347 q 206 416 157 401 q 313 431 256 431 q 401 420 358 431 q 482 390 444 410 l 482 413 q 463 469 478 446 q 426 506 449 492 q 374 528 403 521 q 315 535 346 535 q 224 519 269 535 q 147 482 179 503 l 101 657 q 207 695 150 681 q 326 710 264 710 q 481 680 415 710 q 592 599 547 650 q 708 681 640 651 q 860 710 776 710 q 983 688 924 710 q 1089 624 1043 667 q 1163 517 1135 581 q 1192 368 1192 453 q 1191 340 1192 356 q 1188 303 1190 325 l 669 303 q 690 241 674 268 q 731 196 706 214 q 788 168 756 178 q 854 158 819 158 q 965 184 919 158 q 1032 246 1010 210 l 1175 140 q 1044 27 1126 69 q 868 -15 963 -15 q 717 13 786 -15 q 599 93 649 42 q 319 -11 488 -11 m 333 149 q 421 163 381 149 q 482 207 461 178 l 482 258 q 417 287 453 276 q 336 297 381 297 q 259 281 292 297 q 226 222 226 264 q 236 188 226 201 q 261 165 246 174 q 295 152 276 156 q 333 149 314 149 m 843 553 q 790 546 817 553 q 740 524 763 539 q 699 487 717 510 q 675 432 682 464 l 1001 432 q 942 524 988 494 q 843 553 896 553 z "},"ç":{"ha":775,"x_min":47,"x_max":744,"o":"m 415 -15 q 271 12 338 -15 q 154 88 204 39 q 76 202 104 136 q 47 347 47 268 q 76 492 47 426 q 154 607 104 558 q 271 683 204 656 q 415 710 338 710 q 519 695 469 710 q 612 654 569 681 q 688 591 654 628 q 744 510 722 554 l 579 421 q 516 501 558 469 q 415 532 474 532 q 346 518 378 532 q 290 480 314 504 q 252 422 265 456 q 239 347 239 388 q 252 273 239 307 q 290 215 265 239 q 346 176 314 190 q 415 163 378 163 q 516 194 474 163 q 579 274 558 225 l 744 185 q 688 103 722 140 q 612 40 654 67 q 519 -1 569 14 q 415 -15 469 -15 m 274 -176 q 368 -199 317 -199 q 390 -197 378 -199 q 413 -192 403 -196 q 431 -180 424 -187 q 439 -160 439 -172 q 424 -133 439 -140 q 392 -125 410 -125 q 358 -130 374 -125 q 332 -142 343 -135 l 283 -114 l 354 4 l 440 4 l 400 -62 q 426 -51 410 -56 q 463 -47 443 -47 q 542 -76 510 -47 q 575 -151 575 -106 q 560 -206 575 -182 q 519 -248 544 -231 q 459 -274 493 -265 q 389 -283 425 -283 q 322 -279 357 -283 q 254 -261 286 -275 l 274 -176 z "},"è":{"ha":803,"x_min":47,"x_max":754,"o":"m 415 -15 q 270 10 338 -15 q 153 83 203 36 q 76 198 104 131 q 47 347 47 265 q 74 490 47 424 q 151 606 101 557 q 267 682 200 654 q 413 710 333 710 q 542 688 481 710 q 651 624 604 667 q 726 517 699 581 q 754 368 754 453 q 754 340 754 356 q 751 303 754 325 l 232 303 q 253 241 236 268 q 294 196 269 214 q 351 168 319 178 q 417 158 382 158 q 527 184 482 158 q 596 246 572 210 l 738 140 q 607 27 689 69 q 415 -15 525 -15 m 564 432 q 506 524 551 494 q 407 553 460 553 q 353 546 381 553 q 303 524 326 539 q 263 487 281 510 q 239 432 246 464 l 564 432 m 351 778 l 158 1014 l 379 1014 l 493 778 l 351 778 z "},"é":{"ha":803,"x_min":47,"x_max":754,"o":"m 415 -15 q 270 10 338 -15 q 153 83 203 36 q 76 198 104 131 q 47 347 47 265 q 74 490 47 424 q 151 606 101 557 q 267 682 200 654 q 413 710 333 710 q 542 688 481 710 q 651 624 604 667 q 726 517 699 581 q 754 368 754 453 q 754 340 754 356 q 751 303 754 325 l 232 303 q 253 241 236 268 q 294 196 269 214 q 351 168 319 178 q 417 158 382 158 q 527 184 482 158 q 596 246 572 210 l 738 140 q 607 27 689 69 q 415 -15 525 -15 m 564 432 q 506 524 551 494 q 407 553 460 553 q 353 546 381 553 q 303 524 326 539 q 263 487 281 510 q 239 432 246 464 l 564 432 m 456 1014 l 676 1014 l 483 778 l 342 778 l 456 1014 z "},"ê":{"ha":803,"x_min":47,"x_max":754,"o":"m 415 -15 q 270 10 338 -15 q 153 83 203 36 q 76 198 104 131 q 47 347 47 265 q 74 490 47 424 q 151 606 101 557 q 267 682 200 654 q 413 710 333 710 q 542 688 481 710 q 651 624 604 667 q 726 517 699 581 q 754 368 754 453 q 754 340 754 356 q 751 303 754 325 l 232 303 q 253 241 236 268 q 294 196 269 214 q 351 168 319 178 q 417 158 382 158 q 527 184 482 158 q 596 246 572 210 l 738 140 q 607 27 689 69 q 415 -15 525 -15 m 564 432 q 506 524 551 494 q 407 553 460 553 q 353 546 381 553 q 303 524 326 539 q 263 487 281 510 q 239 432 246 464 l 564 432 m 336 1014 l 500 1014 l 676 803 l 508 803 l 418 896 l 328 803 l 160 803 l 336 1014 z "},"ë":{"ha":803,"x_min":47,"x_max":754,"o":"m 415 -15 q 270 10 338 -15 q 153 83 203 36 q 76 198 104 131 q 47 347 47 265 q 74 490 47 424 q 151 606 101 557 q 267 682 200 654 q 413 710 333 710 q 542 688 481 710 q 651 624 604 667 q 726 517 699 581 q 754 368 754 453 q 754 340 754 356 q 751 303 754 325 l 232 303 q 253 241 236 268 q 294 196 269 214 q 351 168 319 178 q 417 158 382 158 q 527 184 482 158 q 596 246 572 210 l 738 140 q 607 27 689 69 q 415 -15 525 -15 m 564 432 q 506 524 551 494 q 407 553 460 553 q 353 546 381 553 q 303 524 326 539 q 263 487 281 510 q 239 432 246 464 l 564 432 m 254 781 q 208 790 229 781 q 169 816 186 800 q 143 854 153 832 q 133 901 133 876 q 143 949 133 926 q 169 987 153 971 q 208 1013 186 1003 q 254 1022 229 1022 q 341 987 306 1022 q 376 901 376 951 q 341 816 376 851 q 254 781 306 781 m 581 781 q 534 790 556 781 q 496 816 513 800 q 469 854 479 832 q 460 901 460 876 q 469 949 460 926 q 496 987 479 971 q 534 1013 513 1003 q 581 1022 556 1022 q 667 987 632 1022 q 703 901 703 951 q 667 816 703 851 q 581 781 632 781 z "},"ì":{"ha":374,"x_min":-72,"x_max":282,"o":"m 92 694 l 282 694 l 282 0 l 92 0 l 92 694 m 121 778 l -72 1014 l 149 1014 l 263 778 l 121 778 z "},"í":{"ha":374,"x_min":92,"x_max":447,"o":"m 92 694 l 282 694 l 282 0 l 92 0 l 92 694 m 226 1014 l 447 1014 l 254 778 l 113 778 l 226 1014 z "},"î":{"ha":374,"x_min":-71,"x_max":446,"o":"m 92 694 l 282 694 l 282 0 l 92 0 l 92 694 m 106 1014 l 269 1014 l 446 803 l 278 803 l 188 896 l 97 803 l -71 803 l 106 1014 z "},"ï":{"ha":374,"x_min":-83,"x_max":457,"o":"m 92 694 l 282 694 l 282 0 l 92 0 l 92 694 m 335 781 q 288 790 310 781 q 250 816 267 800 q 224 854 233 832 q 214 901 214 876 q 224 949 214 926 q 250 987 233 971 q 288 1013 267 1003 q 335 1022 310 1022 q 422 987 386 1022 q 457 901 457 951 q 422 816 457 851 q 335 781 386 781 m 38 781 q -9 790 13 781 q -47 816 -31 800 q -74 854 -64 832 q -83 901 -83 876 q -74 949 -83 926 q -47 987 -64 971 q -9 1013 -31 1003 q 38 1022 13 1022 q 124 987 89 1022 q 160 901 160 951 q 124 816 160 851 q 38 781 89 781 z "},"ð":{"ha":825,"x_min":47,"x_max":778,"o":"m 563 782 l 710 558 q 759 459 740 513 q 778 347 778 406 q 749 206 778 272 q 672 91 721 140 q 556 13 622 42 q 413 -15 489 -15 q 269 13 336 -15 q 153 91 203 42 q 76 206 104 140 q 47 347 47 272 q 80 499 47 432 q 164 610 113 565 q 277 679 215 656 q 396 703 339 703 l 403 703 l 351 782 l 163 782 l 163 907 l 269 907 l 200 1014 l 411 1014 l 481 907 l 640 907 l 640 782 l 563 782 m 413 163 q 482 176 450 163 q 537 215 514 190 q 573 273 560 239 q 586 347 586 307 q 573 422 586 388 q 537 480 560 456 q 482 518 514 504 q 413 532 450 532 q 343 518 375 532 q 288 480 311 504 q 252 422 265 456 q 239 347 239 388 q 252 273 239 307 q 288 215 265 239 q 343 176 311 190 q 413 163 375 163 z "},"ñ":{"ha":832,"x_min":92,"x_max":749,"o":"m 92 694 l 282 694 l 282 636 q 364 691 315 672 q 471 710 413 710 q 588 688 536 710 q 676 625 640 665 q 730 528 711 585 q 749 403 749 472 l 749 0 l 558 0 l 558 371 q 526 491 558 446 q 429 536 494 536 q 342 514 381 536 q 282 457 304 492 l 282 0 l 92 0 l 92 694 m 163 829 q 222 944 174 904 q 326 985 269 985 q 384 975 357 985 q 433 953 411 965 q 474 931 456 940 q 510 921 493 921 q 550 938 538 921 q 571 986 563 954 l 681 986 l 675 950 q 616 835 664 875 q 511 794 568 794 q 453 804 479 794 q 404 826 426 814 q 363 849 382 839 q 328 858 344 858 q 288 842 300 858 q 267 793 275 825 l 157 793 l 163 829 z "},"ò":{"ha":822,"x_min":46,"x_max":776,"o":"m 411 -15 q 269 13 336 -15 q 153 90 203 40 q 74 205 103 139 q 46 347 46 271 q 74 490 46 424 q 153 604 103 556 q 269 681 203 653 q 411 710 336 710 q 553 681 486 710 q 669 604 619 653 q 748 490 719 556 q 776 347 776 424 q 748 205 776 271 q 669 90 719 139 q 553 13 619 40 q 411 -15 486 -15 m 411 163 q 480 176 449 163 q 534 215 511 190 q 570 273 557 239 q 583 347 583 307 q 570 422 583 388 q 534 480 557 456 q 480 518 511 504 q 411 532 449 532 q 342 518 374 532 q 287 480 310 504 q 251 422 264 456 q 238 347 238 388 q 251 273 238 307 q 287 215 264 239 q 342 176 310 190 q 411 163 374 163 m 344 778 l 151 1014 l 372 1014 l 486 778 l 344 778 z "},"ó":{"ha":822,"x_min":46,"x_max":776,"o":"m 411 -15 q 269 13 336 -15 q 153 90 203 40 q 74 205 103 139 q 46 347 46 271 q 74 490 46 424 q 153 604 103 556 q 269 681 203 653 q 411 710 336 710 q 553 681 486 710 q 669 604 619 653 q 748 490 719 556 q 776 347 776 424 q 748 205 776 271 q 669 90 719 139 q 553 13 619 40 q 411 -15 486 -15 m 411 163 q 480 176 449 163 q 534 215 511 190 q 570 273 557 239 q 583 347 583 307 q 570 422 583 388 q 534 480 557 456 q 480 518 511 504 q 411 532 449 532 q 342 518 374 532 q 287 480 310 504 q 251 422 264 456 q 238 347 238 388 q 251 273 238 307 q 287 215 264 239 q 342 176 310 190 q 411 163 374 163 m 450 1014 l 671 1014 l 478 778 l 336 778 l 450 1014 z "},"ô":{"ha":822,"x_min":46,"x_max":776,"o":"m 411 -15 q 269 13 336 -15 q 153 90 203 40 q 74 205 103 139 q 46 347 46 271 q 74 490 46 424 q 153 604 103 556 q 269 681 203 653 q 411 710 336 710 q 553 681 486 710 q 669 604 619 653 q 748 490 719 556 q 776 347 776 424 q 748 205 776 271 q 669 90 719 139 q 553 13 619 40 q 411 -15 486 -15 m 411 163 q 480 176 449 163 q 534 215 511 190 q 570 273 557 239 q 583 347 583 307 q 570 422 583 388 q 534 480 557 456 q 480 518 511 504 q 411 532 449 532 q 342 518 374 532 q 287 480 310 504 q 251 422 264 456 q 238 347 238 388 q 251 273 238 307 q 287 215 264 239 q 342 176 310 190 q 411 163 374 163 m 329 1014 l 493 1014 l 669 803 l 501 803 l 411 896 l 321 803 l 153 803 l 329 1014 z "},"õ":{"ha":822,"x_min":46,"x_max":776,"o":"m 411 -15 q 269 13 336 -15 q 153 90 203 40 q 74 205 103 139 q 46 347 46 271 q 74 490 46 424 q 153 604 103 556 q 269 681 203 653 q 411 710 336 710 q 553 681 486 710 q 669 604 619 653 q 748 490 719 556 q 776 347 776 424 q 748 205 776 271 q 669 90 719 139 q 553 13 619 40 q 411 -15 486 -15 m 411 163 q 480 176 449 163 q 534 215 511 190 q 570 273 557 239 q 583 347 583 307 q 570 422 583 388 q 534 480 557 456 q 480 518 511 504 q 411 532 449 532 q 342 518 374 532 q 287 480 310 504 q 251 422 264 456 q 238 347 238 388 q 251 273 238 307 q 287 215 264 239 q 342 176 310 190 q 411 163 374 163 m 154 829 q 213 944 165 904 q 318 985 261 985 q 376 975 349 985 q 425 953 403 965 q 466 931 447 940 q 501 921 485 921 q 542 938 529 921 q 563 986 554 954 l 672 986 l 667 950 q 608 835 656 875 q 503 794 560 794 q 444 804 471 794 q 396 826 418 814 q 355 849 374 839 q 319 858 336 858 q 279 842 292 858 q 258 793 267 825 l 149 793 l 154 829 z "},"ö":{"ha":822,"x_min":46,"x_max":776,"o":"m 411 -15 q 269 13 336 -15 q 153 90 203 40 q 74 205 103 139 q 46 347 46 271 q 74 490 46 424 q 153 604 103 556 q 269 681 203 653 q 411 710 336 710 q 553 681 486 710 q 669 604 619 653 q 748 490 719 556 q 776 347 776 424 q 748 205 776 271 q 669 90 719 139 q 553 13 619 40 q 411 -15 486 -15 m 411 163 q 480 176 449 163 q 534 215 511 190 q 570 273 557 239 q 583 347 583 307 q 570 422 583 388 q 534 480 557 456 q 480 518 511 504 q 411 532 449 532 q 342 518 374 532 q 287 480 310 504 q 251 422 264 456 q 238 347 238 388 q 251 273 238 307 q 287 215 264 239 q 342 176 310 190 q 411 163 374 163 m 246 781 q 199 790 221 781 q 161 816 178 800 q 135 854 144 832 q 125 901 125 876 q 135 949 125 926 q 161 987 144 971 q 199 1013 178 1003 q 246 1022 221 1022 q 333 987 297 1022 q 368 901 368 951 q 333 816 368 851 q 246 781 297 781 m 572 781 q 526 790 547 781 q 488 816 504 800 q 461 854 471 832 q 451 901 451 876 q 461 949 451 926 q 488 987 471 971 q 526 1013 504 1003 q 572 1022 547 1022 q 659 987 624 1022 q 694 901 694 951 q 659 816 694 851 q 572 781 624 781 z "},"ø":{"ha":831,"x_min":51,"x_max":782,"o":"m 417 -15 q 275 13 342 -15 q 158 90 208 40 q 80 205 108 139 q 51 347 51 271 q 80 490 51 424 q 158 604 108 556 q 275 681 208 653 q 417 710 342 710 q 558 681 492 710 q 675 604 625 653 q 753 490 725 556 q 782 347 782 424 q 753 205 782 271 q 675 90 725 139 q 558 13 625 40 q 417 -15 492 -15 m 417 163 q 485 176 454 163 q 540 215 517 190 q 576 273 563 239 q 589 347 589 307 q 576 422 589 388 q 540 480 563 456 q 485 518 517 504 q 417 532 454 532 q 347 518 379 532 q 292 480 315 504 q 256 422 269 456 q 243 347 243 388 q 256 273 243 307 q 292 215 269 239 q 347 176 315 190 q 417 163 379 163 m 118 -15 l 54 50 l 713 710 l 776 644 l 118 -15 z "},"ù":{"ha":817,"x_min":83,"x_max":725,"o":"m 725 0 l 535 0 l 535 56 q 455 3 501 21 q 364 -15 408 -15 q 245 7 297 -15 q 157 69 193 29 q 102 166 121 110 q 83 292 83 222 l 83 694 l 274 694 l 274 324 q 305 203 274 249 q 404 158 336 158 q 476 180 440 158 q 535 238 511 201 l 535 694 l 725 694 l 725 0 m 338 778 l 144 1014 l 365 1014 l 479 778 l 338 778 z "},"ú":{"ha":817,"x_min":83,"x_max":725,"o":"m 725 0 l 535 0 l 535 56 q 455 3 501 21 q 364 -15 408 -15 q 245 7 297 -15 q 157 69 193 29 q 102 166 121 110 q 83 292 83 222 l 83 694 l 274 694 l 274 324 q 305 203 274 249 q 404 158 336 158 q 476 180 440 158 q 535 238 511 201 l 535 694 l 725 694 l 725 0 m 443 1014 l 664 1014 l 471 778 l 329 778 l 443 1014 z "},"û":{"ha":817,"x_min":83,"x_max":725,"o":"m 725 0 l 535 0 l 535 56 q 455 3 501 21 q 364 -15 408 -15 q 245 7 297 -15 q 157 69 193 29 q 102 166 121 110 q 83 292 83 222 l 83 694 l 274 694 l 274 324 q 305 203 274 249 q 404 158 336 158 q 476 180 440 158 q 535 238 511 201 l 535 694 l 725 694 l 725 0 m 322 1014 l 486 1014 l 663 803 l 494 803 l 404 896 l 314 803 l 146 803 l 322 1014 z "},"ü":{"ha":817,"x_min":83,"x_max":725,"o":"m 725 0 l 535 0 l 535 56 q 455 3 501 21 q 364 -15 408 -15 q 245 7 297 -15 q 157 69 193 29 q 102 166 121 110 q 83 292 83 222 l 83 694 l 274 694 l 274 324 q 305 203 274 249 q 404 158 336 158 q 476 180 440 158 q 535 238 511 201 l 535 694 l 725 694 l 725 0 m 240 781 q 194 790 215 781 q 156 816 172 800 q 129 854 139 832 q 119 901 119 876 q 129 949 119 926 q 156 987 139 971 q 194 1013 172 1003 q 240 1022 215 1022 q 327 987 292 1022 q 363 901 363 951 q 327 816 363 851 q 240 781 292 781 m 567 781 q 520 790 542 781 q 482 816 499 800 q 456 854 465 832 q 446 901 446 876 q 456 949 446 926 q 482 987 465 971 q 520 1013 499 1003 q 567 1022 542 1022 q 653 987 618 1022 q 689 901 689 951 q 653 816 689 851 q 567 781 618 781 z "},"ý":{"ha":792,"x_min":3,"x_max":792,"o":"m 158 -269 l 294 39 l 3 694 l 211 694 l 397 244 l 582 694 l 792 694 l 365 -269 l 158 -269 m 438 1014 l 658 1014 l 465 778 l 324 778 l 438 1014 z "},"þ":{"ha":851,"x_min":92,"x_max":803,"o":"m 92 1014 l 282 1014 l 282 644 q 358 692 313 674 q 460 710 404 710 q 600 681 536 710 q 708 601 664 651 q 778 485 753 551 q 803 347 803 419 q 778 208 803 274 q 708 93 753 143 q 600 14 664 43 q 460 -15 536 -15 q 358 3 404 -15 q 282 51 313 21 l 282 -269 l 92 -269 l 92 1014 m 432 158 q 503 174 471 158 q 559 215 536 189 q 594 274 582 240 q 607 347 607 308 q 594 420 607 386 q 559 480 582 454 q 503 521 536 506 q 432 536 471 536 q 341 515 376 536 q 282 461 306 493 l 282 235 q 341 180 306 201 q 432 158 376 158 z "},"ÿ":{"ha":792,"x_min":3,"x_max":792,"o":"m 158 -269 l 294 39 l 3 694 l 211 694 l 397 244 l 582 694 l 792 694 l 365 -269 l 158 -269 m 236 781 q 190 790 211 781 q 151 816 168 800 q 125 854 135 832 q 115 901 115 876 q 125 949 115 926 q 151 987 135 971 q 190 1013 168 1003 q 236 1022 211 1022 q 323 987 288 1022 q 358 901 358 951 q 323 816 358 851 q 236 781 288 781 m 563 781 q 516 790 538 781 q 478 816 494 800 q 451 854 461 832 q 442 901 442 876 q 451 949 442 926 q 478 987 461 971 q 516 1013 494 1003 q 563 1022 538 1022 q 649 987 614 1022 q 685 901 685 951 q 649 816 685 851 q 563 781 614 781 z "},"Ă":{"ha":1032,"x_min":1,"x_max":1032,"o":"m 426 986 l 606 986 l 1032 0 l 821 0 l 725 225 l 304 225 l 210 0 l 1 0 l 426 986 m 379 401 l 650 401 l 515 721 l 379 401 m 517 1042 q 423 1059 467 1042 q 346 1108 379 1076 q 294 1184 313 1139 q 275 1285 275 1229 l 386 1285 q 425 1185 386 1218 q 517 1153 464 1153 q 608 1185 569 1153 q 647 1285 647 1218 l 758 1285 q 740 1184 758 1229 q 688 1108 721 1139 q 610 1059 654 1076 q 517 1042 567 1042 z "},"Ā":{"ha":1032,"x_min":1,"x_max":1032,"o":"m 426 986 l 606 986 l 1032 0 l 821 0 l 725 225 l 304 225 l 210 0 l 1 0 l 426 986 m 379 401 l 650 401 l 515 721 l 379 401 m 279 1232 l 754 1232 l 754 1099 l 279 1099 l 279 1232 z "},"Ą":{"ha":1032,"x_min":1,"x_max":1051,"o":"m 426 986 l 606 986 l 1032 0 q 949 -54 978 -28 q 919 -112 919 -81 q 932 -143 919 -135 q 960 -151 944 -151 q 999 -139 979 -151 l 1051 -240 q 985 -272 1024 -260 q 904 -283 947 -283 q 796 -249 838 -283 q 754 -157 754 -215 q 776 -67 754 -104 q 821 0 799 -29 l 725 225 l 304 225 l 210 0 l 1 0 l 426 986 m 379 401 l 650 401 l 515 721 l 379 401 z "},"Ć":{"ha":1046,"x_min":51,"x_max":1017,"o":"m 561 -17 q 363 24 456 -17 q 201 133 269 64 q 92 294 132 201 q 51 493 51 388 q 92 692 51 599 q 201 853 132 785 q 363 963 269 922 q 561 1003 456 1003 q 705 984 636 1003 q 833 931 774 965 q 938 848 892 896 q 1017 740 985 800 l 842 643 q 727 764 797 719 q 561 808 657 808 q 440 783 496 808 q 343 715 385 758 q 278 615 301 672 q 254 493 254 557 q 278 371 254 428 q 343 271 301 314 q 440 203 385 228 q 561 178 496 178 q 727 222 657 178 q 842 343 797 267 l 1017 246 q 938 138 985 186 q 833 55 892 89 q 705 2 774 21 q 561 -17 636 -17 m 593 1257 l 806 1257 l 635 1067 l 493 1067 l 593 1257 z "},"Č":{"ha":1046,"x_min":51,"x_max":1017,"o":"m 561 -17 q 363 24 456 -17 q 201 133 269 64 q 92 294 132 201 q 51 493 51 388 q 92 692 51 599 q 201 853 132 785 q 363 963 269 922 q 561 1003 456 1003 q 705 984 636 1003 q 833 931 774 965 q 938 848 892 896 q 1017 740 985 800 l 842 643 q 727 764 797 719 q 561 808 657 808 q 440 783 496 808 q 343 715 385 758 q 278 615 301 672 q 254 493 254 557 q 278 371 254 428 q 343 271 301 314 q 440 203 385 228 q 561 178 496 178 q 727 222 657 178 q 842 343 797 267 l 1017 246 q 938 138 985 186 q 833 55 892 89 q 705 2 774 21 q 561 -17 636 -17 m 310 1257 l 483 1257 l 561 1179 l 639 1257 l 813 1257 l 650 1067 l 472 1067 l 310 1257 z "},"Ĉ":{"ha":1046,"x_min":51,"x_max":1017,"o":"m 561 -17 q 363 24 456 -17 q 201 133 269 64 q 92 294 132 201 q 51 493 51 388 q 92 692 51 599 q 201 853 132 785 q 363 963 269 922 q 561 1003 456 1003 q 705 984 636 1003 q 833 931 774 965 q 938 848 892 896 q 1017 740 985 800 l 842 643 q 727 764 797 719 q 561 808 657 808 q 440 783 496 808 q 343 715 385 758 q 278 615 301 672 q 254 493 254 557 q 278 371 254 428 q 343 271 301 314 q 440 203 385 228 q 561 178 496 178 q 727 222 657 178 q 842 343 797 267 l 1017 246 q 938 138 985 186 q 833 55 892 89 q 705 2 774 21 q 561 -17 636 -17 m 472 1257 l 650 1257 l 813 1067 l 639 1067 l 561 1144 l 483 1067 l 310 1067 l 472 1257 z "},"Ċ":{"ha":1046,"x_min":51,"x_max":1017,"o":"m 561 -17 q 363 24 456 -17 q 201 133 269 64 q 92 294 132 201 q 51 493 51 388 q 92 692 51 599 q 201 853 132 785 q 363 963 269 922 q 561 1003 456 1003 q 705 984 636 1003 q 833 931 774 965 q 938 848 892 896 q 1017 740 985 800 l 842 643 q 727 764 797 719 q 561 808 657 808 q 440 783 496 808 q 343 715 385 758 q 278 615 301 672 q 254 493 254 557 q 278 371 254 428 q 343 271 301 314 q 440 203 385 228 q 561 178 496 178 q 727 222 657 178 q 842 343 797 267 l 1017 246 q 938 138 985 186 q 833 55 892 89 q 705 2 774 21 q 561 -17 636 -17 m 561 1056 q 515 1065 536 1056 q 476 1091 493 1075 q 450 1129 460 1107 q 440 1176 440 1151 q 450 1224 440 1201 q 476 1262 460 1246 q 515 1288 493 1278 q 561 1297 536 1297 q 648 1262 613 1297 q 683 1176 683 1226 q 648 1091 683 1126 q 561 1056 613 1056 z "},"Ď":{"ha":994,"x_min":110,"x_max":942,"o":"m 110 986 l 435 986 q 633 948 540 986 q 794 843 726 910 q 902 686 863 776 q 942 493 942 596 q 902 300 942 390 q 794 143 863 210 q 633 38 726 76 q 435 0 540 0 l 110 0 l 110 986 m 435 185 q 559 209 503 185 q 655 275 615 233 q 717 373 694 317 q 739 493 739 429 q 717 613 739 557 q 655 711 694 669 q 559 777 615 753 q 435 801 503 801 l 311 801 l 311 185 l 435 185 m 218 1257 l 392 1257 l 469 1179 l 547 1257 l 721 1257 l 558 1067 l 381 1067 l 218 1257 z "},"Đ":{"ha":1015,"x_min":31,"x_max":963,"o":"m 131 986 l 456 986 q 654 948 561 986 q 815 843 747 910 q 923 686 883 776 q 963 493 963 596 q 923 300 963 390 q 815 143 883 210 q 654 38 747 76 q 456 0 561 0 l 131 0 l 131 986 m 456 185 q 580 209 524 185 q 676 275 636 233 q 738 373 715 317 q 760 493 760 429 q 738 613 760 557 q 676 711 715 669 q 580 777 636 753 q 456 801 524 801 l 332 801 l 332 185 l 456 185 m 31 585 l 510 585 l 510 410 l 31 410 l 31 585 z "},"Ĕ":{"ha":789,"x_min":110,"x_max":724,"o":"m 110 986 l 724 986 l 724 794 l 311 794 l 311 592 l 640 592 l 640 400 l 311 400 l 311 192 l 724 192 l 724 0 l 110 0 l 110 986 m 415 1042 q 322 1059 365 1042 q 244 1108 278 1076 q 192 1184 211 1139 q 174 1285 174 1229 l 285 1285 q 324 1185 285 1218 q 415 1153 363 1153 q 507 1185 468 1153 q 546 1285 546 1218 l 657 1285 q 638 1184 657 1229 q 586 1108 619 1139 q 509 1059 553 1076 q 415 1042 465 1042 z "},"Ě":{"ha":789,"x_min":110,"x_max":724,"o":"m 110 986 l 724 986 l 724 794 l 311 794 l 311 592 l 640 592 l 640 400 l 311 400 l 311 192 l 724 192 l 724 0 l 110 0 l 110 986 m 164 1257 l 338 1257 l 415 1179 l 493 1257 l 667 1257 l 504 1067 l 326 1067 l 164 1257 z "},"Ē":{"ha":789,"x_min":110,"x_max":724,"o":"m 110 986 l 724 986 l 724 794 l 311 794 l 311 592 l 640 592 l 640 400 l 311 400 l 311 192 l 724 192 l 724 0 l 110 0 l 110 986 m 178 1232 l 653 1232 l 653 1099 l 178 1099 l 178 1232 z "},"Ę":{"ha":789,"x_min":110,"x_max":744,"o":"m 110 986 l 724 986 l 724 794 l 311 794 l 311 592 l 640 592 l 640 400 l 311 400 l 311 192 l 724 192 l 724 0 l 110 0 l 110 986 m 593 -283 q 485 -249 531 -283 q 440 -156 440 -215 q 463 -74 440 -111 q 524 0 486 -37 l 725 0 q 614 -108 614 -56 q 626 -135 614 -128 q 650 -143 639 -143 q 689 -131 668 -143 l 744 -240 q 678 -272 717 -260 q 593 -283 639 -283 z "},"Ė":{"ha":789,"x_min":110,"x_max":724,"o":"m 110 986 l 724 986 l 724 794 l 311 794 l 311 592 l 640 592 l 640 400 l 311 400 l 311 192 l 724 192 l 724 0 l 110 0 l 110 986 m 415 1056 q 369 1065 390 1056 q 331 1091 347 1075 q 304 1129 314 1107 q 294 1176 294 1151 q 304 1224 294 1201 q 331 1262 314 1246 q 369 1288 347 1278 q 415 1297 390 1297 q 502 1262 467 1297 q 538 1176 538 1226 q 502 1091 538 1126 q 415 1056 467 1056 z "},"Ğ":{"ha":1060,"x_min":53,"x_max":989,"o":"m 588 -17 q 374 22 472 -17 q 205 130 276 61 q 93 292 133 199 q 53 493 53 385 q 91 692 53 599 q 198 853 129 785 q 362 963 267 922 q 571 1003 457 1003 q 799 960 700 1003 q 968 842 897 917 l 828 703 q 721 778 783 749 q 571 808 658 808 q 442 783 500 808 q 342 715 383 758 q 278 615 301 672 q 256 493 256 557 q 278 369 256 426 q 344 269 301 311 q 449 202 388 226 q 586 178 510 178 q 702 190 647 178 q 793 231 757 203 l 793 401 l 581 401 l 581 590 l 989 590 l 989 128 q 910 65 956 92 q 813 19 865 38 q 703 -8 761 1 q 588 -17 646 -17 m 575 1042 q 481 1059 525 1042 q 404 1108 438 1076 q 352 1184 371 1139 q 333 1285 333 1229 l 444 1285 q 483 1185 444 1218 q 575 1153 522 1153 q 667 1185 628 1153 q 706 1285 706 1218 l 817 1285 q 798 1184 817 1229 q 746 1108 779 1139 q 669 1059 713 1076 q 575 1042 625 1042 z "},"Ĝ":{"ha":1060,"x_min":53,"x_max":989,"o":"m 588 -17 q 374 22 472 -17 q 205 130 276 61 q 93 292 133 199 q 53 493 53 385 q 91 692 53 599 q 198 853 129 785 q 362 963 267 922 q 571 1003 457 1003 q 799 960 700 1003 q 968 842 897 917 l 828 703 q 721 778 783 749 q 571 808 658 808 q 442 783 500 808 q 342 715 383 758 q 278 615 301 672 q 256 493 256 557 q 278 369 256 426 q 344 269 301 311 q 449 202 388 226 q 586 178 510 178 q 702 190 647 178 q 793 231 757 203 l 793 401 l 581 401 l 581 590 l 989 590 l 989 128 q 910 65 956 92 q 813 19 865 38 q 703 -8 761 1 q 588 -17 646 -17 m 486 1257 l 664 1257 l 826 1067 l 653 1067 l 575 1144 l 497 1067 l 324 1067 l 486 1257 z "},"Ģ":{"ha":1060,"x_min":53,"x_max":989,"o":"m 588 -17 q 374 22 472 -17 q 205 130 276 61 q 93 292 133 199 q 53 493 53 385 q 91 692 53 599 q 198 853 129 785 q 362 963 267 922 q 571 1003 457 1003 q 799 960 700 1003 q 968 842 897 917 l 828 703 q 721 778 783 749 q 571 808 658 808 q 442 783 500 808 q 342 715 383 758 q 278 615 301 672 q 256 493 256 557 q 278 369 256 426 q 344 269 301 311 q 449 202 388 226 q 586 178 510 178 q 702 190 647 178 q 793 231 757 203 l 793 401 l 581 401 l 581 590 l 989 590 l 989 128 q 910 65 956 92 q 813 19 865 38 q 703 -8 761 1 q 588 -17 646 -17 m 483 -447 l 544 -328 q 488 -285 510 -315 q 465 -215 465 -254 q 475 -168 465 -190 q 501 -130 485 -146 q 540 -104 518 -114 q 586 -94 561 -94 q 673 -130 638 -94 q 708 -215 708 -165 q 702 -256 708 -235 q 685 -292 696 -276 l 572 -447 l 483 -447 z "},"Ġ":{"ha":1060,"x_min":53,"x_max":989,"o":"m 588 -17 q 374 22 472 -17 q 205 130 276 61 q 93 292 133 199 q 53 493 53 385 q 91 692 53 599 q 198 853 129 785 q 362 963 267 922 q 571 1003 457 1003 q 799 960 700 1003 q 968 842 897 917 l 828 703 q 721 778 783 749 q 571 808 658 808 q 442 783 500 808 q 342 715 383 758 q 278 615 301 672 q 256 493 256 557 q 278 369 256 426 q 344 269 301 311 q 449 202 388 226 q 586 178 510 178 q 702 190 647 178 q 793 231 757 203 l 793 401 l 581 401 l 581 590 l 989 590 l 989 128 q 910 65 956 92 q 813 19 865 38 q 703 -8 761 1 q 588 -17 646 -17 m 575 1056 q 528 1065 550 1056 q 490 1091 507 1075 q 464 1129 474 1107 q 454 1176 454 1151 q 464 1224 454 1201 q 490 1262 474 1246 q 528 1288 507 1278 q 575 1297 550 1297 q 662 1262 626 1297 q 697 1176 697 1226 q 662 1091 697 1126 q 575 1056 626 1056 z "},"Ħ":{"ha":1093,"x_min":32,"x_max":1063,"o":"m 132 986 l 333 986 l 333 593 l 761 593 l 761 986 l 963 986 l 963 0 l 761 0 l 761 401 l 333 401 l 333 0 l 132 0 l 132 986 m 32 860 l 1063 860 l 1063 721 l 32 721 l 32 860 z "},"Ĥ":{"ha":1050,"x_min":110,"x_max":940,"o":"m 110 986 l 311 986 l 311 593 l 739 593 l 739 986 l 940 986 l 940 0 l 739 0 l 739 401 l 311 401 l 311 0 l 110 0 l 110 986 m 436 1257 l 614 1257 l 776 1067 l 603 1067 l 525 1144 l 447 1067 l 274 1067 l 436 1257 z "},"Ĭ":{"ha":421,"x_min":-31,"x_max":453,"o":"m 110 986 l 311 986 l 311 0 l 110 0 l 110 986 m 211 1042 q 117 1059 161 1042 q 40 1108 74 1076 q -12 1184 7 1139 q -31 1285 -31 1229 l 81 1285 q 119 1185 81 1218 q 211 1153 158 1153 q 303 1185 264 1153 q 342 1285 342 1218 l 453 1285 q 434 1184 453 1229 q 382 1108 415 1139 q 305 1059 349 1076 q 211 1042 261 1042 z "},"İ":{"ha":421,"x_min":90,"x_max":333,"o":"m 110 986 l 311 986 l 311 0 l 110 0 l 110 986 m 211 1056 q 165 1065 186 1056 q 126 1091 143 1075 q 100 1129 110 1107 q 90 1176 90 1151 q 100 1224 90 1201 q 126 1262 110 1246 q 165 1288 143 1278 q 211 1297 186 1297 q 298 1262 263 1297 q 333 1176 333 1226 q 298 1091 333 1126 q 211 1056 263 1056 z "},"Ī":{"ha":421,"x_min":-26,"x_max":449,"o":"m 110 986 l 311 986 l 311 0 l 110 0 l 110 986 m -26 1232 l 449 1232 l 449 1099 l -26 1099 l -26 1232 z "},"Į":{"ha":421,"x_min":26,"x_max":331,"o":"m 110 986 l 311 986 l 311 0 l 110 0 l 110 986 m 179 -283 q 72 -249 117 -283 q 26 -156 26 -215 q 49 -74 26 -111 q 110 0 72 -37 l 311 0 q 200 -108 200 -56 q 213 -135 200 -128 q 236 -143 225 -143 q 275 -131 254 -143 l 331 -240 q 264 -272 303 -260 q 179 -283 225 -283 z "},"Ĩ":{"ha":421,"x_min":-51,"x_max":472,"o":"m 110 986 l 311 986 l 311 0 l 110 0 l 110 986 m -46 1117 q 13 1232 -35 1192 q 118 1272 61 1272 q 176 1263 149 1272 q 225 1240 203 1253 q 266 1218 247 1228 q 301 1208 285 1208 q 342 1225 329 1208 q 363 1274 354 1242 l 472 1274 l 467 1238 q 408 1122 456 1163 q 303 1082 360 1082 q 244 1092 271 1082 q 196 1114 218 1101 q 155 1136 174 1126 q 119 1146 136 1146 q 79 1129 92 1146 q 58 1081 67 1113 l -51 1081 l -46 1117 z "},"Ị":{"ha":421,"x_min":89,"x_max":332,"o":"m 110 986 l 311 986 l 311 0 l 110 0 l 110 986 m 210 -336 q 163 -326 185 -336 q 125 -301 142 -317 q 99 -262 108 -285 q 89 -215 89 -240 q 99 -168 89 -190 q 125 -130 108 -146 q 163 -104 142 -114 q 210 -94 185 -94 q 297 -130 261 -94 q 332 -215 332 -165 q 297 -301 332 -265 q 210 -336 261 -336 z "},"Ĵ":{"ha":654,"x_min":1,"x_max":701,"o":"m 249 -17 q 95 14 156 -17 q 1 79 35 44 l 115 226 q 240 171 171 171 q 318 197 286 171 q 350 282 350 224 l 350 986 l 551 986 l 551 269 q 526 140 551 194 q 459 51 501 86 q 362 0 417 17 q 249 -17 307 -17 m 361 1257 l 539 1257 l 701 1067 l 528 1067 l 450 1144 l 372 1067 l 199 1067 l 361 1257 z "},"Ķ":{"ha":964,"x_min":110,"x_max":999,"o":"m 310 447 l 310 0 l 110 0 l 110 986 l 310 986 l 310 568 l 665 986 l 914 986 l 508 513 l 999 0 l 738 0 l 310 447 m 419 -447 l 481 -328 q 424 -285 446 -315 q 401 -215 401 -254 q 411 -168 401 -190 q 438 -130 421 -146 q 476 -104 454 -114 q 522 -94 497 -94 q 609 -130 574 -94 q 644 -215 644 -165 q 638 -256 644 -235 q 621 -292 632 -276 l 508 -447 l 419 -447 z "},"Ĺ":{"ha":765,"x_min":110,"x_max":733,"o":"m 110 986 l 311 986 l 311 192 l 733 192 l 733 0 l 110 0 l 110 986 m 246 1257 l 458 1257 l 288 1067 l 146 1067 l 246 1257 z "},"Ľ":{"ha":768,"x_min":110,"x_max":733,"o":"m 110 986 l 311 986 l 311 192 l 733 192 l 733 0 l 110 0 l 110 986 m 438 1014 l 628 1014 l 538 790 l 408 790 l 438 1014 z "},"Ļ":{"ha":765,"x_min":110,"x_max":733,"o":"m 110 986 l 311 986 l 311 192 l 733 192 l 733 0 l 110 0 l 110 986 m 318 -447 l 379 -328 q 322 -285 344 -315 q 300 -215 300 -254 q 310 -168 300 -190 q 336 -130 319 -146 q 374 -104 353 -114 q 421 -94 396 -94 q 508 -130 472 -94 q 543 -215 543 -165 q 537 -256 543 -235 q 519 -292 531 -276 l 407 -447 l 318 -447 z "},"Ŀ":{"ha":775,"x_min":110,"x_max":733,"o":"m 110 986 l 311 986 l 311 192 l 733 192 l 733 0 l 110 0 l 110 986 m 588 468 q 541 478 563 468 q 503 503 519 488 q 476 542 486 519 q 467 589 467 564 q 476 636 467 614 q 503 674 486 658 q 541 700 519 690 q 588 710 563 710 q 674 674 639 710 q 710 589 710 639 q 674 503 710 539 q 588 468 639 468 z "},"Ł":{"ha":806,"x_min":50,"x_max":772,"o":"m 149 986 l 350 986 l 350 192 l 772 192 l 772 0 l 149 0 l 149 986 m 50 296 l 50 456 l 539 743 l 539 582 l 50 296 z "},"Ń":{"ha":1100,"x_min":110,"x_max":990,"o":"m 817 0 l 311 643 l 311 0 l 110 0 l 110 986 l 283 986 l 789 343 l 789 986 l 990 986 l 990 0 l 817 0 m 581 1257 l 793 1257 l 622 1067 l 481 1067 l 581 1257 z "},"Ň":{"ha":1100,"x_min":110,"x_max":990,"o":"m 817 0 l 311 643 l 311 0 l 110 0 l 110 986 l 283 986 l 789 343 l 789 986 l 990 986 l 990 0 l 817 0 m 297 1257 l 471 1257 l 549 1179 l 626 1257 l 800 1257 l 638 1067 l 460 1067 l 297 1257 z "},"Ņ":{"ha":1100,"x_min":110,"x_max":990,"o":"m 817 0 l 311 643 l 311 0 l 110 0 l 110 986 l 283 986 l 789 343 l 789 986 l 990 986 l 990 0 l 817 0 m 446 -447 l 507 -328 q 450 -285 472 -315 q 428 -215 428 -254 q 438 -168 428 -190 q 464 -130 447 -146 q 502 -104 481 -114 q 549 -94 524 -94 q 635 -130 600 -94 q 671 -215 671 -165 q 665 -256 671 -235 q 647 -292 658 -276 l 535 -447 l 446 -447 z "},"Œ":{"ha":1547,"x_min":51,"x_max":1482,"o":"m 561 178 q 681 203 625 178 q 779 271 738 228 q 844 371 821 314 q 868 493 868 428 q 844 615 868 557 q 779 715 821 672 q 681 783 738 758 q 561 808 625 808 q 440 783 496 808 q 343 715 385 758 q 278 615 301 672 q 254 493 254 557 q 278 371 254 428 q 343 271 301 314 q 440 203 385 228 q 561 178 496 178 m 868 96 q 731 10 813 38 q 561 -17 649 -17 q 363 24 456 -17 q 201 133 269 64 q 92 294 132 201 q 51 493 51 388 q 92 692 51 599 q 201 853 132 785 q 363 963 269 922 q 561 1003 456 1003 q 731 976 649 1003 q 868 890 813 949 l 868 986 l 1482 986 l 1482 794 l 1069 794 l 1069 592 l 1399 592 l 1399 400 l 1069 400 l 1069 192 l 1482 192 l 1482 0 l 868 0 l 868 96 z "},"Ŏ":{"ha":1122,"x_min":51,"x_max":1071,"o":"m 561 178 q 681 203 625 178 q 779 271 738 228 q 844 371 821 314 q 868 493 868 428 q 844 615 868 557 q 779 715 821 672 q 681 783 738 758 q 561 808 625 808 q 440 783 496 808 q 343 715 385 758 q 278 615 301 672 q 254 493 254 557 q 278 371 254 428 q 343 271 301 314 q 440 203 385 228 q 561 178 496 178 m 561 -17 q 363 24 456 -17 q 201 133 269 64 q 92 294 132 201 q 51 493 51 388 q 92 692 51 599 q 201 853 132 785 q 363 963 269 922 q 561 1003 456 1003 q 760 963 667 1003 q 922 853 853 922 q 1031 692 990 785 q 1071 493 1071 599 q 1031 294 1071 388 q 922 133 990 201 q 760 24 853 64 q 561 -17 667 -17 m 561 1042 q 467 1059 511 1042 q 390 1108 424 1076 q 338 1184 357 1139 q 319 1285 319 1229 l 431 1285 q 469 1185 431 1218 q 561 1153 508 1153 q 653 1185 614 1153 q 692 1285 692 1218 l 803 1285 q 784 1184 803 1229 q 732 1108 765 1139 q 655 1059 699 1076 q 561 1042 611 1042 z "},"Ő":{"ha":1122,"x_min":51,"x_max":1071,"o":"m 561 178 q 681 203 625 178 q 779 271 738 228 q 844 371 821 314 q 868 493 868 428 q 844 615 868 557 q 779 715 821 672 q 681 783 738 758 q 561 808 625 808 q 440 783 496 808 q 343 715 385 758 q 278 615 301 672 q 254 493 254 557 q 278 371 254 428 q 343 271 301 314 q 440 203 385 228 q 561 178 496 178 m 561 -17 q 363 24 456 -17 q 201 133 269 64 q 92 294 132 201 q 51 493 51 388 q 92 692 51 599 q 201 853 132 785 q 363 963 269 922 q 561 1003 456 1003 q 760 963 667 1003 q 922 853 853 922 q 1031 692 990 785 q 1071 493 1071 599 q 1031 294 1071 388 q 922 133 990 201 q 760 24 853 64 q 561 -17 667 -17 m 456 1257 l 660 1257 l 508 1067 l 383 1067 l 456 1257 m 713 1257 l 917 1257 l 765 1067 l 640 1067 l 713 1257 z "},"Ō":{"ha":1122,"x_min":51,"x_max":1071,"o":"m 561 178 q 681 203 625 178 q 779 271 738 228 q 844 371 821 314 q 868 493 868 428 q 844 615 868 557 q 779 715 821 672 q 681 783 738 758 q 561 808 625 808 q 440 783 496 808 q 343 715 385 758 q 278 615 301 672 q 254 493 254 557 q 278 371 254 428 q 343 271 301 314 q 440 203 385 228 q 561 178 496 178 m 561 -17 q 363 24 456 -17 q 201 133 269 64 q 92 294 132 201 q 51 493 51 388 q 92 692 51 599 q 201 853 132 785 q 363 963 269 922 q 561 1003 456 1003 q 760 963 667 1003 q 922 853 853 922 q 1031 692 990 785 q 1071 493 1071 599 q 1031 294 1071 388 q 922 133 990 201 q 760 24 853 64 q 561 -17 667 -17 m 324 1232 l 799 1232 l 799 1099 l 324 1099 l 324 1232 z "},"Ọ":{"ha":1122,"x_min":51,"x_max":1071,"o":"m 561 178 q 681 203 625 178 q 779 271 738 228 q 844 371 821 314 q 868 493 868 428 q 844 615 868 557 q 779 715 821 672 q 681 783 738 758 q 561 808 625 808 q 440 783 496 808 q 343 715 385 758 q 278 615 301 672 q 254 493 254 557 q 278 371 254 428 q 343 271 301 314 q 440 203 385 228 q 561 178 496 178 m 561 -17 q 363 24 456 -17 q 201 133 269 64 q 92 294 132 201 q 51 493 51 388 q 92 692 51 599 q 201 853 132 785 q 363 963 269 922 q 561 1003 456 1003 q 760 963 667 1003 q 922 853 853 922 q 1031 692 990 785 q 1071 493 1071 599 q 1031 294 1071 388 q 922 133 990 201 q 760 24 853 64 q 561 -17 667 -17 m 561 -336 q 515 -326 536 -336 q 476 -301 493 -317 q 450 -262 460 -285 q 440 -215 440 -240 q 450 -168 440 -190 q 476 -130 460 -146 q 515 -104 493 -114 q 561 -94 536 -94 q 648 -130 613 -94 q 683 -215 683 -165 q 648 -301 683 -265 q 561 -336 613 -336 z "},"Ŕ":{"ha":911,"x_min":110,"x_max":942,"o":"m 110 986 l 488 986 q 613 964 557 986 q 708 902 668 942 q 769 809 747 863 q 790 694 790 756 q 738 531 790 594 q 588 438 686 468 l 942 0 l 699 0 l 360 415 l 311 415 l 311 0 l 110 0 l 110 986 m 464 588 q 556 616 521 588 q 590 694 590 644 q 556 774 590 746 q 464 801 521 801 l 311 801 l 311 588 l 464 588 m 450 1257 l 663 1257 l 492 1067 l 350 1067 l 450 1257 z "},"Ř":{"ha":911,"x_min":110,"x_max":942,"o":"m 110 986 l 488 986 q 613 964 557 986 q 708 902 668 942 q 769 809 747 863 q 790 694 790 756 q 738 531 790 594 q 588 438 686 468 l 942 0 l 699 0 l 360 415 l 311 415 l 311 0 l 110 0 l 110 986 m 464 588 q 556 616 521 588 q 590 694 590 644 q 556 774 590 746 q 464 801 521 801 l 311 801 l 311 588 l 464 588 m 167 1257 l 340 1257 l 418 1179 l 496 1257 l 669 1257 l 507 1067 l 329 1067 l 167 1257 z "},"Ŗ":{"ha":911,"x_min":110,"x_max":942,"o":"m 110 986 l 488 986 q 613 964 557 986 q 708 902 668 942 q 769 809 747 863 q 790 694 790 756 q 738 531 790 594 q 588 438 686 468 l 942 0 l 699 0 l 360 415 l 311 415 l 311 0 l 110 0 l 110 986 m 464 588 q 556 616 521 588 q 590 694 590 644 q 556 774 590 746 q 464 801 521 801 l 311 801 l 311 588 l 464 588 m 401 -447 l 463 -328 q 406 -285 428 -315 q 383 -215 383 -254 q 393 -168 383 -190 q 419 -130 403 -146 q 458 -104 436 -114 q 504 -94 479 -94 q 591 -130 556 -94 q 626 -215 626 -165 q 620 -256 626 -235 q 603 -292 614 -276 l 490 -447 l 401 -447 z "},"Ś":{"ha":792,"x_min":36,"x_max":743,"o":"m 397 -17 q 184 31 279 -17 q 36 160 89 78 l 192 289 q 285 203 228 233 q 404 172 343 172 q 501 199 464 172 q 538 268 538 225 q 505 340 538 310 q 399 396 472 371 l 315 425 q 134 536 196 467 q 72 707 72 606 q 97 831 72 776 q 167 924 122 886 q 272 983 211 963 q 406 1003 333 1003 q 575 970 497 1003 q 718 867 653 938 l 583 729 q 503 793 549 772 q 408 814 458 814 q 359 808 383 814 q 317 792 335 803 q 288 765 299 781 q 276 726 276 749 q 313 656 276 682 q 428 603 349 631 l 507 574 q 679 463 615 533 q 742 281 743 393 q 716 160 742 214 q 645 66 690 106 q 537 5 600 26 q 397 -17 474 -17 m 440 1257 l 653 1257 l 482 1067 l 340 1067 l 440 1257 z "},"Š":{"ha":792,"x_min":36,"x_max":743,"o":"m 397 -17 q 184 31 279 -17 q 36 160 89 78 l 192 289 q 285 203 228 233 q 404 172 343 172 q 501 199 464 172 q 538 268 538 225 q 505 340 538 310 q 399 396 472 371 l 315 425 q 134 536 196 467 q 72 707 72 606 q 97 831 72 776 q 167 924 122 886 q 272 983 211 963 q 406 1003 333 1003 q 575 970 497 1003 q 718 867 653 938 l 583 729 q 503 793 549 772 q 408 814 458 814 q 359 808 383 814 q 317 792 335 803 q 288 765 299 781 q 276 726 276 749 q 313 656 276 682 q 428 603 349 631 l 507 574 q 679 463 615 533 q 742 281 743 393 q 716 160 742 214 q 645 66 690 106 q 537 5 600 26 q 397 -17 474 -17 m 157 1257 l 331 1257 l 408 1179 l 486 1257 l 660 1257 l 497 1067 l 319 1067 l 157 1257 z "},"Ş":{"ha":792,"x_min":36,"x_max":743,"o":"m 397 -17 q 184 31 279 -17 q 36 160 89 78 l 192 289 q 285 203 228 233 q 404 172 343 172 q 501 199 464 172 q 538 268 538 225 q 505 340 538 310 q 399 396 472 371 l 315 425 q 134 536 196 467 q 72 707 72 606 q 97 831 72 776 q 167 924 122 886 q 272 983 211 963 q 406 1003 333 1003 q 575 970 497 1003 q 718 867 653 938 l 583 729 q 503 793 549 772 q 408 814 458 814 q 359 808 383 814 q 317 792 335 803 q 288 765 299 781 q 276 726 276 749 q 313 656 276 682 q 428 603 349 631 l 507 574 q 679 463 615 533 q 742 281 743 393 q 716 160 742 214 q 645 66 690 106 q 537 5 600 26 q 397 -17 474 -17 m 256 -176 q 350 -199 299 -199 q 372 -197 360 -199 q 395 -192 385 -196 q 413 -180 406 -187 q 421 -160 421 -172 q 406 -133 421 -140 q 374 -125 392 -125 q 340 -130 356 -125 q 314 -142 325 -135 l 265 -114 l 336 4 l 422 4 l 382 -62 q 408 -51 392 -56 q 444 -47 425 -47 q 524 -76 492 -47 q 557 -151 557 -106 q 542 -206 557 -182 q 501 -248 526 -231 q 441 -274 475 -265 q 371 -283 407 -283 q 303 -279 339 -283 q 236 -261 268 -275 l 256 -176 z "},"Ŝ":{"ha":792,"x_min":36,"x_max":743,"o":"m 397 -17 q 184 31 279 -17 q 36 160 89 78 l 192 289 q 285 203 228 233 q 404 172 343 172 q 501 199 464 172 q 538 268 538 225 q 505 340 538 310 q 399 396 472 371 l 315 425 q 134 536 196 467 q 72 707 72 606 q 97 831 72 776 q 167 924 122 886 q 272 983 211 963 q 406 1003 333 1003 q 575 970 497 1003 q 718 867 653 938 l 583 729 q 503 793 549 772 q 408 814 458 814 q 359 808 383 814 q 317 792 335 803 q 288 765 299 781 q 276 726 276 749 q 313 656 276 682 q 428 603 349 631 l 507 574 q 679 463 615 533 q 742 281 743 393 q 716 160 742 214 q 645 66 690 106 q 537 5 600 26 q 397 -17 474 -17 m 319 1257 l 497 1257 l 660 1067 l 486 1067 l 408 1144 l 331 1067 l 157 1067 l 319 1257 z "},"Ș":{"ha":792,"x_min":36,"x_max":743,"o":"m 397 -17 q 184 31 279 -17 q 36 160 89 78 l 192 289 q 285 203 228 233 q 404 172 343 172 q 501 199 464 172 q 538 268 538 225 q 505 340 538 310 q 399 396 472 371 l 315 425 q 134 536 196 467 q 72 707 72 606 q 97 831 72 776 q 167 924 122 886 q 272 983 211 963 q 406 1003 333 1003 q 575 970 497 1003 q 718 867 653 938 l 583 729 q 503 793 549 772 q 408 814 458 814 q 359 808 383 814 q 317 792 335 803 q 288 765 299 781 q 276 726 276 749 q 313 656 276 682 q 428 603 349 631 l 507 574 q 679 463 615 533 q 742 281 743 393 q 716 160 742 214 q 645 66 690 106 q 537 5 600 26 q 397 -17 474 -17 m 294 -447 l 356 -328 q 299 -285 321 -315 q 276 -215 276 -254 q 286 -168 276 -190 q 313 -130 296 -146 q 351 -104 329 -114 q 397 -94 372 -94 q 484 -130 449 -94 q 519 -215 519 -165 q 513 -256 519 -235 q 496 -292 507 -276 l 383 -447 l 294 -447 z "},"Ť":{"ha":789,"x_min":29,"x_max":760,"o":"m 292 794 l 29 794 l 29 986 l 760 986 l 760 794 l 494 794 l 494 0 l 292 0 l 292 794 m 143 1257 l 317 1257 l 394 1179 l 472 1257 l 646 1257 l 483 1067 l 306 1067 l 143 1257 z "},"Ţ":{"ha":789,"x_min":29,"x_max":760,"o":"m 292 794 l 29 794 l 29 986 l 760 986 l 760 794 l 494 794 l 494 0 l 292 0 l 292 794 m 292 -447 l 353 -328 q 296 -285 318 -315 q 274 -215 274 -254 q 283 -168 274 -190 q 310 -130 293 -146 q 348 -104 326 -114 q 394 -94 369 -94 q 481 -130 446 -94 q 517 -215 517 -165 q 510 -256 517 -235 q 493 -292 504 -276 l 381 -447 l 292 -447 z "},"Ț":{"ha":789,"x_min":29,"x_max":760,"o":"m 292 794 l 29 794 l 29 986 l 760 986 l 760 794 l 494 794 l 494 0 l 292 0 l 292 794 m 292 -447 l 353 -328 q 296 -285 318 -315 q 274 -215 274 -254 q 283 -168 274 -190 q 310 -130 293 -146 q 348 -104 326 -114 q 394 -94 369 -94 q 481 -130 446 -94 q 517 -215 517 -165 q 510 -256 517 -235 q 493 -292 504 -276 l 381 -447 l 292 -447 z "},"Ŭ":{"ha":1000,"x_min":99,"x_max":901,"o":"m 500 -17 q 338 12 411 -17 q 210 94 264 40 q 128 222 157 147 q 99 389 99 297 l 99 986 l 300 986 l 300 386 q 355 233 300 288 q 500 178 410 178 q 645 233 590 178 q 700 386 700 288 l 700 986 l 901 986 l 901 389 q 872 222 901 297 q 788 94 842 147 q 661 12 735 40 q 500 -17 588 -17 m 500 1042 q 406 1059 450 1042 q 329 1108 363 1076 q 277 1184 296 1139 q 258 1285 258 1229 l 369 1285 q 408 1185 369 1218 q 500 1153 447 1153 q 592 1185 553 1153 q 631 1285 631 1218 l 742 1285 q 723 1184 742 1229 q 671 1108 704 1139 q 594 1059 638 1076 q 500 1042 550 1042 z "},"Ű":{"ha":1000,"x_min":99,"x_max":901,"o":"m 500 -17 q 338 12 411 -17 q 210 94 264 40 q 128 222 157 147 q 99 389 99 297 l 99 986 l 300 986 l 300 386 q 355 233 300 288 q 500 178 410 178 q 645 233 590 178 q 700 386 700 288 l 700 986 l 901 986 l 901 389 q 872 222 901 297 q 788 94 842 147 q 661 12 735 40 q 500 -17 588 -17 m 394 1257 l 599 1257 l 447 1067 l 322 1067 l 394 1257 m 651 1257 l 856 1257 l 704 1067 l 579 1067 l 651 1257 z "},"Ū":{"ha":1000,"x_min":99,"x_max":901,"o":"m 500 -17 q 338 12 411 -17 q 210 94 264 40 q 128 222 157 147 q 99 389 99 297 l 99 986 l 300 986 l 300 386 q 355 233 300 288 q 500 178 410 178 q 645 233 590 178 q 700 386 700 288 l 700 986 l 901 986 l 901 389 q 872 222 901 297 q 788 94 842 147 q 661 12 735 40 q 500 -17 588 -17 m 263 1232 l 738 1232 l 738 1099 l 263 1099 l 263 1232 z "},"Ų":{"ha":1000,"x_min":99,"x_max":901,"o":"m 572 -283 q 515 -275 542 -283 q 467 -251 488 -267 q 433 -212 446 -235 q 421 -160 421 -189 q 436 -87 421 -124 q 488 -17 451 -51 q 324 19 396 -12 q 201 103 251 50 q 125 228 151 156 q 99 389 99 301 l 99 986 l 300 986 l 300 386 q 355 233 300 288 q 500 178 410 178 q 645 233 590 178 q 700 386 700 288 l 700 986 l 901 986 l 901 389 q 865 203 901 282 q 761 68 828 124 q 636 -40 678 -3 q 594 -111 594 -78 q 606 -136 594 -129 q 629 -143 618 -143 q 668 -131 649 -143 l 724 -240 q 657 -272 696 -260 q 572 -283 618 -283 z "},"Ů":{"ha":1000,"x_min":99,"x_max":901,"o":"m 500 -17 q 338 12 411 -17 q 210 94 264 40 q 128 222 157 147 q 99 389 99 297 l 99 986 l 300 986 l 300 386 q 355 233 300 288 q 500 178 410 178 q 645 233 590 178 q 700 386 700 288 l 700 986 l 901 986 l 901 389 q 872 222 901 297 q 788 94 842 147 q 661 12 735 40 q 500 -17 588 -17 m 500 1056 q 453 1065 475 1056 q 415 1091 432 1075 q 389 1129 399 1107 q 379 1176 379 1151 q 389 1224 379 1201 q 415 1262 399 1246 q 453 1288 432 1278 q 500 1297 475 1297 q 587 1262 551 1297 q 622 1176 622 1226 q 587 1091 622 1126 q 500 1056 551 1056 z "},"Ũ":{"ha":1000,"x_min":99,"x_max":901,"o":"m 500 -17 q 338 12 411 -17 q 210 94 264 40 q 128 222 157 147 q 99 389 99 297 l 99 986 l 300 986 l 300 386 q 355 233 300 288 q 500 178 410 178 q 645 233 590 178 q 700 386 700 288 l 700 986 l 901 986 l 901 389 q 872 222 901 297 q 788 94 842 147 q 661 12 735 40 q 500 -17 588 -17 m 243 1117 q 302 1232 254 1192 q 407 1272 350 1272 q 465 1263 438 1272 q 514 1240 492 1253 q 555 1218 536 1228 q 590 1208 574 1208 q 631 1225 618 1208 q 651 1274 643 1242 l 761 1274 l 756 1238 q 697 1122 744 1163 q 592 1082 649 1082 q 533 1092 560 1082 q 485 1114 507 1101 q 444 1136 463 1126 q 408 1146 425 1146 q 368 1129 381 1146 q 347 1081 356 1113 l 238 1081 l 243 1117 z "},"Ụ":{"ha":1000,"x_min":99,"x_max":901,"o":"m 500 -17 q 338 12 411 -17 q 210 94 264 40 q 128 222 157 147 q 99 389 99 297 l 99 986 l 300 986 l 300 386 q 355 233 300 288 q 500 178 410 178 q 645 233 590 178 q 700 386 700 288 l 700 986 l 901 986 l 901 389 q 872 222 901 297 q 788 94 842 147 q 661 12 735 40 q 500 -17 588 -17 m 500 -336 q 453 -326 475 -336 q 415 -301 432 -317 q 389 -262 399 -285 q 379 -215 379 -240 q 389 -168 379 -190 q 415 -130 399 -146 q 453 -104 432 -114 q 500 -94 475 -94 q 587 -130 551 -94 q 622 -215 622 -165 q 587 -301 622 -265 q 500 -336 551 -336 z "},"Ẃ":{"ha":1417,"x_min":13,"x_max":1404,"o":"m 13 986 l 225 986 l 415 331 l 619 986 l 796 986 l 999 331 l 1190 986 l 1404 986 l 1097 0 l 917 0 l 708 678 l 500 0 l 319 0 l 13 986 m 742 1257 l 954 1257 l 783 1067 l 642 1067 l 742 1257 z "},"Ŵ":{"ha":1417,"x_min":13,"x_max":1404,"o":"m 13 986 l 225 986 l 415 331 l 619 986 l 796 986 l 999 331 l 1190 986 l 1404 986 l 1097 0 l 917 0 l 708 678 l 500 0 l 319 0 l 13 986 m 621 1257 l 799 1257 l 961 1067 l 788 1067 l 710 1144 l 632 1067 l 458 1067 l 621 1257 z "},"Ẅ":{"ha":1417,"x_min":13,"x_max":1404,"o":"m 13 986 l 225 986 l 415 331 l 619 986 l 796 986 l 999 331 l 1190 986 l 1404 986 l 1097 0 l 917 0 l 708 678 l 500 0 l 319 0 l 13 986 m 522 1056 q 476 1065 497 1056 q 438 1091 454 1075 q 411 1129 421 1107 q 401 1176 401 1151 q 411 1224 401 1201 q 438 1262 421 1246 q 476 1288 454 1278 q 522 1297 497 1297 q 609 1262 574 1297 q 644 1176 644 1226 q 609 1091 644 1126 q 522 1056 574 1056 m 896 1056 q 849 1065 871 1056 q 811 1091 828 1075 q 785 1129 794 1107 q 775 1176 775 1151 q 785 1224 775 1201 q 811 1262 794 1246 q 849 1288 828 1278 q 896 1297 871 1297 q 983 1262 947 1297 q 1018 1176 1018 1226 q 983 1091 1018 1126 q 896 1056 947 1056 z "},"Ẁ":{"ha":1417,"x_min":13,"x_max":1404,"o":"m 13 986 l 225 986 l 415 331 l 619 986 l 796 986 l 999 331 l 1190 986 l 1404 986 l 1097 0 l 917 0 l 708 678 l 500 0 l 319 0 l 13 986 m 636 1067 l 465 1257 l 678 1257 l 778 1067 l 636 1067 z "},"Ŷ":{"ha":958,"x_min":14,"x_max":944,"o":"m 378 415 l 14 986 l 247 986 l 478 613 l 710 986 l 944 986 l 579 414 l 579 0 l 378 0 l 378 415 m 390 1257 l 568 1257 l 731 1067 l 557 1067 l 479 1144 l 401 1067 l 228 1067 l 390 1257 z "},"Ÿ":{"ha":958,"x_min":14,"x_max":944,"o":"m 378 415 l 14 986 l 247 986 l 478 613 l 710 986 l 944 986 l 579 414 l 579 0 l 378 0 l 378 415 m 292 1056 q 245 1065 267 1056 q 207 1091 224 1075 q 181 1129 190 1107 q 171 1176 171 1151 q 181 1224 171 1201 q 207 1262 190 1246 q 245 1288 224 1278 q 292 1297 267 1297 q 378 1262 343 1297 q 414 1176 414 1226 q 378 1091 414 1126 q 292 1056 343 1056 m 665 1056 q 619 1065 640 1056 q 581 1091 597 1075 q 554 1129 564 1107 q 544 1176 544 1151 q 554 1224 544 1201 q 581 1262 564 1246 q 619 1288 597 1278 q 665 1297 640 1297 q 752 1262 717 1297 q 788 1176 788 1226 q 752 1091 788 1126 q 665 1056 717 1056 z "},"Ỳ":{"ha":958,"x_min":14,"x_max":944,"o":"m 378 415 l 14 986 l 247 986 l 478 613 l 710 986 l 944 986 l 579 414 l 579 0 l 378 0 l 378 415 m 406 1067 l 235 1257 l 447 1257 l 547 1067 l 406 1067 z "},"Ȳ":{"ha":958,"x_min":14,"x_max":944,"o":"m 378 415 l 14 986 l 247 986 l 478 613 l 710 986 l 944 986 l 579 414 l 579 0 l 378 0 l 378 415 m 242 1232 l 717 1232 l 717 1099 l 242 1099 l 242 1232 z "},"Ź":{"ha":858,"x_min":53,"x_max":806,"o":"m 53 138 l 524 794 l 61 794 l 61 986 l 796 986 l 796 849 l 322 192 l 806 192 l 806 0 l 53 0 l 53 138 m 463 1257 l 675 1257 l 504 1067 l 363 1067 l 463 1257 z "},"Ž":{"ha":858,"x_min":53,"x_max":806,"o":"m 53 138 l 524 794 l 61 794 l 61 986 l 796 986 l 796 849 l 322 192 l 806 192 l 806 0 l 53 0 l 53 138 m 179 1257 l 353 1257 l 431 1179 l 508 1257 l 682 1257 l 519 1067 l 342 1067 l 179 1257 z "},"Ż":{"ha":858,"x_min":53,"x_max":806,"o":"m 53 138 l 524 794 l 61 794 l 61 986 l 796 986 l 796 849 l 322 192 l 806 192 l 806 0 l 53 0 l 53 138 m 431 1056 q 384 1065 406 1056 q 346 1091 363 1075 q 319 1129 329 1107 q 310 1176 310 1151 q 319 1224 310 1201 q 346 1262 329 1246 q 384 1288 363 1278 q 431 1297 406 1297 q 517 1262 482 1297 q 553 1176 553 1226 q 517 1091 553 1126 q 431 1056 482 1056 z "},"ă":{"ha":850,"x_min":47,"x_max":758,"o":"m 390 -15 q 249 14 313 -15 q 142 93 186 43 q 72 208 97 143 q 47 347 47 274 q 72 485 47 419 q 142 601 97 551 q 249 681 186 651 q 390 710 313 710 q 492 692 447 710 q 568 644 538 674 l 568 694 l 758 694 l 758 0 l 568 0 l 568 51 q 492 3 538 21 q 390 -15 447 -15 m 418 158 q 509 180 474 158 q 568 235 544 201 l 568 461 q 509 515 544 493 q 418 536 474 536 q 347 521 379 536 q 292 480 315 506 q 257 420 269 454 q 244 347 244 386 q 257 274 244 308 q 292 215 269 240 q 347 174 315 189 q 418 158 379 158 m 464 761 q 370 778 414 761 q 293 827 326 796 q 241 903 260 858 q 222 1003 222 949 l 222 1014 l 333 1014 l 333 1003 q 372 905 333 938 q 464 872 411 872 q 556 905 517 872 q 594 1003 594 938 l 594 1014 l 706 1014 l 706 1003 q 687 903 706 949 q 635 827 668 858 q 558 778 601 796 q 464 761 514 761 z "},"ā":{"ha":850,"x_min":47,"x_max":758,"o":"m 390 -15 q 249 14 313 -15 q 142 93 186 43 q 72 208 97 143 q 47 347 47 274 q 72 485 47 419 q 142 601 97 551 q 249 681 186 651 q 390 710 313 710 q 492 692 447 710 q 568 644 538 674 l 568 694 l 758 694 l 758 0 l 568 0 l 568 51 q 492 3 538 21 q 390 -15 447 -15 m 418 158 q 509 180 474 158 q 568 235 544 201 l 568 461 q 509 515 544 493 q 418 536 474 536 q 347 521 379 536 q 292 480 315 506 q 257 420 269 454 q 244 347 244 386 q 257 274 244 308 q 292 215 269 240 q 347 174 315 189 q 418 158 379 158 m 226 986 l 701 986 l 701 851 l 226 851 l 226 986 z "},"ą":{"ha":850,"x_min":47,"x_max":778,"o":"m 390 -15 q 249 14 313 -15 q 142 93 186 43 q 72 208 97 143 q 47 347 47 274 q 72 485 47 419 q 142 601 97 551 q 249 681 186 651 q 390 710 313 710 q 492 692 447 710 q 568 644 538 674 l 568 694 l 758 694 l 758 0 l 568 0 l 568 51 q 492 3 538 21 q 390 -15 447 -15 m 418 158 q 509 180 474 158 q 568 235 544 201 l 568 461 q 509 515 544 493 q 418 536 474 536 q 347 521 379 536 q 292 480 315 506 q 257 420 269 454 q 244 347 244 386 q 257 274 244 308 q 292 215 269 240 q 347 174 315 189 q 418 158 379 158 m 632 -283 q 524 -249 565 -283 q 482 -157 482 -215 q 507 -68 482 -104 q 568 0 532 -32 l 758 0 q 676 -54 704 -28 q 647 -112 647 -81 q 660 -143 647 -135 q 688 -151 672 -151 q 726 -139 706 -151 l 778 -240 q 712 -272 750 -260 q 632 -283 674 -283 z "},"ć":{"ha":775,"x_min":47,"x_max":744,"o":"m 415 -15 q 271 12 338 -15 q 154 88 204 39 q 76 202 104 136 q 47 347 47 268 q 76 492 47 426 q 154 607 104 558 q 271 683 204 656 q 415 710 338 710 q 519 695 469 710 q 612 654 569 681 q 688 591 654 628 q 744 510 722 554 l 579 421 q 516 501 558 469 q 415 532 474 532 q 346 518 378 532 q 290 480 314 504 q 252 422 265 456 q 239 347 239 388 q 252 273 239 307 q 290 215 265 239 q 346 176 314 190 q 415 163 378 163 q 516 194 474 163 q 579 274 558 225 l 744 185 q 688 103 722 140 q 612 40 654 67 q 519 -1 569 14 q 415 -15 469 -15 m 454 1014 l 675 1014 l 482 778 l 340 778 l 454 1014 z "},"č":{"ha":775,"x_min":47,"x_max":744,"o":"m 415 -15 q 271 12 338 -15 q 154 88 204 39 q 76 202 104 136 q 47 347 47 268 q 76 492 47 426 q 154 607 104 558 q 271 683 204 656 q 415 710 338 710 q 519 695 469 710 q 612 654 569 681 q 688 591 654 628 q 744 510 722 554 l 579 421 q 516 501 558 469 q 415 532 474 532 q 346 518 378 532 q 290 480 314 504 q 252 422 265 456 q 239 347 239 388 q 252 273 239 307 q 290 215 265 239 q 346 176 314 190 q 415 163 378 163 q 516 194 474 163 q 579 274 558 225 l 744 185 q 688 103 722 140 q 612 40 654 67 q 519 -1 569 14 q 415 -15 469 -15 m 325 1014 l 415 919 l 506 1014 l 674 1014 l 497 803 l 333 803 l 157 1014 l 325 1014 z "},"ĉ":{"ha":775,"x_min":47,"x_max":744,"o":"m 415 -15 q 271 12 338 -15 q 154 88 204 39 q 76 202 104 136 q 47 347 47 268 q 76 492 47 426 q 154 607 104 558 q 271 683 204 656 q 415 710 338 710 q 519 695 469 710 q 612 654 569 681 q 688 591 654 628 q 744 510 722 554 l 579 421 q 516 501 558 469 q 415 532 474 532 q 346 518 378 532 q 290 480 314 504 q 252 422 265 456 q 239 347 239 388 q 252 273 239 307 q 290 215 265 239 q 346 176 314 190 q 415 163 378 163 q 516 194 474 163 q 579 274 558 225 l 744 185 q 688 103 722 140 q 612 40 654 67 q 519 -1 569 14 q 415 -15 469 -15 m 333 1014 l 497 1014 l 674 803 l 506 803 l 415 896 l 325 803 l 157 803 l 333 1014 z "},"ċ":{"ha":775,"x_min":47,"x_max":744,"o":"m 415 -15 q 271 12 338 -15 q 154 88 204 39 q 76 202 104 136 q 47 347 47 268 q 76 492 47 426 q 154 607 104 558 q 271 683 204 656 q 415 710 338 710 q 519 695 469 710 q 612 654 569 681 q 688 591 654 628 q 744 510 722 554 l 579 421 q 516 501 558 469 q 415 532 474 532 q 346 518 378 532 q 290 480 314 504 q 252 422 265 456 q 239 347 239 388 q 252 273 239 307 q 290 215 265 239 q 346 176 314 190 q 415 163 378 163 q 516 194 474 163 q 579 274 558 225 l 744 185 q 688 103 722 140 q 612 40 654 67 q 519 -1 569 14 q 415 -15 469 -15 m 293 901 q 328 987 293 951 q 415 1022 364 1022 q 462 1013 440 1022 q 500 987 483 1003 q 526 949 517 971 q 536 901 536 926 q 526 854 536 876 q 500 816 517 832 q 462 790 483 800 q 415 781 440 781 q 328 816 364 781 q 293 901 293 851 z "},"ď":{"ha":850,"x_min":47,"x_max":1006,"o":"m 390 -15 q 249 14 313 -15 q 142 93 186 43 q 72 208 97 143 q 47 347 47 274 q 72 485 47 419 q 142 601 97 551 q 249 681 186 651 q 390 710 313 710 q 492 692 447 710 q 568 644 538 674 l 568 1014 l 758 1014 l 758 0 l 568 0 l 568 51 q 492 3 538 21 q 390 -15 447 -15 m 418 158 q 509 180 474 158 q 568 235 544 201 l 568 461 q 509 515 544 493 q 418 536 474 536 q 347 521 379 536 q 292 480 315 506 q 257 420 269 454 q 244 347 244 386 q 257 274 244 308 q 292 215 269 240 q 347 174 315 189 q 418 158 379 158 m 815 1014 l 1006 1014 l 915 790 l 786 790 l 815 1014 z "},"đ":{"ha":850,"x_min":47,"x_max":850,"o":"m 390 -15 q 249 14 313 -15 q 142 93 186 43 q 72 208 97 143 q 47 347 47 274 q 72 485 47 419 q 142 601 97 551 q 249 681 186 651 q 390 710 313 710 q 492 692 447 710 q 568 644 538 674 l 568 1014 l 758 1014 l 758 0 l 568 0 l 568 51 q 492 3 538 21 q 390 -15 447 -15 m 418 158 q 509 180 474 158 q 568 235 544 201 l 568 461 q 509 515 544 493 q 418 536 474 536 q 347 521 379 536 q 292 480 315 506 q 257 420 269 454 q 244 347 244 386 q 257 274 244 308 q 292 215 269 240 q 347 174 315 189 q 418 158 379 158 m 379 788 l 379 913 l 850 913 l 850 788 l 379 788 z "},"ĕ":{"ha":803,"x_min":47,"x_max":754,"o":"m 415 -15 q 270 10 338 -15 q 153 83 203 36 q 76 198 104 131 q 47 347 47 265 q 74 490 47 424 q 151 606 101 557 q 267 682 200 654 q 413 710 333 710 q 542 688 481 710 q 651 624 604 667 q 726 517 699 581 q 754 368 754 453 q 754 340 754 356 q 751 303 754 325 l 232 303 q 253 241 236 268 q 294 196 269 214 q 351 168 319 178 q 417 158 382 158 q 527 184 482 158 q 596 246 572 210 l 738 140 q 607 27 689 69 q 415 -15 525 -15 m 564 432 q 506 524 551 494 q 407 553 460 553 q 353 546 381 553 q 303 524 326 539 q 263 487 281 510 q 239 432 246 464 l 564 432 m 418 761 q 324 778 368 761 q 247 827 281 796 q 195 903 214 858 q 176 1003 176 949 l 176 1014 l 288 1014 l 288 1003 q 326 905 288 938 q 418 872 365 872 q 510 905 471 872 q 549 1003 549 938 l 549 1014 l 660 1014 l 660 1003 q 641 903 660 949 q 589 827 622 858 q 512 778 556 796 q 418 761 468 761 z "},"ě":{"ha":803,"x_min":47,"x_max":754,"o":"m 415 -15 q 270 10 338 -15 q 153 83 203 36 q 76 198 104 131 q 47 347 47 265 q 74 490 47 424 q 151 606 101 557 q 267 682 200 654 q 413 710 333 710 q 542 688 481 710 q 651 624 604 667 q 726 517 699 581 q 754 368 754 453 q 754 340 754 356 q 751 303 754 325 l 232 303 q 253 241 236 268 q 294 196 269 214 q 351 168 319 178 q 417 158 382 158 q 527 184 482 158 q 596 246 572 210 l 738 140 q 607 27 689 69 q 415 -15 525 -15 m 564 432 q 506 524 551 494 q 407 553 460 553 q 353 546 381 553 q 303 524 326 539 q 263 487 281 510 q 239 432 246 464 l 564 432 m 328 1014 l 418 919 l 508 1014 l 676 1014 l 500 803 l 336 803 l 160 1014 l 328 1014 z "},"ē":{"ha":803,"x_min":47,"x_max":754,"o":"m 415 -15 q 270 10 338 -15 q 153 83 203 36 q 76 198 104 131 q 47 347 47 265 q 74 490 47 424 q 151 606 101 557 q 267 682 200 654 q 413 710 333 710 q 542 688 481 710 q 651 624 604 667 q 726 517 699 581 q 754 368 754 453 q 754 340 754 356 q 751 303 754 325 l 232 303 q 253 241 236 268 q 294 196 269 214 q 351 168 319 178 q 417 158 382 158 q 527 184 482 158 q 596 246 572 210 l 738 140 q 607 27 689 69 q 415 -15 525 -15 m 564 432 q 506 524 551 494 q 407 553 460 553 q 353 546 381 553 q 303 524 326 539 q 263 487 281 510 q 239 432 246 464 l 564 432 m 181 986 l 656 986 l 656 851 l 181 851 l 181 986 z "},"ę":{"ha":803,"x_min":47,"x_max":756,"o":"m 603 -283 q 491 -245 532 -283 q 450 -144 450 -207 q 478 -60 450 -100 q 536 3 506 -21 q 478 -11 510 -7 q 415 -15 446 -15 q 270 10 338 -15 q 153 83 203 36 q 76 198 104 131 q 47 347 47 265 q 74 490 47 424 q 151 606 101 557 q 267 682 200 654 q 413 710 333 710 q 542 688 481 710 q 651 624 604 667 q 726 517 699 581 q 754 368 754 453 q 754 340 754 356 q 751 303 754 325 l 232 303 q 253 241 236 268 q 294 196 269 214 q 351 168 319 178 q 417 158 382 158 q 527 184 482 158 q 596 246 572 210 l 738 140 q 694 84 717 114 q 655 24 672 54 q 626 -37 638 -7 q 614 -96 614 -68 q 630 -137 614 -124 q 665 -151 646 -151 q 704 -139 681 -151 l 756 -240 q 686 -272 728 -260 q 603 -283 644 -283 m 407 553 q 353 546 381 553 q 303 524 326 539 q 263 487 281 510 q 239 432 246 464 l 564 432 q 506 524 551 494 q 407 553 460 553 z "},"ė":{"ha":803,"x_min":47,"x_max":754,"o":"m 415 -15 q 270 10 338 -15 q 153 83 203 36 q 76 198 104 131 q 47 347 47 265 q 74 490 47 424 q 151 606 101 557 q 267 682 200 654 q 413 710 333 710 q 542 688 481 710 q 651 624 604 667 q 726 517 699 581 q 754 368 754 453 q 754 340 754 356 q 751 303 754 325 l 232 303 q 253 241 236 268 q 294 196 269 214 q 351 168 319 178 q 417 158 382 158 q 527 184 482 158 q 596 246 572 210 l 738 140 q 607 27 689 69 q 415 -15 525 -15 m 564 432 q 506 524 551 494 q 407 553 460 553 q 353 546 381 553 q 303 524 326 539 q 263 487 281 510 q 239 432 246 464 l 564 432 m 296 901 q 331 987 296 951 q 418 1022 367 1022 q 465 1013 443 1022 q 503 987 486 1003 q 529 949 519 971 q 539 901 539 926 q 529 854 539 876 q 503 816 519 832 q 465 790 486 800 q 418 781 443 781 q 331 816 367 781 q 296 901 296 851 z "},"ğ":{"ha":856,"x_min":47,"x_max":764,"o":"m 400 -283 q 233 -260 314 -283 q 93 -186 151 -236 l 197 -44 q 293 -99 242 -82 q 397 -117 344 -117 q 460 -108 429 -117 q 517 -80 492 -99 q 558 -32 542 -61 q 574 38 574 -3 l 574 81 q 498 32 543 50 q 394 14 453 14 q 256 41 319 14 q 145 115 192 68 q 73 224 99 161 q 47 361 47 288 q 74 497 47 433 q 147 608 100 561 q 256 683 193 656 q 394 710 319 710 q 498 692 453 710 q 574 644 543 674 l 574 694 l 764 694 l 764 39 q 732 -115 764 -53 q 648 -214 700 -176 q 531 -267 596 -251 q 400 -283 465 -283 m 424 186 q 515 208 479 186 q 574 264 550 231 l 574 461 q 515 515 550 493 q 424 536 479 536 q 295 488 346 536 q 244 361 244 439 q 258 291 244 324 q 295 235 271 258 q 352 199 319 213 q 424 186 385 186 m 431 761 q 337 778 381 761 q 260 827 293 796 q 208 903 226 858 q 189 1003 189 949 l 189 1014 l 300 1014 l 300 1003 q 339 905 300 938 q 431 872 378 872 q 522 905 483 872 q 561 1003 561 938 l 561 1014 l 672 1014 l 672 1003 q 653 903 672 949 q 601 827 635 858 q 524 778 568 796 q 431 761 481 761 z "},"ĝ":{"ha":856,"x_min":47,"x_max":764,"o":"m 400 -283 q 233 -260 314 -283 q 93 -186 151 -236 l 197 -44 q 293 -99 242 -82 q 397 -117 344 -117 q 460 -108 429 -117 q 517 -80 492 -99 q 558 -32 542 -61 q 574 38 574 -3 l 574 81 q 498 32 543 50 q 394 14 453 14 q 256 41 319 14 q 145 115 192 68 q 73 224 99 161 q 47 361 47 288 q 74 497 47 433 q 147 608 100 561 q 256 683 193 656 q 394 710 319 710 q 498 692 453 710 q 574 644 543 674 l 574 694 l 764 694 l 764 39 q 732 -115 764 -53 q 648 -214 700 -176 q 531 -267 596 -251 q 400 -283 465 -283 m 424 186 q 515 208 479 186 q 574 264 550 231 l 574 461 q 515 515 550 493 q 424 536 479 536 q 295 488 346 536 q 244 361 244 439 q 258 291 244 324 q 295 235 271 258 q 352 199 319 213 q 424 186 385 186 m 349 1014 l 513 1014 l 689 803 l 521 803 l 431 896 l 340 803 l 172 803 l 349 1014 z "},"ģ":{"ha":856,"x_min":47,"x_max":764,"o":"m 400 -283 q 233 -260 314 -283 q 93 -186 151 -236 l 197 -44 q 293 -99 242 -82 q 397 -117 344 -117 q 460 -108 429 -117 q 517 -80 492 -99 q 558 -32 542 -61 q 574 38 574 -3 l 574 81 q 498 32 543 50 q 394 14 453 14 q 256 41 319 14 q 145 115 192 68 q 73 224 99 161 q 47 361 47 288 q 74 497 47 433 q 147 608 100 561 q 256 683 193 656 q 394 710 319 710 q 498 692 453 710 q 574 644 543 674 l 574 694 l 764 694 l 764 39 q 732 -115 764 -53 q 648 -214 700 -176 q 531 -267 596 -251 q 400 -283 465 -283 m 424 186 q 515 208 479 186 q 574 264 550 231 l 574 461 q 515 515 550 493 q 424 536 479 536 q 295 488 346 536 q 244 361 244 439 q 258 291 244 324 q 295 235 271 258 q 352 199 319 213 q 424 186 385 186 m 475 1014 q 532 971 510 1001 q 554 901 554 940 q 544 854 554 876 q 518 816 535 832 q 480 790 501 800 q 433 781 458 781 q 347 816 382 781 q 311 901 311 851 q 317 942 311 921 q 335 978 324 963 l 447 1133 l 536 1133 l 475 1014 z "},"ġ":{"ha":856,"x_min":47,"x_max":764,"o":"m 400 -283 q 233 -260 314 -283 q 93 -186 151 -236 l 197 -44 q 293 -99 242 -82 q 397 -117 344 -117 q 460 -108 429 -117 q 517 -80 492 -99 q 558 -32 542 -61 q 574 38 574 -3 l 574 81 q 498 32 543 50 q 394 14 453 14 q 256 41 319 14 q 145 115 192 68 q 73 224 99 161 q 47 361 47 288 q 74 497 47 433 q 147 608 100 561 q 256 683 193 656 q 394 710 319 710 q 498 692 453 710 q 574 644 543 674 l 574 694 l 764 694 l 764 39 q 732 -115 764 -53 q 648 -214 700 -176 q 531 -267 596 -251 q 400 -283 465 -283 m 424 186 q 515 208 479 186 q 574 264 550 231 l 574 461 q 515 515 550 493 q 424 536 479 536 q 295 488 346 536 q 244 361 244 439 q 258 291 244 324 q 295 235 271 258 q 352 199 319 213 q 424 186 385 186 m 308 901 q 344 987 308 951 q 431 1022 379 1022 q 477 1013 456 1022 q 515 987 499 1003 q 542 949 532 971 q 551 901 551 926 q 542 854 551 876 q 515 816 532 832 q 477 790 499 800 q 431 781 456 781 q 344 816 379 781 q 308 901 308 851 z "},"ħ":{"ha":832,"x_min":6,"x_max":749,"o":"m 92 0 l 92 1014 l 282 1014 l 282 636 q 364 691 315 672 q 471 710 413 710 q 588 688 536 710 q 676 625 640 665 q 730 528 711 585 q 749 403 749 472 l 749 0 l 558 0 l 558 371 q 526 491 558 446 q 429 536 494 536 q 342 514 381 536 q 282 457 304 492 l 282 0 l 92 0 m 6 788 l 6 913 l 476 913 l 476 788 l 6 788 z "},"ĥ":{"ha":832,"x_min":92,"x_max":749,"o":"m 92 0 l 92 1014 l 282 1014 l 282 636 q 364 691 315 672 q 471 710 413 710 q 588 688 536 710 q 676 625 640 665 q 730 528 711 585 q 749 403 749 472 l 749 0 l 558 0 l 558 371 q 526 491 558 446 q 429 536 494 536 q 342 514 381 536 q 282 457 304 492 l 282 0 l 92 0 m 364 1257 l 542 1257 l 704 1067 l 531 1067 l 453 1144 l 375 1067 l 201 1067 l 364 1257 z "},"ı":{"ha":374,"x_min":92,"x_max":282,"o":"m 92 694 l 282 694 l 282 0 l 92 0 l 92 694 z "},"ĭ":{"ha":374,"x_min":-54,"x_max":429,"o":"m 92 694 l 282 694 l 282 0 l 92 0 l 92 694 m 188 761 q 94 778 138 761 q 17 827 50 796 q -35 903 -17 858 q -54 1003 -54 949 l -54 1014 l 57 1014 l 57 1003 q 96 905 57 938 q 188 872 135 872 q 279 905 240 872 q 318 1003 318 938 l 318 1014 l 429 1014 l 429 1003 q 410 903 429 949 q 358 827 392 858 q 281 778 325 796 q 188 761 238 761 z "},"ī":{"ha":374,"x_min":-50,"x_max":425,"o":"m 92 694 l 282 694 l 282 0 l 92 0 l 92 694 m -50 986 l 425 986 l 425 851 l -50 851 l -50 986 z "},"į":{"ha":374,"x_min":7,"x_max":308,"o":"m 186 781 q 140 790 161 781 q 101 816 118 800 q 75 854 85 832 q 65 901 65 876 q 75 949 65 926 q 101 987 85 971 q 140 1013 118 1003 q 186 1022 161 1022 q 273 987 238 1022 q 308 901 308 951 q 273 816 308 851 q 186 781 238 781 m 92 694 l 282 694 l 282 0 l 92 0 l 92 694 m 157 -283 q 49 -249 90 -283 q 7 -157 7 -215 q 32 -68 7 -104 q 93 0 57 -32 l 283 0 q 201 -54 229 -28 q 172 -112 172 -81 q 185 -143 172 -135 q 213 -151 197 -151 q 251 -139 231 -151 l 303 -240 q 237 -272 275 -260 q 157 -283 199 -283 z "},"ĩ":{"ha":374,"x_min":-75,"x_max":449,"o":"m 92 694 l 282 694 l 282 0 l 92 0 l 92 694 m -69 829 q -10 944 -58 904 q 94 985 38 985 q 152 975 125 985 q 201 953 179 965 q 242 931 224 940 q 278 921 261 921 q 318 938 306 921 q 339 986 331 954 l 449 986 l 443 950 q 384 835 432 875 q 279 794 336 794 q 221 804 247 794 q 172 826 194 814 q 131 849 150 839 q 96 858 113 858 q 56 842 68 858 q 35 793 43 825 l -75 793 l -69 829 z "},"ị":{"ha":374,"x_min":65,"x_max":308,"o":"m 186 781 q 140 790 161 781 q 101 816 118 800 q 75 854 85 832 q 65 901 65 876 q 75 949 65 926 q 101 987 85 971 q 140 1013 118 1003 q 186 1022 161 1022 q 273 987 238 1022 q 308 901 308 951 q 273 816 308 851 q 186 781 238 781 m 92 694 l 282 694 l 282 0 l 92 0 l 92 694 m 186 -336 q 140 -326 161 -336 q 101 -301 118 -317 q 75 -262 85 -285 q 65 -215 65 -240 q 75 -168 65 -190 q 101 -130 85 -146 q 140 -104 118 -114 q 186 -94 161 -94 q 273 -130 238 -94 q 308 -215 308 -165 q 273 -301 308 -265 q 186 -336 238 -336 z "},"ȷ":{"ha":385,"x_min":-119,"x_max":293,"o":"m 38 -276 q -8 -274 15 -276 q -53 -267 -32 -271 q -92 -257 -74 -262 q -119 -246 -110 -251 l -76 -90 q 13 -111 -33 -111 q 78 -85 53 -111 q 103 6 103 -58 l 103 694 l 293 694 l 293 -25 q 273 -136 293 -89 q 219 -215 253 -183 q 138 -261 185 -246 q 38 -276 92 -276 z "},"ĵ":{"ha":385,"x_min":-119,"x_max":458,"o":"m 38 -276 q -8 -274 15 -276 q -53 -267 -32 -271 q -92 -257 -74 -262 q -119 -246 -110 -251 l -76 -90 q 13 -111 -33 -111 q 78 -85 53 -111 q 103 6 103 -58 l 103 694 l 293 694 l 293 -25 q 273 -136 293 -89 q 219 -215 253 -183 q 138 -261 185 -246 q 38 -276 92 -276 m 118 1014 l 282 1014 l 458 803 l 290 803 l 200 896 l 110 803 l -58 803 l 118 1014 z "},"ķ":{"ha":772,"x_min":92,"x_max":800,"o":"m 282 319 l 282 0 l 92 0 l 92 1014 l 282 1014 l 282 439 l 507 694 l 736 694 l 461 382 l 800 0 l 565 0 l 282 319 m 321 -447 l 382 -328 q 325 -285 347 -315 q 303 -215 303 -254 q 313 -168 303 -190 q 339 -130 322 -146 q 377 -104 356 -114 q 424 -94 399 -94 q 510 -130 475 -94 q 546 -215 546 -165 q 540 -256 546 -235 q 522 -292 533 -276 l 410 -447 l 321 -447 z "},"ĺ":{"ha":374,"x_min":92,"x_max":447,"o":"m 92 1014 l 282 1014 l 282 0 l 92 0 l 92 1014 m 226 1333 l 447 1333 l 254 1097 l 113 1097 l 226 1333 z "},"ľ":{"ha":374,"x_min":92,"x_max":529,"o":"m 92 1014 l 282 1014 l 282 0 l 92 0 l 92 1014 m 339 1014 l 529 1014 l 439 790 l 310 790 l 339 1014 z "},"ļ":{"ha":374,"x_min":67,"x_max":310,"o":"m 92 1014 l 282 1014 l 282 0 l 92 0 l 92 1014 m 85 -447 l 146 -328 q 89 -285 111 -315 q 67 -215 67 -254 q 76 -168 67 -190 q 103 -130 86 -146 q 141 -104 119 -114 q 188 -94 163 -94 q 274 -130 239 -94 q 310 -215 310 -165 q 303 -256 310 -235 q 286 -292 297 -276 l 174 -447 l 85 -447 z "},"ŀ":{"ha":561,"x_min":92,"x_max":589,"o":"m 92 1014 l 282 1014 l 282 0 l 92 0 l 92 1014 m 467 468 q 420 478 442 468 q 382 503 399 488 q 356 542 365 519 q 346 589 346 564 q 356 636 346 614 q 382 674 365 658 q 420 700 399 690 q 467 710 442 710 q 553 674 518 710 q 589 589 589 639 q 553 503 589 539 q 467 468 518 468 z "},"ł":{"ha":486,"x_min":46,"x_max":442,"o":"m 149 1014 l 339 1014 l 339 0 l 149 0 l 149 1014 m 46 328 l 46 476 l 442 710 l 442 560 l 46 328 z "},"ń":{"ha":832,"x_min":92,"x_max":749,"o":"m 92 694 l 282 694 l 282 636 q 364 691 315 672 q 471 710 413 710 q 588 688 536 710 q 676 625 640 665 q 730 528 711 585 q 749 403 749 472 l 749 0 l 558 0 l 558 371 q 526 491 558 446 q 429 536 494 536 q 342 514 381 536 q 282 457 304 492 l 282 0 l 92 0 l 92 694 m 458 1014 l 679 1014 l 486 778 l 344 778 l 458 1014 z "},"ň":{"ha":832,"x_min":92,"x_max":749,"o":"m 92 694 l 282 694 l 282 636 q 364 691 315 672 q 471 710 413 710 q 588 688 536 710 q 676 625 640 665 q 730 528 711 585 q 749 403 749 472 l 749 0 l 558 0 l 558 371 q 526 491 558 446 q 429 536 494 536 q 342 514 381 536 q 282 457 304 492 l 282 0 l 92 0 l 92 694 m 329 1014 l 419 919 l 510 1014 l 678 1014 l 501 803 l 338 803 l 161 1014 l 329 1014 z "},"ņ":{"ha":832,"x_min":92,"x_max":749,"o":"m 92 694 l 282 694 l 282 636 q 364 691 315 672 q 471 710 413 710 q 588 688 536 710 q 676 625 640 665 q 730 528 711 585 q 749 403 749 472 l 749 0 l 558 0 l 558 371 q 526 491 558 446 q 429 536 494 536 q 342 514 381 536 q 282 457 304 492 l 282 0 l 92 0 l 92 694 m 317 -447 l 378 -328 q 321 -285 343 -315 q 299 -215 299 -254 q 308 -168 299 -190 q 335 -130 318 -146 q 373 -104 351 -114 q 419 -94 394 -94 q 506 -130 471 -94 q 542 -215 542 -165 q 535 -256 542 -235 q 518 -292 529 -276 l 406 -447 l 317 -447 z "},"œ":{"ha":1339,"x_min":46,"x_max":1290,"o":"m 951 -15 q 797 14 868 -15 q 676 97 726 43 q 558 15 626 44 q 411 -15 490 -15 q 269 13 336 -15 q 153 90 203 40 q 74 205 103 139 q 46 347 46 271 q 74 490 46 424 q 153 604 103 556 q 269 681 203 653 q 411 710 336 710 q 559 679 490 710 q 678 596 628 649 q 796 679 726 649 q 949 710 865 710 q 1078 688 1017 710 q 1188 624 1140 667 q 1263 517 1235 581 q 1290 368 1290 453 q 1290 340 1290 356 q 1288 303 1290 325 l 769 303 q 790 241 774 268 q 831 196 806 214 q 887 168 856 178 q 953 158 918 158 q 1065 184 1019 158 q 1132 246 1110 210 l 1275 140 q 1144 27 1226 69 q 951 -15 1061 -15 m 411 163 q 480 176 449 163 q 534 215 511 190 q 570 273 557 239 q 583 347 583 307 q 570 422 583 388 q 534 480 557 456 q 480 518 511 504 q 411 532 449 532 q 342 518 374 532 q 287 480 310 504 q 251 422 264 456 q 238 347 238 388 q 251 273 238 307 q 287 215 264 239 q 342 176 310 190 q 411 163 374 163 m 943 553 q 890 546 917 553 q 840 524 863 539 q 799 487 817 510 q 775 432 782 464 l 1101 432 q 1042 524 1088 494 q 943 553 996 553 z "},"ŏ":{"ha":822,"x_min":46,"x_max":776,"o":"m 411 -15 q 269 13 336 -15 q 153 90 203 40 q 74 205 103 139 q 46 347 46 271 q 74 490 46 424 q 153 604 103 556 q 269 681 203 653 q 411 710 336 710 q 553 681 486 710 q 669 604 619 653 q 748 490 719 556 q 776 347 776 424 q 748 205 776 271 q 669 90 719 139 q 553 13 619 40 q 411 -15 486 -15 m 411 163 q 480 176 449 163 q 534 215 511 190 q 570 273 557 239 q 583 347 583 307 q 570 422 583 388 q 534 480 557 456 q 480 518 511 504 q 411 532 449 532 q 342 518 374 532 q 287 480 310 504 q 251 422 264 456 q 238 347 238 388 q 251 273 238 307 q 287 215 264 239 q 342 176 310 190 q 411 163 374 163 m 411 761 q 317 778 361 761 q 240 827 274 796 q 188 903 207 858 q 169 1003 169 949 l 169 1014 l 281 1014 l 281 1003 q 319 905 281 938 q 411 872 358 872 q 503 905 464 872 q 542 1003 542 938 l 542 1014 l 653 1014 l 653 1003 q 634 903 653 949 q 582 827 615 858 q 505 778 549 796 q 411 761 461 761 z "},"ő":{"ha":822,"x_min":46,"x_max":776,"o":"m 411 -15 q 269 13 336 -15 q 153 90 203 40 q 74 205 103 139 q 46 347 46 271 q 74 490 46 424 q 153 604 103 556 q 269 681 203 653 q 411 710 336 710 q 553 681 486 710 q 669 604 619 653 q 748 490 719 556 q 776 347 776 424 q 748 205 776 271 q 669 90 719 139 q 553 13 619 40 q 411 -15 486 -15 m 411 163 q 480 176 449 163 q 534 215 511 190 q 570 273 557 239 q 583 347 583 307 q 570 422 583 388 q 534 480 557 456 q 480 518 511 504 q 411 532 449 532 q 342 518 374 532 q 287 480 310 504 q 251 422 264 456 q 238 347 238 388 q 251 273 238 307 q 287 215 264 239 q 342 176 310 190 q 411 163 374 163 m 306 1014 l 510 1014 l 358 778 l 233 778 l 306 1014 m 563 1014 l 767 1014 l 615 778 l 490 778 l 563 1014 z "},"ō":{"ha":822,"x_min":46,"x_max":776,"o":"m 411 -15 q 269 13 336 -15 q 153 90 203 40 q 74 205 103 139 q 46 347 46 271 q 74 490 46 424 q 153 604 103 556 q 269 681 203 653 q 411 710 336 710 q 553 681 486 710 q 669 604 619 653 q 748 490 719 556 q 776 347 776 424 q 748 205 776 271 q 669 90 719 139 q 553 13 619 40 q 411 -15 486 -15 m 411 163 q 480 176 449 163 q 534 215 511 190 q 570 273 557 239 q 583 347 583 307 q 570 422 583 388 q 534 480 557 456 q 480 518 511 504 q 411 532 449 532 q 342 518 374 532 q 287 480 310 504 q 251 422 264 456 q 238 347 238 388 q 251 273 238 307 q 287 215 264 239 q 342 176 310 190 q 411 163 374 163 m 174 986 l 649 986 l 649 851 l 174 851 l 174 986 z "},"ọ":{"ha":822,"x_min":46,"x_max":776,"o":"m 411 -15 q 269 13 336 -15 q 153 90 203 40 q 74 205 103 139 q 46 347 46 271 q 74 490 46 424 q 153 604 103 556 q 269 681 203 653 q 411 710 336 710 q 553 681 486 710 q 669 604 619 653 q 748 490 719 556 q 776 347 776 424 q 748 205 776 271 q 669 90 719 139 q 553 13 619 40 q 411 -15 486 -15 m 411 163 q 480 176 449 163 q 534 215 511 190 q 570 273 557 239 q 583 347 583 307 q 570 422 583 388 q 534 480 557 456 q 480 518 511 504 q 411 532 449 532 q 342 518 374 532 q 287 480 310 504 q 251 422 264 456 q 238 347 238 388 q 251 273 238 307 q 287 215 264 239 q 342 176 310 190 q 411 163 374 163 m 410 -336 q 363 -326 385 -336 q 325 -301 342 -317 q 299 -262 308 -285 q 289 -215 289 -240 q 299 -168 289 -190 q 325 -130 308 -146 q 363 -104 342 -114 q 410 -94 385 -94 q 497 -130 461 -94 q 532 -215 532 -165 q 497 -301 532 -265 q 410 -336 461 -336 z "},"ŕ":{"ha":538,"x_min":92,"x_max":564,"o":"m 92 694 l 282 694 l 282 611 q 344 676 300 649 q 443 703 389 703 q 491 699 469 703 q 524 690 513 694 l 494 511 q 472 517 488 514 q 436 519 457 519 q 351 501 396 519 q 282 442 307 483 l 282 0 l 92 0 l 92 694 m 343 1014 l 564 1014 l 371 778 l 229 778 l 343 1014 z "},"ř":{"ha":538,"x_min":46,"x_max":563,"o":"m 92 694 l 282 694 l 282 611 q 344 676 300 649 q 443 703 389 703 q 491 699 469 703 q 524 690 513 694 l 494 511 q 472 517 488 514 q 436 519 457 519 q 351 501 396 519 q 282 442 307 483 l 282 0 l 92 0 l 92 694 m 214 1014 l 304 919 l 394 1014 l 563 1014 l 386 803 l 222 803 l 46 1014 l 214 1014 z "},"ŗ":{"ha":538,"x_min":65,"x_max":524,"o":"m 92 694 l 282 694 l 282 611 q 344 676 300 649 q 443 703 389 703 q 491 699 469 703 q 524 690 513 694 l 494 511 q 472 517 488 514 q 436 519 457 519 q 351 501 396 519 q 282 442 307 483 l 282 0 l 92 0 l 92 694 m 83 -447 l 144 -328 q 88 -285 110 -315 q 65 -215 65 -254 q 75 -168 65 -190 q 101 -130 85 -146 q 140 -104 118 -114 q 186 -94 161 -94 q 273 -130 238 -94 q 308 -215 308 -165 q 302 -256 308 -235 q 285 -292 296 -276 l 172 -447 l 83 -447 z "},"ś":{"ha":638,"x_min":39,"x_max":589,"o":"m 325 -15 q 158 17 233 -15 q 39 118 83 50 l 169 229 q 234 169 193 190 q 325 149 275 149 q 378 160 354 149 q 401 199 401 172 q 383 235 401 221 q 308 265 365 250 l 257 278 q 112 361 161 303 q 65 500 63 419 q 87 586 67 547 q 142 653 107 625 q 224 695 176 681 q 326 710 271 710 q 567 593 486 710 l 442 492 q 324 553 393 553 q 276 541 299 553 q 254 506 254 529 q 266 474 254 490 q 322 446 278 457 l 388 426 q 535 351 481 401 q 589 211 589 301 q 569 119 589 161 q 513 48 549 78 q 429 1 478 18 q 325 -15 381 -15 m 360 1014 l 581 1014 l 388 778 l 246 778 l 360 1014 z "},"š":{"ha":638,"x_min":39,"x_max":589,"o":"m 325 -15 q 158 17 233 -15 q 39 118 83 50 l 169 229 q 234 169 193 190 q 325 149 275 149 q 378 160 354 149 q 401 199 401 172 q 383 235 401 221 q 308 265 365 250 l 257 278 q 112 361 161 303 q 65 500 63 419 q 87 586 67 547 q 142 653 107 625 q 224 695 176 681 q 326 710 271 710 q 567 593 486 710 l 442 492 q 324 553 393 553 q 276 541 299 553 q 254 506 254 529 q 266 474 254 490 q 322 446 278 457 l 388 426 q 535 351 481 401 q 589 211 589 301 q 569 119 589 161 q 513 48 549 78 q 429 1 478 18 q 325 -15 381 -15 m 231 1014 l 321 919 l 411 1014 l 579 1014 l 403 803 l 239 803 l 63 1014 l 231 1014 z "},"ş":{"ha":638,"x_min":39,"x_max":589,"o":"m 325 -15 q 158 17 233 -15 q 39 118 83 50 l 169 229 q 234 169 193 190 q 325 149 275 149 q 378 160 354 149 q 401 199 401 172 q 383 235 401 221 q 308 265 365 250 l 257 278 q 112 361 161 303 q 65 500 63 419 q 87 586 67 547 q 142 653 107 625 q 224 695 176 681 q 326 710 271 710 q 567 593 486 710 l 442 492 q 324 553 393 553 q 276 541 299 553 q 254 506 254 529 q 266 474 254 490 q 322 446 278 457 l 388 426 q 535 351 481 401 q 589 211 589 301 q 569 119 589 161 q 513 48 549 78 q 429 1 478 18 q 325 -15 381 -15 m 174 -176 q 268 -199 217 -199 q 290 -197 278 -199 q 313 -192 303 -196 q 331 -180 324 -187 q 339 -160 339 -172 q 324 -133 339 -140 q 292 -125 310 -125 q 258 -130 274 -125 q 232 -142 243 -135 l 183 -114 l 254 4 l 340 4 l 300 -62 q 326 -51 310 -56 q 363 -47 343 -47 q 442 -76 410 -47 q 475 -151 475 -106 q 460 -206 475 -182 q 419 -248 444 -231 q 359 -274 393 -265 q 289 -283 325 -283 q 222 -279 257 -283 q 154 -261 186 -275 l 174 -176 z "},"ŝ":{"ha":638,"x_min":39,"x_max":589,"o":"m 325 -15 q 158 17 233 -15 q 39 118 83 50 l 169 229 q 234 169 193 190 q 325 149 275 149 q 378 160 354 149 q 401 199 401 172 q 383 235 401 221 q 308 265 365 250 l 257 278 q 112 361 161 303 q 65 500 63 419 q 87 586 67 547 q 142 653 107 625 q 224 695 176 681 q 326 710 271 710 q 567 593 486 710 l 442 492 q 324 553 393 553 q 276 541 299 553 q 254 506 254 529 q 266 474 254 490 q 322 446 278 457 l 388 426 q 535 351 481 401 q 589 211 589 301 q 569 119 589 161 q 513 48 549 78 q 429 1 478 18 q 325 -15 381 -15 m 239 1014 l 403 1014 l 579 803 l 411 803 l 321 896 l 231 803 l 63 803 l 239 1014 z "},"ș":{"ha":638,"x_min":39,"x_max":589,"o":"m 325 -15 q 158 17 233 -15 q 39 118 83 50 l 169 229 q 234 169 193 190 q 325 149 275 149 q 378 160 354 149 q 401 199 401 172 q 383 235 401 221 q 308 265 365 250 l 257 278 q 112 361 161 303 q 65 500 63 419 q 87 586 67 547 q 142 653 107 625 q 224 695 176 681 q 326 710 271 710 q 567 593 486 710 l 442 492 q 324 553 393 553 q 276 541 299 553 q 254 506 254 529 q 266 474 254 490 q 322 446 278 457 l 388 426 q 535 351 481 401 q 589 211 589 301 q 569 119 589 161 q 513 48 549 78 q 429 1 478 18 q 325 -15 381 -15 m 208 -447 l 269 -328 q 213 -285 235 -315 q 190 -215 190 -254 q 200 -168 190 -190 q 226 -130 210 -146 q 265 -104 243 -114 q 311 -94 286 -94 q 398 -130 363 -94 q 433 -215 433 -165 q 427 -256 433 -235 q 410 -292 421 -276 l 297 -447 l 208 -447 z "},"ť":{"ha":644,"x_min":19,"x_max":636,"o":"m 457 -8 q 349 7 399 -8 q 264 53 300 22 q 208 132 228 85 q 188 243 188 179 l 188 528 l 19 528 l 19 694 l 188 694 l 188 903 l 378 903 l 378 694 l 588 694 l 588 528 l 378 528 l 378 281 q 404 190 378 217 q 483 164 431 164 q 538 172 511 164 q 579 188 564 179 l 636 32 q 560 5 611 18 q 457 -8 510 -8 m 435 986 l 625 986 l 535 763 l 406 763 l 435 986 z "},"ţ":{"ha":644,"x_min":19,"x_max":636,"o":"m 457 -8 q 349 7 399 -8 q 264 53 300 22 q 208 132 228 85 q 188 243 188 179 l 188 528 l 19 528 l 19 694 l 188 694 l 188 903 l 378 903 l 378 694 l 588 694 l 588 528 l 378 528 l 378 281 q 404 190 378 217 q 483 164 431 164 q 538 172 511 164 q 579 188 564 179 l 636 32 q 560 5 611 18 q 457 -8 510 -8 m 314 -447 l 375 -328 q 318 -285 340 -315 q 296 -215 296 -254 q 306 -168 296 -190 q 332 -130 315 -146 q 370 -104 349 -114 q 417 -94 392 -94 q 503 -130 468 -94 q 539 -215 539 -165 q 533 -256 539 -235 q 515 -292 526 -276 l 403 -447 l 314 -447 z "},"ț":{"ha":644,"x_min":19,"x_max":636,"o":"m 457 -8 q 349 7 399 -8 q 264 53 300 22 q 208 132 228 85 q 188 243 188 179 l 188 528 l 19 528 l 19 694 l 188 694 l 188 903 l 378 903 l 378 694 l 588 694 l 588 528 l 378 528 l 378 281 q 404 190 378 217 q 483 164 431 164 q 538 172 511 164 q 579 188 564 179 l 636 32 q 560 5 611 18 q 457 -8 510 -8 m 314 -447 l 375 -328 q 318 -285 340 -315 q 296 -215 296 -254 q 306 -168 296 -190 q 332 -130 315 -146 q 370 -104 349 -114 q 417 -94 392 -94 q 503 -130 468 -94 q 539 -215 539 -165 q 533 -256 539 -235 q 515 -292 526 -276 l 403 -447 l 314 -447 z "},"ŭ":{"ha":817,"x_min":83,"x_max":725,"o":"m 725 0 l 535 0 l 535 56 q 455 3 501 21 q 364 -15 408 -15 q 245 7 297 -15 q 157 69 193 29 q 102 166 121 110 q 83 292 83 222 l 83 694 l 274 694 l 274 324 q 305 203 274 249 q 404 158 336 158 q 476 180 440 158 q 535 238 511 201 l 535 694 l 725 694 l 725 0 m 404 761 q 310 778 354 761 q 233 827 267 796 q 181 903 200 858 q 163 1003 163 949 l 163 1014 l 274 1014 l 274 1003 q 313 905 274 938 q 404 872 351 872 q 496 905 457 872 q 535 1003 535 938 l 535 1014 l 646 1014 l 646 1003 q 627 903 646 949 q 575 827 608 858 q 498 778 542 796 q 404 761 454 761 z "},"ű":{"ha":817,"x_min":83,"x_max":760,"o":"m 725 0 l 535 0 l 535 56 q 455 3 501 21 q 364 -15 408 -15 q 245 7 297 -15 q 157 69 193 29 q 102 166 121 110 q 83 292 83 222 l 83 694 l 274 694 l 274 324 q 305 203 274 249 q 404 158 336 158 q 476 180 440 158 q 535 238 511 201 l 535 694 l 725 694 l 725 0 m 299 1014 l 503 1014 l 351 778 l 226 778 l 299 1014 m 556 1014 l 760 1014 l 608 778 l 483 778 l 556 1014 z "},"ū":{"ha":817,"x_min":83,"x_max":725,"o":"m 725 0 l 535 0 l 535 56 q 455 3 501 21 q 364 -15 408 -15 q 245 7 297 -15 q 157 69 193 29 q 102 166 121 110 q 83 292 83 222 l 83 694 l 274 694 l 274 324 q 305 203 274 249 q 404 158 336 158 q 476 180 440 158 q 535 238 511 201 l 535 694 l 725 694 l 725 0 m 167 986 l 642 986 l 642 851 l 167 851 l 167 986 z "},"ų":{"ha":817,"x_min":83,"x_max":746,"o":"m 725 0 l 535 0 l 535 56 q 455 3 501 21 q 364 -15 408 -15 q 245 7 297 -15 q 157 69 193 29 q 102 166 121 110 q 83 292 83 222 l 83 694 l 274 694 l 274 324 q 305 203 274 249 q 404 158 336 158 q 476 180 440 158 q 535 238 511 201 l 535 694 l 725 694 l 725 0 m 600 -283 q 492 -249 533 -283 q 450 -157 450 -215 q 475 -68 450 -104 q 536 0 500 -32 l 726 0 q 644 -54 672 -28 q 615 -112 615 -81 q 628 -143 615 -135 q 656 -151 640 -151 q 694 -139 674 -151 l 746 -240 q 680 -272 718 -260 q 600 -283 642 -283 z "},"ů":{"ha":817,"x_min":83,"x_max":725,"o":"m 725 0 l 535 0 l 535 56 q 455 3 501 21 q 364 -15 408 -15 q 245 7 297 -15 q 157 69 193 29 q 102 166 121 110 q 83 292 83 222 l 83 694 l 274 694 l 274 324 q 305 203 274 249 q 404 158 336 158 q 476 180 440 158 q 535 238 511 201 l 535 694 l 725 694 l 725 0 m 404 781 q 358 790 379 781 q 319 816 336 800 q 293 854 303 832 q 283 901 283 876 q 293 949 283 926 q 319 987 303 971 q 358 1013 336 1003 q 404 1022 379 1022 q 491 987 456 1022 q 526 901 526 951 q 491 816 526 851 q 404 781 456 781 z "},"ũ":{"ha":817,"x_min":83,"x_max":725,"o":"m 725 0 l 535 0 l 535 56 q 455 3 501 21 q 364 -15 408 -15 q 245 7 297 -15 q 157 69 193 29 q 102 166 121 110 q 83 292 83 222 l 83 694 l 274 694 l 274 324 q 305 203 274 249 q 404 158 336 158 q 476 180 440 158 q 535 238 511 201 l 535 694 l 725 694 l 725 0 m 147 829 q 206 944 158 904 q 311 985 254 985 q 369 975 342 985 q 418 953 396 965 q 459 931 440 940 q 494 921 478 921 q 535 938 522 921 q 556 986 547 954 l 665 986 l 660 950 q 601 835 649 875 q 496 794 553 794 q 438 804 464 794 q 389 826 411 814 q 348 849 367 839 q 313 858 329 858 q 272 842 285 858 q 251 793 260 825 l 142 793 l 147 829 z "},"ụ":{"ha":817,"x_min":83,"x_max":725,"o":"m 725 0 l 535 0 l 535 56 q 455 3 501 21 q 364 -15 408 -15 q 245 7 297 -15 q 157 69 193 29 q 102 166 121 110 q 83 292 83 222 l 83 694 l 274 694 l 274 324 q 305 203 274 249 q 404 158 336 158 q 476 180 440 158 q 535 238 511 201 l 535 694 l 725 694 l 725 0 m 411 -336 q 365 -326 386 -336 q 326 -301 343 -317 q 300 -262 310 -285 q 290 -215 290 -240 q 300 -168 290 -190 q 326 -130 310 -146 q 365 -104 343 -114 q 411 -94 386 -94 q 498 -130 463 -94 q 533 -215 533 -165 q 498 -301 533 -265 q 411 -336 463 -336 z "},"ẃ":{"ha":1111,"x_min":7,"x_max":1104,"o":"m 556 394 l 426 0 l 238 0 l 7 694 l 210 694 l 342 250 l 482 694 l 628 694 l 769 250 l 900 694 l 1104 694 l 875 0 l 686 0 l 556 394 m 596 1014 l 817 1014 l 624 778 l 482 778 l 596 1014 z "},"ŵ":{"ha":1111,"x_min":7,"x_max":1104,"o":"m 556 394 l 426 0 l 238 0 l 7 694 l 210 694 l 342 250 l 482 694 l 628 694 l 769 250 l 900 694 l 1104 694 l 875 0 l 686 0 l 556 394 m 475 1014 l 639 1014 l 815 803 l 647 803 l 557 896 l 467 803 l 299 803 l 475 1014 z "},"ẅ":{"ha":1111,"x_min":7,"x_max":1104,"o":"m 556 394 l 426 0 l 238 0 l 7 694 l 210 694 l 342 250 l 482 694 l 628 694 l 769 250 l 900 694 l 1104 694 l 875 0 l 686 0 l 556 394 m 393 781 q 347 790 368 781 q 308 816 325 800 q 282 854 292 832 q 272 901 272 876 q 282 949 272 926 q 308 987 292 971 q 347 1013 325 1003 q 393 1022 368 1022 q 480 987 444 1022 q 515 901 515 951 q 480 816 515 851 q 393 781 444 781 m 719 781 q 673 790 694 781 q 635 816 651 800 q 608 854 618 832 q 599 901 599 876 q 608 949 599 926 q 635 987 618 971 q 673 1013 651 1003 q 719 1022 694 1022 q 806 987 771 1022 q 842 901 842 951 q 806 816 842 851 q 719 781 771 781 z "},"ẁ":{"ha":1111,"x_min":7,"x_max":1104,"o":"m 556 394 l 426 0 l 238 0 l 7 694 l 210 694 l 342 250 l 482 694 l 628 694 l 769 250 l 900 694 l 1104 694 l 875 0 l 686 0 l 556 394 m 492 778 l 299 1014 l 519 1014 l 633 778 l 492 778 z "},"ŷ":{"ha":792,"x_min":3,"x_max":792,"o":"m 158 -269 l 294 39 l 3 694 l 211 694 l 397 244 l 582 694 l 792 694 l 365 -269 l 158 -269 m 318 1014 l 482 1014 l 658 803 l 490 803 l 400 896 l 310 803 l 142 803 l 318 1014 z "},"ỳ":{"ha":792,"x_min":3,"x_max":792,"o":"m 158 -269 l 294 39 l 3 694 l 211 694 l 397 244 l 582 694 l 792 694 l 365 -269 l 158 -269 m 333 778 l 140 1014 l 361 1014 l 475 778 l 333 778 z "},"ȳ":{"ha":792,"x_min":3,"x_max":792,"o":"m 158 -269 l 294 39 l 3 694 l 211 694 l 397 244 l 582 694 l 792 694 l 365 -269 l 158 -269 m 163 986 l 638 986 l 638 851 l 163 851 l 163 986 z "},"ź":{"ha":692,"x_min":57,"x_max":639,"o":"m 57 149 l 382 522 l 61 522 l 61 694 l 628 694 l 628 544 l 303 172 l 639 172 l 639 0 l 57 0 l 57 149 m 383 1014 l 604 1014 l 411 778 l 269 778 l 383 1014 z "},"ž":{"ha":692,"x_min":57,"x_max":639,"o":"m 57 149 l 382 522 l 61 522 l 61 694 l 628 694 l 628 544 l 303 172 l 639 172 l 639 0 l 57 0 l 57 149 m 254 1014 l 344 919 l 435 1014 l 603 1014 l 426 803 l 263 803 l 86 1014 l 254 1014 z "},"ż":{"ha":692,"x_min":57,"x_max":639,"o":"m 57 149 l 382 522 l 61 522 l 61 694 l 628 694 l 628 544 l 303 172 l 639 172 l 639 0 l 57 0 l 57 149 m 222 901 q 258 987 222 951 q 344 1022 293 1022 q 391 1013 369 1022 q 429 987 413 1003 q 456 949 446 971 q 465 901 465 926 q 456 854 465 876 q 429 816 446 832 q 391 790 413 800 q 344 781 369 781 q 258 816 293 781 q 222 901 222 851 z "},"А":{"ha":1032,"x_min":1,"x_max":1032,"o":"m 426 986 l 606 986 l 1032 0 l 821 0 l 725 225 l 304 225 l 210 0 l 1 0 l 426 986 m 379 401 l 650 401 l 515 721 l 379 401 z "},"Б":{"ha":885,"x_min":110,"x_max":844,"o":"m 508 617 q 642 594 581 617 q 749 531 704 572 q 819 433 793 490 q 844 308 844 376 q 819 184 844 240 q 749 87 793 128 q 642 23 704 46 q 508 0 581 0 l 110 0 l 110 986 l 760 986 l 760 794 l 313 794 l 313 617 l 508 617 m 649 308 q 609 400 649 368 q 506 432 569 432 l 313 432 l 313 186 l 506 186 q 609 217 569 186 q 649 308 649 249 z "},"В":{"ha":881,"x_min":110,"x_max":832,"o":"m 110 986 l 471 986 q 587 963 533 986 q 680 901 640 940 q 742 810 719 863 q 764 700 764 758 q 743 599 764 643 q 686 524 722 556 q 792 433 751 492 q 832 290 832 374 q 809 176 832 229 q 745 83 786 122 q 648 22 704 44 q 526 0 592 0 l 110 0 l 110 986 m 513 185 q 603 217 569 185 q 636 297 636 249 q 603 378 636 346 q 513 411 569 411 l 311 411 l 311 185 l 513 185 m 451 582 q 536 614 504 582 q 568 692 568 646 q 536 769 568 736 q 451 803 504 803 l 311 803 l 311 582 l 451 582 z "},"Г":{"ha":724,"x_min":110,"x_max":693,"o":"m 693 794 l 313 794 l 313 0 l 110 0 l 110 986 l 693 986 l 693 794 z "},"Д":{"ha":1076,"x_min":40,"x_max":1032,"o":"m 850 0 l 222 0 l 222 -206 l 40 -206 l 40 192 l 57 192 q 105 205 82 192 q 145 250 128 218 q 173 336 163 282 q 183 472 183 390 l 183 986 l 906 986 l 906 192 l 1032 192 l 1032 -206 l 850 -206 l 850 0 m 385 454 q 372 300 385 360 q 332 192 360 240 l 704 192 l 704 794 l 385 794 l 385 454 z "},"Е":{"ha":789,"x_min":110,"x_max":724,"o":"m 110 986 l 724 986 l 724 794 l 311 794 l 311 592 l 640 592 l 640 400 l 311 400 l 311 192 l 724 192 l 724 0 l 110 0 l 110 986 z "},"Ж":{"ha":1417,"x_min":-24,"x_max":1440,"o":"m 808 431 l 808 0 l 607 0 l 607 428 l 226 0 l -24 0 l 414 499 l 19 986 l 257 986 l 607 553 l 607 986 l 808 986 l 808 551 l 1160 986 l 1399 986 l 1003 499 l 1440 0 l 1190 0 l 808 431 z "},"З":{"ha":801,"x_min":22,"x_max":746,"o":"m 50 881 q 202 972 117 940 q 392 1003 288 1003 q 517 985 458 1003 q 618 934 575 968 q 686 849 661 900 q 711 733 711 799 q 688 616 711 671 q 613 522 665 561 q 713 424 679 485 q 746 289 746 364 q 718 160 746 217 q 642 64 690 103 q 530 5 594 25 q 393 -15 465 -15 q 189 24 285 -15 q 22 157 93 64 l 167 281 q 264 200 207 228 q 390 172 321 172 q 510 211 471 172 q 550 304 550 250 q 511 390 550 357 q 394 422 472 422 l 247 422 l 247 592 l 383 592 q 483 624 450 592 q 517 704 517 656 q 482 785 517 753 q 374 818 447 818 q 256 797 310 818 q 160 740 203 776 l 50 881 z "},"И":{"ha":1100,"x_min":110,"x_max":990,"o":"m 110 0 l 110 986 l 313 986 l 313 343 l 817 986 l 990 986 l 990 0 l 790 0 l 790 644 l 283 0 l 110 0 z "},"К":{"ha":964,"x_min":110,"x_max":999,"o":"m 310 447 l 310 0 l 110 0 l 110 986 l 310 986 l 310 568 l 665 986 l 914 986 l 508 513 l 999 0 l 738 0 l 310 447 z "},"Л":{"ha":1035,"x_min":10,"x_max":925,"o":"m 201 986 l 925 986 l 925 0 l 722 0 l 722 794 l 404 794 l 404 322 q 330 69 404 154 q 132 -17 256 -17 q 64 -12 94 -17 q 10 -1 33 -8 l 43 176 q 69 172 56 174 q 100 169 82 169 q 144 177 125 169 q 176 204 163 185 q 195 258 189 224 q 201 346 201 293 l 201 986 z "},"М":{"ha":1228,"x_min":110,"x_max":1117,"o":"m 110 986 l 293 986 l 613 467 l 933 986 l 1117 986 l 1117 0 l 915 0 l 915 601 l 681 219 l 547 219 l 311 603 l 311 0 l 110 0 l 110 986 z "},"Н":{"ha":1050,"x_min":110,"x_max":940,"o":"m 110 986 l 311 986 l 311 593 l 739 593 l 739 986 l 940 986 l 940 0 l 739 0 l 739 401 l 311 401 l 311 0 l 110 0 l 110 986 z "},"О":{"ha":1122,"x_min":51,"x_max":1071,"o":"m 561 178 q 681 203 625 178 q 779 271 738 228 q 844 371 821 314 q 868 493 868 428 q 844 615 868 557 q 779 715 821 672 q 681 783 738 758 q 561 808 625 808 q 440 783 496 808 q 343 715 385 758 q 278 615 301 672 q 254 493 254 557 q 278 371 254 428 q 343 271 301 314 q 440 203 385 228 q 561 178 496 178 m 561 -17 q 363 24 456 -17 q 201 133 269 64 q 92 294 132 201 q 51 493 51 388 q 92 692 51 599 q 201 853 132 785 q 363 963 269 922 q 561 1003 456 1003 q 760 963 667 1003 q 922 853 853 922 q 1031 692 990 785 q 1071 493 1071 599 q 1031 294 1071 388 q 922 133 990 201 q 760 24 853 64 q 561 -17 667 -17 z "},"П":{"ha":1039,"x_min":110,"x_max":929,"o":"m 728 794 l 311 794 l 311 0 l 110 0 l 110 986 l 929 986 l 929 0 l 728 0 l 728 794 z "},"Р":{"ha":821,"x_min":110,"x_max":783,"o":"m 783 654 q 758 523 783 583 q 685 418 732 463 q 576 348 639 374 q 438 322 513 322 l 311 322 l 311 0 l 110 0 l 110 986 l 438 986 q 576 960 513 986 q 685 890 639 935 q 758 785 732 846 q 783 654 783 725 m 588 654 q 546 756 588 715 q 435 797 504 797 l 311 797 l 311 511 l 435 511 q 546 552 504 511 q 588 654 588 593 z "},"С":{"ha":1046,"x_min":51,"x_max":1017,"o":"m 561 -17 q 363 24 456 -17 q 201 133 269 64 q 92 294 132 201 q 51 493 51 388 q 92 692 51 599 q 201 853 132 785 q 363 963 269 922 q 561 1003 456 1003 q 705 984 636 1003 q 833 931 774 965 q 938 848 892 896 q 1017 740 985 800 l 842 643 q 727 764 797 719 q 561 808 657 808 q 440 783 496 808 q 343 715 385 758 q 278 615 301 672 q 254 493 254 557 q 278 371 254 428 q 343 271 301 314 q 440 203 385 228 q 561 178 496 178 q 727 222 657 178 q 842 343 797 267 l 1017 246 q 938 138 985 186 q 833 55 892 89 q 705 2 774 21 q 561 -17 636 -17 z "},"Т":{"ha":789,"x_min":29,"x_max":760,"o":"m 292 794 l 29 794 l 29 986 l 760 986 l 760 794 l 494 794 l 494 0 l 292 0 l 292 794 z "},"У":{"ha":1006,"x_min":28,"x_max":1015,"o":"m 201 185 q 241 177 221 181 q 285 174 261 174 q 355 188 325 174 q 413 242 385 201 l 28 986 l 258 986 l 526 467 l 786 986 l 1015 986 l 638 240 q 568 124 604 172 q 492 44 532 75 q 404 -2 451 13 q 301 -17 357 -17 q 226 -13 257 -17 q 163 -3 196 -10 l 201 185 z "},"Ф":{"ha":1247,"x_min":50,"x_max":1197,"o":"m 522 733 l 521 733 q 398 717 449 733 q 315 669 347 700 q 267 594 282 638 q 253 500 253 551 q 267 405 253 449 q 315 330 282 361 q 398 281 347 299 q 521 264 449 264 l 522 264 l 522 733 m 726 914 q 920 887 833 914 q 1069 806 1007 860 q 1164 676 1131 753 q 1197 499 1197 599 q 1164 319 1197 397 q 1069 188 1131 242 q 920 108 1007 135 q 726 81 833 81 l 725 81 l 725 -42 l 522 -42 l 522 81 l 521 81 q 326 108 414 81 q 178 188 239 135 q 83 319 117 242 q 50 499 50 397 q 83 676 50 599 q 178 806 117 753 q 326 887 239 860 q 521 914 414 914 l 522 914 l 522 1028 l 725 1028 l 725 914 l 726 914 m 726 264 q 849 281 799 264 q 932 330 900 299 q 979 405 964 361 q 994 500 994 449 q 979 594 994 551 q 932 669 964 638 q 849 717 900 700 q 726 733 799 733 l 725 733 l 725 264 l 726 264 z "},"Х":{"ha":968,"x_min":-8,"x_max":976,"o":"m -8 0 l 363 499 l 13 986 l 246 986 l 483 654 l 722 986 l 956 986 l 604 499 l 976 0 l 740 0 l 483 342 l 228 0 l -8 0 z "},"Ц":{"ha":1069,"x_min":110,"x_max":1025,"o":"m 1025 192 l 1025 -206 l 843 -206 l 843 0 l 110 0 l 110 986 l 313 986 l 313 192 l 696 192 l 696 986 l 897 986 l 897 192 l 1025 192 z "},"Ч":{"ha":954,"x_min":61,"x_max":844,"o":"m 642 0 l 642 372 q 543 349 601 358 q 414 339 485 339 q 276 362 340 339 q 163 426 211 385 q 88 527 115 468 q 61 657 61 586 l 61 986 l 263 986 l 263 707 q 278 625 263 658 q 318 572 293 592 q 377 542 343 551 q 449 533 411 533 q 553 542 501 533 q 642 565 606 550 l 642 986 l 844 986 l 844 0 l 642 0 z "},"Ш":{"ha":1358,"x_min":110,"x_max":1249,"o":"m 110 986 l 313 986 l 313 192 l 578 192 l 578 986 l 781 986 l 781 192 l 1047 192 l 1047 986 l 1249 986 l 1249 0 l 110 0 l 110 986 z "},"Щ":{"ha":1421,"x_min":110,"x_max":1376,"o":"m 1194 0 l 110 0 l 110 986 l 313 986 l 313 192 l 578 192 l 578 986 l 781 986 l 781 192 l 1047 192 l 1047 986 l 1249 986 l 1249 192 l 1376 192 l 1376 -206 l 1194 -206 l 1194 0 z "},"Ъ":{"ha":1018,"x_min":29,"x_max":976,"o":"m 640 631 q 776 607 714 631 q 882 542 838 583 q 951 442 926 500 q 976 315 976 385 q 951 188 976 246 q 882 89 926 131 q 776 24 838 47 q 640 0 714 0 l 274 0 l 274 794 l 29 794 l 29 986 l 476 986 l 476 631 l 640 631 m 636 186 q 741 218 701 186 q 781 315 781 250 q 741 412 781 379 q 636 444 701 444 l 476 444 l 476 186 l 636 186 z "},"Ы":{"ha":1249,"x_min":110,"x_max":1139,"o":"m 476 631 q 612 607 550 631 q 718 542 674 583 q 788 442 763 500 q 813 315 813 385 q 788 188 813 246 q 718 89 763 131 q 612 24 674 47 q 476 0 550 0 l 110 0 l 110 986 l 313 986 l 313 631 l 476 631 m 472 186 q 577 218 538 186 q 617 315 617 250 q 577 412 617 379 q 472 444 538 444 l 313 444 l 313 186 l 472 186 m 938 986 l 1139 986 l 1139 0 l 938 0 l 938 986 z "},"Ь":{"ha":854,"x_min":110,"x_max":813,"o":"m 476 631 q 612 607 550 631 q 718 542 674 583 q 788 442 763 500 q 813 315 813 385 q 788 188 813 246 q 718 89 763 131 q 612 24 674 47 q 476 0 550 0 l 110 0 l 110 986 l 313 986 l 313 631 l 476 631 m 472 186 q 577 218 538 186 q 617 315 617 250 q 577 412 617 379 q 472 444 538 444 l 313 444 l 313 186 l 472 186 z "},"Э":{"ha":1051,"x_min":35,"x_max":1000,"o":"m 490 -19 q 689 21 596 -19 q 851 130 782 61 q 960 292 919 199 q 1000 490 1000 385 q 960 689 1000 596 q 851 851 919 782 q 689 960 782 919 q 490 1000 596 1000 q 347 981 415 1000 q 219 928 278 963 q 113 845 160 893 q 35 738 67 797 l 210 640 q 324 762 254 717 q 490 807 394 807 q 590 790 543 807 q 676 743 638 774 q 743 672 715 713 q 785 582 771 631 l 365 582 l 365 404 l 786 404 q 744 313 772 356 q 678 240 717 271 q 592 192 640 210 q 490 175 544 175 q 324 220 394 175 q 210 340 254 265 l 35 244 q 113 136 67 185 q 219 53 160 88 q 347 -1 278 18 q 490 -19 415 -19 z "},"Ю":{"ha":1496,"x_min":110,"x_max":1443,"o":"m 110 986 l 313 986 l 313 589 l 463 589 q 520 756 478 679 q 626 887 563 832 q 772 972 690 942 q 949 1003 854 1003 q 1144 964 1054 1003 q 1301 857 1235 925 q 1406 696 1368 789 q 1443 493 1443 603 q 1406 290 1443 383 q 1301 129 1368 197 q 1144 22 1235 61 q 949 -17 1054 -17 q 772 15 854 -17 q 626 101 690 46 q 519 233 561 156 q 461 401 476 310 l 313 401 l 313 0 l 110 0 l 110 986 m 1239 493 q 1217 619 1239 561 q 1157 719 1196 678 q 1065 785 1118 761 q 949 808 1013 808 q 831 785 885 808 q 739 719 778 761 q 678 619 700 678 q 657 493 657 561 q 678 366 657 424 q 739 267 700 308 q 831 201 778 225 q 949 178 885 178 q 1065 201 1013 178 q 1157 267 1118 225 q 1217 366 1196 308 q 1239 493 1239 424 z "},"Я":{"ha":900,"x_min":-29,"x_max":790,"o":"m 588 342 l 517 342 l 214 0 l -29 0 l 306 381 q 169 491 221 417 q 117 664 117 565 q 140 792 117 733 q 208 894 164 851 q 313 962 251 938 q 453 986 375 986 l 790 986 l 790 0 l 588 0 l 588 342 m 313 664 q 351 563 313 601 q 454 525 390 525 l 588 525 l 588 803 l 454 803 q 351 765 390 803 q 313 664 313 726 z "},"Ѕ":{"ha":793,"x_min":38,"x_max":743,"o":"m 397 -17 q 185 31 279 -17 q 38 160 90 78 l 192 289 q 286 203 228 233 q 406 172 344 172 q 501 199 465 172 q 538 268 538 225 q 506 340 538 310 q 400 396 474 371 l 317 425 q 135 536 197 467 q 74 707 74 606 q 99 831 74 776 q 168 924 124 886 q 274 983 213 963 q 407 1003 335 1003 q 576 970 499 1003 q 718 867 654 938 l 585 729 q 408 814 514 814 q 359 808 383 814 q 317 792 335 803 q 288 765 299 781 q 276 726 276 749 q 313 656 276 682 q 429 603 350 631 l 508 574 q 680 463 617 533 q 743 281 743 393 q 717 160 743 214 q 646 66 692 106 q 537 5 600 26 q 397 -17 474 -17 z "},"Є":{"ha":1051,"x_min":51,"x_max":1017,"o":"m 561 -19 q 363 21 456 -19 q 201 130 269 61 q 92 292 132 199 q 51 490 51 385 q 92 689 51 596 q 201 851 132 782 q 363 960 269 919 q 561 1000 456 1000 q 705 981 636 1000 q 833 928 774 963 q 938 845 892 893 q 1017 738 985 797 l 842 640 q 727 762 797 717 q 561 807 657 807 q 461 790 508 807 q 375 743 414 774 q 308 672 336 713 q 267 582 281 631 l 686 582 l 686 404 l 265 404 q 307 313 279 356 q 373 240 335 271 q 459 192 411 210 q 561 175 507 175 q 727 220 657 175 q 842 340 797 265 l 1017 244 q 938 136 985 185 q 833 53 892 88 q 705 -1 774 18 q 561 -19 636 -19 z "},"І":{"ha":421,"x_min":110,"x_max":311,"o":"m 110 986 l 311 986 l 311 0 l 110 0 l 110 986 z "},"Ј":{"ha":653,"x_min":0,"x_max":551,"o":"m 249 -17 q 163 -8 201 -17 q 94 14 125 0 q 40 45 64 28 q 0 79 17 63 l 115 226 q 240 171 171 171 q 318 197 286 171 q 350 282 350 224 l 350 986 l 551 986 l 551 269 q 526 140 551 194 q 458 51 500 86 q 362 0 417 17 q 249 -17 307 -17 z "},"Џ":{"ha":1011,"x_min":110,"x_max":900,"o":"m 597 -206 l 415 -206 l 415 0 l 110 0 l 110 986 l 313 986 l 313 192 l 699 192 l 699 986 l 900 986 l 900 0 l 597 0 l 597 -206 z "},"Љ":{"ha":1453,"x_min":10,"x_max":1411,"o":"m 1215 299 q 1178 375 1215 349 q 1072 401 1142 401 l 913 401 l 913 189 l 1072 189 q 1178 215 1142 189 q 1215 299 1215 240 m 913 986 l 913 593 l 1075 593 q 1215 572 1153 593 q 1320 511 1276 550 q 1388 419 1364 472 q 1411 303 1411 365 q 1386 183 1411 239 q 1317 88 1361 128 q 1210 24 1272 47 q 1075 0 1149 0 l 711 0 l 711 794 l 404 794 l 404 322 q 330 69 404 154 q 132 -17 256 -17 q 64 -12 94 -17 q 10 -1 33 -8 l 43 176 q 69 172 56 174 q 100 169 82 169 q 144 177 125 169 q 176 204 163 185 q 195 258 189 224 q 201 346 201 293 l 201 986 l 913 986 z "},"Њ":{"ha":1451,"x_min":110,"x_max":1411,"o":"m 110 986 l 313 986 l 313 593 l 722 593 l 722 986 l 924 986 l 924 593 l 1074 593 q 1214 572 1151 593 q 1320 511 1276 550 q 1388 419 1364 472 q 1411 303 1411 365 q 1386 183 1411 239 q 1316 88 1361 128 q 1209 24 1271 47 q 1074 0 1147 0 l 722 0 l 722 401 l 313 401 l 313 0 l 110 0 l 110 986 m 924 401 l 924 189 l 1071 189 q 1178 215 1142 189 q 1214 299 1214 240 q 1071 401 1214 401 l 924 401 z "},"Ђ":{"ha":1071,"x_min":29,"x_max":1029,"o":"m 694 621 q 836 597 774 621 q 942 531 899 574 q 1007 427 985 488 q 1029 292 1029 367 q 1001 153 1029 211 q 929 57 974 94 q 828 1 885 19 q 711 -17 771 -17 q 641 -12 671 -17 q 583 -1 611 -8 l 615 178 q 658 171 640 174 q 700 168 675 168 q 790 198 750 168 q 831 290 831 228 q 790 391 831 353 q 657 429 749 429 q 558 420 603 429 q 474 397 513 411 l 474 0 l 272 0 l 272 794 l 29 794 l 29 986 l 771 986 l 771 794 l 474 794 l 474 588 q 572 612 518 603 q 694 621 625 621 z "},"Ћ":{"ha":1085,"x_min":29,"x_max":1026,"o":"m 29 794 l 29 986 l 771 986 l 771 794 l 474 794 l 474 589 q 572 613 518 604 q 694 621 625 621 q 828 598 767 621 q 933 533 889 575 q 1002 434 978 492 q 1026 307 1026 376 l 1026 0 l 824 0 l 824 257 q 780 388 824 349 q 661 428 736 428 q 560 419 608 428 q 474 394 513 410 l 474 0 l 272 0 l 272 794 l 29 794 z "},"Ѵ":{"ha":1096,"x_min":4,"x_max":1092,"o":"m 500 301 l 689 765 q 744 878 715 833 q 807 951 774 924 q 879 991 840 979 q 967 1003 918 1003 q 1038 997 1004 1003 q 1092 982 1071 990 l 1044 801 q 990 807 1014 808 q 947 793 967 806 q 911 756 928 781 q 879 693 894 732 l 590 0 l 411 0 l 4 986 l 224 986 l 500 301 z "},"Ү":{"ha":958,"x_min":14,"x_max":944,"o":"m 378 415 l 14 986 l 247 986 l 478 613 l 710 986 l 944 986 l 579 414 l 579 0 l 378 0 l 378 415 z "},"Һ":{"ha":954,"x_min":110,"x_max":893,"o":"m 313 986 l 313 614 q 411 638 353 628 q 540 647 469 647 q 678 624 614 647 q 791 560 743 601 q 866 459 839 518 q 893 329 893 400 l 893 0 l 692 0 l 692 279 q 676 361 692 328 q 636 415 661 394 q 577 444 611 435 q 506 453 543 453 q 401 444 453 453 q 313 421 349 436 l 313 0 l 110 0 l 110 986 l 313 986 z "},"Ӏ":{"ha":421,"x_min":110,"x_max":311,"o":"m 110 986 l 311 986 l 311 0 l 110 0 l 110 986 z "},"Ә":{"ha":1118,"x_min":46,"x_max":1065,"o":"m 46 579 l 849 579 q 802 681 833 638 q 730 752 771 724 q 642 794 689 781 q 549 808 594 808 q 400 777 465 808 q 292 697 335 746 l 157 833 q 329 956 226 908 q 556 1003 432 1003 q 752 964 660 1003 q 914 856 844 925 q 1024 694 983 788 q 1065 493 1065 601 q 1026 294 1065 388 q 917 133 986 201 q 756 24 849 64 q 556 -17 663 -17 q 354 24 447 -17 q 192 133 261 64 q 85 294 124 201 q 46 493 46 388 l 46 579 m 556 178 q 648 192 601 178 q 735 234 694 206 q 806 304 775 263 q 850 401 836 346 l 260 401 q 297 312 269 353 q 363 241 324 271 q 451 194 401 211 q 556 178 500 178 z "},"Ѣ":{"ha":1043,"x_min":40,"x_max":993,"o":"m 657 608 q 792 586 731 608 q 899 524 854 564 q 968 427 943 483 q 993 304 993 371 q 968 182 993 238 q 899 86 943 126 q 792 23 854 46 q 657 0 731 0 l 290 0 l 290 717 l 40 717 l 40 893 l 290 893 l 290 986 l 493 986 l 493 893 l 796 893 l 796 717 l 493 717 l 493 608 l 657 608 m 653 186 q 758 215 718 186 q 797 304 797 244 q 758 392 797 363 q 653 422 718 422 l 493 422 l 493 186 l 653 186 z "},"Й":{"ha":1100,"x_min":110,"x_max":990,"o":"m 110 0 l 110 986 l 313 986 l 313 343 l 817 986 l 990 986 l 990 0 l 790 0 l 790 644 l 283 0 l 110 0 m 564 1042 q 470 1059 514 1042 q 393 1108 426 1076 q 341 1184 360 1139 q 322 1285 322 1229 l 447 1285 q 479 1190 447 1225 q 564 1154 511 1154 q 649 1190 617 1154 q 681 1285 681 1225 l 806 1285 q 787 1184 806 1229 q 735 1108 768 1139 q 658 1059 701 1076 q 564 1042 614 1042 z "},"Ё":{"ha":789,"x_min":107,"x_max":724,"o":"m 110 986 l 724 986 l 724 794 l 311 794 l 311 592 l 640 592 l 640 400 l 311 400 l 311 192 l 724 192 l 724 0 l 110 0 l 110 986 m 228 1056 q 181 1065 203 1056 q 143 1091 160 1075 q 117 1129 126 1107 q 107 1176 107 1151 q 117 1224 107 1201 q 143 1262 126 1246 q 181 1288 160 1278 q 228 1297 203 1297 q 315 1262 279 1297 q 350 1176 350 1226 q 315 1091 350 1126 q 228 1056 279 1056 m 601 1056 q 555 1065 576 1056 q 517 1091 533 1075 q 490 1129 500 1107 q 481 1176 481 1151 q 490 1224 481 1201 q 517 1262 500 1246 q 555 1288 533 1278 q 601 1297 576 1297 q 688 1262 653 1297 q 724 1176 724 1226 q 688 1091 724 1126 q 601 1056 653 1056 z "},"Ќ":{"ha":964,"x_min":110,"x_max":999,"o":"m 310 447 l 310 0 l 110 0 l 110 986 l 310 986 l 310 568 l 665 986 l 914 986 l 508 513 l 999 0 l 738 0 l 310 447 m 518 1257 l 731 1257 l 560 1067 l 418 1067 l 518 1257 z "},"Ґ":{"ha":724,"x_min":110,"x_max":693,"o":"m 693 794 l 313 794 l 313 0 l 110 0 l 110 986 l 693 986 l 693 794 m 511 986 l 511 1192 l 693 1192 l 693 986 l 511 986 z "},"Ѓ":{"ha":724,"x_min":110,"x_max":693,"o":"m 693 794 l 313 794 l 313 0 l 110 0 l 110 986 l 693 986 l 693 794 m 435 1257 l 647 1257 l 476 1067 l 335 1067 l 435 1257 z "},"Ў":{"ha":1006,"x_min":28,"x_max":1015,"o":"m 201 185 q 241 177 221 181 q 285 174 261 174 q 355 188 325 174 q 413 242 385 201 l 28 986 l 258 986 l 526 467 l 786 986 l 1015 986 l 638 240 q 568 124 604 172 q 492 44 532 75 q 404 -2 451 13 q 301 -17 357 -17 q 226 -13 257 -17 q 163 -3 196 -10 l 201 185 m 524 1042 q 430 1059 474 1042 q 353 1108 386 1076 q 301 1184 319 1139 q 282 1285 282 1229 l 407 1285 q 439 1190 407 1225 q 524 1154 471 1154 q 608 1190 576 1154 q 640 1285 640 1225 l 765 1285 q 747 1184 765 1229 q 694 1108 728 1139 q 617 1059 661 1076 q 524 1042 574 1042 z "},"Ї":{"ha":421,"x_min":-97,"x_max":519,"o":"m 110 986 l 311 986 l 311 0 l 110 0 l 110 986 m 24 1056 q -23 1065 -1 1056 q -61 1091 -44 1075 q -87 1129 -78 1107 q -97 1176 -97 1151 q -87 1224 -97 1201 q -61 1262 -78 1246 q -23 1288 -44 1278 q 24 1297 -1 1297 q 110 1262 75 1297 q 146 1176 146 1226 q 110 1091 146 1126 q 24 1056 75 1056 m 397 1056 q 351 1065 372 1056 q 313 1091 329 1075 q 286 1129 296 1107 q 276 1176 276 1151 q 286 1224 276 1201 q 313 1262 296 1246 q 351 1288 329 1278 q 397 1297 372 1297 q 484 1262 449 1297 q 519 1176 519 1226 q 484 1091 519 1126 q 397 1056 449 1056 z "},"Ѳ":{"ha":1122,"x_min":51,"x_max":1071,"o":"m 561 178 q 681 203 625 178 q 779 271 738 228 q 844 371 821 314 q 868 493 868 428 q 844 615 868 557 q 779 715 821 672 q 681 783 738 758 q 561 808 625 808 q 440 783 496 808 q 343 715 385 758 q 278 615 301 672 q 254 493 254 557 q 278 371 254 428 q 343 271 301 314 q 440 203 385 228 q 561 178 496 178 m 561 -17 q 363 24 456 -17 q 201 133 269 64 q 92 294 132 201 q 51 493 51 388 q 92 692 51 599 q 201 853 132 785 q 363 963 269 922 q 561 1003 456 1003 q 760 963 667 1003 q 922 853 853 922 q 1031 692 990 785 q 1071 493 1071 599 q 1031 294 1071 388 q 922 133 990 201 q 760 24 853 64 q 561 -17 667 -17 m 696 557 q 795 572 749 557 q 875 611 842 588 l 875 435 q 795 397 842 411 q 696 382 749 382 q 624 390 658 382 q 556 408 589 399 q 490 426 522 418 q 424 435 457 435 q 325 420 371 435 q 244 382 279 406 l 244 557 q 324 596 278 581 q 424 611 371 611 q 504 603 469 611 q 570 584 539 594 q 631 565 601 574 q 696 557 661 557 z "},"Ө":{"ha":1122,"x_min":51,"x_max":1071,"o":"m 561 178 q 681 203 625 178 q 779 271 738 228 q 844 371 821 314 q 868 493 868 428 q 844 615 868 557 q 779 715 821 672 q 681 783 738 758 q 561 808 625 808 q 440 783 496 808 q 343 715 385 758 q 278 615 301 672 q 254 493 254 557 q 278 371 254 428 q 343 271 301 314 q 440 203 385 228 q 561 178 496 178 m 561 -17 q 363 24 456 -17 q 201 133 269 64 q 92 294 132 201 q 51 493 51 388 q 92 692 51 599 q 201 853 132 785 q 363 963 269 922 q 561 1003 456 1003 q 760 963 667 1003 q 922 853 853 922 q 1031 692 990 785 q 1071 493 1071 599 q 1031 294 1071 388 q 922 133 990 201 q 760 24 853 64 q 561 -17 667 -17 m 146 581 l 974 581 l 974 403 l 146 403 l 146 581 z "},"Ғ":{"ha":767,"x_min":28,"x_max":735,"o":"m 735 794 l 354 794 l 354 0 l 151 0 l 151 986 l 735 986 l 735 794 m 28 583 l 579 583 l 579 406 l 28 406 l 28 583 z "},"Ұ":{"ha":947,"x_min":10,"x_max":940,"o":"m 374 415 l 10 986 l 243 986 l 474 613 l 706 986 l 940 986 l 575 414 l 575 0 l 374 0 l 374 415 m 776 236 l 168 236 l 168 415 l 776 415 l 776 236 z "},"Ӣ":{"ha":1100,"x_min":110,"x_max":990,"o":"m 110 0 l 110 986 l 313 986 l 313 343 l 817 986 l 990 986 l 990 0 l 790 0 l 790 644 l 283 0 l 110 0 m 326 1232 l 801 1232 l 801 1099 l 326 1099 l 326 1232 z "},"Ӯ":{"ha":1006,"x_min":28,"x_max":1015,"o":"m 201 185 q 241 177 221 181 q 285 174 261 174 q 355 188 325 174 q 413 242 385 201 l 28 986 l 258 986 l 526 467 l 786 986 l 1015 986 l 638 240 q 568 124 604 172 q 492 44 532 75 q 404 -2 451 13 q 301 -17 357 -17 q 226 -13 257 -17 q 163 -3 196 -10 l 201 185 m 286 1232 l 761 1232 l 761 1099 l 286 1099 l 286 1232 z "},"Җ":{"ha":1454,"x_min":-24,"x_max":1446,"o":"m 808 431 l 808 0 l 607 0 l 607 428 l 226 0 l -24 0 l 414 499 l 19 986 l 257 986 l 607 553 l 607 986 l 808 986 l 808 551 l 1160 986 l 1399 986 l 1003 499 l 1440 0 l 1190 0 l 808 431 m 1264 0 l 1231 0 l 1231 192 l 1446 192 l 1446 -206 l 1264 -206 l 1264 0 z "},"Қ":{"ha":1003,"x_min":110,"x_max":1001,"o":"m 310 447 l 310 0 l 110 0 l 110 986 l 310 986 l 310 568 l 665 986 l 914 986 l 508 513 l 999 0 l 738 0 l 310 447 m 819 0 l 786 0 l 786 192 l 1001 192 l 1001 -206 l 819 -206 l 819 0 z "},"Ң":{"ha":1113,"x_min":110,"x_max":1069,"o":"m 110 986 l 311 986 l 311 593 l 739 593 l 739 986 l 940 986 l 940 0 l 739 0 l 739 401 l 311 401 l 311 0 l 110 0 l 110 986 m 888 0 l 854 0 l 854 192 l 1069 192 l 1069 -206 l 888 -206 l 888 0 z "},"Ҳ":{"ha":1028,"x_min":-8,"x_max":1018,"o":"m -8 0 l 363 499 l 13 986 l 246 986 l 483 654 l 722 986 l 956 986 l 604 499 l 976 0 l 740 0 l 483 342 l 228 0 l -8 0 m 836 0 l 803 0 l 803 192 l 1018 192 l 1018 -206 l 836 -206 l 836 0 z "},"Ҷ":{"ha":1017,"x_min":61,"x_max":974,"o":"m 642 0 l 642 372 q 543 349 601 358 q 414 339 485 339 q 276 362 340 339 q 163 426 211 385 q 88 527 115 468 q 61 657 61 586 l 61 986 l 263 986 l 263 707 q 278 625 263 658 q 318 572 293 592 q 377 542 343 551 q 449 533 411 533 q 553 542 501 533 q 642 565 606 550 l 642 986 l 844 986 l 844 0 l 642 0 m 792 0 l 758 0 l 758 192 l 974 192 l 974 -206 l 792 -206 l 792 0 z "},"а":{"ha":851,"x_min":49,"x_max":760,"o":"m 392 -15 q 251 14 314 -15 q 143 93 188 43 q 74 208 99 143 q 49 347 49 274 q 74 485 49 419 q 143 601 99 551 q 251 681 188 651 q 392 710 314 710 q 493 692 447 710 q 569 644 539 674 l 569 694 l 760 694 l 760 0 l 569 0 l 569 51 q 493 3 539 21 q 392 -15 447 -15 m 419 158 q 510 180 475 158 q 569 235 546 201 l 569 461 q 510 515 546 493 q 419 536 475 536 q 348 521 381 536 q 292 480 315 506 q 257 420 269 454 q 244 347 244 386 q 257 274 244 308 q 292 215 269 240 q 348 174 315 189 q 419 158 381 158 z "},"б":{"ha":842,"x_min":68,"x_max":793,"o":"m 429 -15 q 273 15 340 -15 q 160 100 206 44 q 91 234 114 156 q 68 411 68 313 l 68 451 q 96 684 68 588 q 177 845 124 781 q 308 947 231 910 q 486 1003 386 985 l 699 1042 l 729 867 l 528 831 q 345 757 411 808 q 265 603 279 706 q 359 660 307 643 q 465 678 411 678 q 604 651 543 678 q 707 581 665 625 q 771 476 749 536 q 793 349 793 417 q 765 206 793 272 q 688 90 738 139 q 572 13 639 42 q 429 -15 506 -15 m 428 163 q 552 209 503 163 q 601 343 601 256 q 589 408 601 378 q 553 462 576 439 q 499 499 531 485 q 429 513 468 513 q 358 499 390 513 q 304 462 326 485 q 269 408 282 439 q 257 343 257 376 q 306 209 257 256 q 428 163 354 163 z "},"в":{"ha":772,"x_min":92,"x_max":726,"o":"m 92 694 l 424 694 q 540 676 492 694 q 620 629 589 658 q 667 563 651 600 q 682 486 682 525 q 636 369 682 421 q 702 301 678 343 q 726 211 726 260 q 713 135 726 172 q 669 67 699 97 q 590 19 639 38 q 472 0 542 0 l 92 0 l 92 694 m 463 156 q 516 173 494 156 q 538 225 538 190 q 516 276 538 258 q 463 293 494 293 l 282 293 l 282 156 l 463 156 m 424 421 q 470 435 447 421 q 493 485 493 449 q 470 535 493 521 q 424 549 447 549 l 282 549 l 282 421 l 424 421 z "},"г":{"ha":594,"x_min":92,"x_max":571,"o":"m 92 694 l 571 694 l 571 528 l 282 528 l 282 0 l 92 0 l 92 694 z "},"д":{"ha":907,"x_min":40,"x_max":865,"o":"m 58 167 q 128 206 101 167 q 156 346 156 244 l 156 694 l 753 694 l 753 167 l 865 167 l 865 -171 l 694 -171 l 694 0 l 211 0 l 211 -171 l 40 -171 l 40 167 l 58 167 m 346 335 q 337 233 346 269 q 311 167 328 196 l 563 167 l 563 528 l 346 528 l 346 335 z "},"е":{"ha":803,"x_min":47,"x_max":754,"o":"m 415 -15 q 270 10 338 -15 q 153 83 203 36 q 76 198 104 131 q 47 347 47 265 q 74 490 47 424 q 151 606 101 557 q 267 682 200 654 q 413 710 333 710 q 542 688 481 710 q 651 624 604 667 q 726 517 699 581 q 754 368 754 453 q 754 340 754 356 q 751 303 754 325 l 232 303 q 253 241 236 268 q 294 196 269 214 q 351 168 319 178 q 417 158 382 158 q 527 184 482 158 q 596 246 572 210 l 738 140 q 607 27 689 69 q 415 -15 525 -15 m 564 432 q 506 524 551 494 q 407 553 460 553 q 353 546 381 553 q 303 524 326 539 q 263 487 281 510 q 239 432 246 464 l 564 432 z "},"ж":{"ha":1144,"x_min":-15,"x_max":1160,"o":"m 668 278 l 668 0 l 478 0 l 478 281 l 221 0 l -15 0 l 307 353 l 31 694 l 251 694 l 478 411 l 478 694 l 668 694 l 668 415 l 892 694 l 1113 694 l 835 353 l 1160 0 l 924 0 l 668 278 z "},"з":{"ha":667,"x_min":22,"x_max":619,"o":"m 322 -15 q 149 22 225 -15 q 22 129 72 58 l 150 221 q 217 163 176 185 q 306 142 257 142 q 398 163 368 142 q 428 219 428 183 q 403 272 428 253 q 328 292 379 292 l 229 292 l 229 422 l 322 422 q 411 489 411 422 q 387 539 411 519 q 313 558 363 558 q 227 539 268 558 q 157 488 186 519 l 49 594 q 324 710 160 710 q 449 690 399 710 q 532 640 500 669 q 578 574 564 610 q 592 504 592 538 q 577 431 592 467 q 525 367 563 394 q 596 295 572 339 q 619 204 619 251 q 602 128 619 167 q 549 57 585 89 q 456 5 513 25 q 322 -15 400 -15 z "},"и":{"ha":856,"x_min":92,"x_max":763,"o":"m 92 0 l 92 694 l 282 694 l 282 285 l 593 694 l 763 694 l 763 0 l 574 0 l 574 410 l 263 0 l 92 0 z "},"к":{"ha":765,"x_min":92,"x_max":790,"o":"m 282 281 l 282 0 l 92 0 l 92 694 l 282 694 l 282 411 l 517 694 l 743 694 l 454 353 l 790 0 l 546 0 l 282 281 z "},"л":{"ha":844,"x_min":14,"x_max":753,"o":"m 115 -14 q 57 -10 82 -14 q 14 -4 32 -7 l 38 154 q 55 152 47 153 q 74 151 63 151 q 109 157 93 151 q 136 176 125 163 q 153 214 147 190 q 158 274 158 238 l 158 694 l 753 694 l 753 0 l 563 0 l 563 528 l 349 528 l 349 250 q 328 131 349 181 q 276 49 308 81 q 201 1 243 17 q 115 -14 160 -14 z "},"м":{"ha":963,"x_min":92,"x_max":871,"o":"m 254 694 l 482 361 l 710 694 l 871 694 l 871 0 l 681 0 l 681 376 l 536 163 l 426 163 l 282 376 l 282 0 l 92 0 l 92 694 l 254 694 z "},"н":{"ha":850,"x_min":92,"x_max":758,"o":"m 92 694 l 282 694 l 282 432 l 568 432 l 568 694 l 758 694 l 758 0 l 568 0 l 568 267 l 282 267 l 282 0 l 92 0 l 92 694 z "},"о":{"ha":822,"x_min":46,"x_max":776,"o":"m 411 -15 q 269 13 336 -15 q 153 90 203 40 q 74 205 103 139 q 46 347 46 271 q 74 490 46 424 q 153 604 103 556 q 269 681 203 653 q 411 710 336 710 q 553 681 486 710 q 669 604 619 653 q 748 490 719 556 q 776 347 776 424 q 748 205 776 271 q 669 90 719 139 q 553 13 619 40 q 411 -15 486 -15 m 411 163 q 480 176 449 163 q 534 215 511 190 q 570 273 557 239 q 583 347 583 307 q 570 422 583 388 q 534 480 557 456 q 480 518 511 504 q 411 532 449 532 q 342 518 374 532 q 287 480 310 504 q 251 422 264 456 q 238 347 238 388 q 251 273 238 307 q 287 215 264 239 q 342 176 310 190 q 411 163 374 163 z "},"п":{"ha":836,"x_min":92,"x_max":744,"o":"m 92 694 l 744 694 l 744 0 l 554 0 l 554 528 l 282 528 l 282 0 l 92 0 l 92 694 z "},"р":{"ha":850,"x_min":92,"x_max":803,"o":"m 92 694 l 282 694 l 282 644 q 358 692 313 674 q 460 710 404 710 q 600 681 536 710 q 708 601 664 651 q 778 485 753 551 q 803 347 803 419 q 778 208 803 274 q 708 93 753 143 q 600 14 664 43 q 460 -15 536 -15 q 358 3 404 -15 q 282 51 313 21 l 282 -269 l 92 -269 l 92 694 m 432 158 q 503 174 471 158 q 559 215 536 189 q 594 274 582 240 q 607 347 607 308 q 594 420 607 386 q 559 480 582 454 q 503 521 536 506 q 432 536 471 536 q 341 515 376 536 q 282 461 306 493 l 282 235 q 341 180 306 201 q 432 158 376 158 z "},"с":{"ha":775,"x_min":47,"x_max":744,"o":"m 415 -15 q 271 12 338 -15 q 154 88 204 39 q 76 202 104 136 q 47 347 47 268 q 76 492 47 426 q 154 607 104 558 q 271 683 204 656 q 415 710 338 710 q 519 695 469 710 q 612 654 569 681 q 688 591 654 628 q 744 510 722 554 l 579 421 q 516 501 558 469 q 415 532 474 532 q 346 518 378 532 q 290 480 314 504 q 252 422 265 456 q 239 347 239 388 q 252 273 239 307 q 290 215 265 239 q 346 176 314 190 q 415 163 378 163 q 516 194 474 163 q 579 274 558 225 l 744 185 q 688 103 722 140 q 612 40 654 67 q 519 -1 569 14 q 415 -15 469 -15 z "},"т":{"ha":638,"x_min":25,"x_max":613,"o":"m 217 528 l 25 528 l 25 694 l 613 694 l 613 528 l 407 528 l 407 0 l 217 0 l 217 528 z "},"у":{"ha":792,"x_min":3,"x_max":792,"o":"m 458 -60 q 344 -224 408 -171 q 178 -276 279 -276 q 68 -264 114 -276 l 99 -103 q 129 -108 117 -107 q 160 -110 142 -110 q 220 -89 193 -110 q 272 -14 247 -68 l 294 39 l 3 694 l 211 694 l 403 260 l 582 694 l 792 694 l 458 -60 z "},"ф":{"ha":1061,"x_min":47,"x_max":1014,"o":"m 436 -268 l 436 -15 l 421 -15 q 260 15 331 -15 q 143 94 190 44 q 72 210 96 144 q 47 347 47 275 q 72 485 47 419 q 143 600 96 550 q 260 680 190 650 q 421 710 331 710 l 436 710 l 436 1014 l 626 1014 l 626 710 l 640 710 q 801 680 731 710 q 918 600 871 650 q 990 485 965 550 q 1014 347 1014 419 q 990 210 1014 275 q 918 94 965 144 q 801 15 871 44 q 640 -15 731 -15 l 626 -15 l 626 -268 l 436 -268 m 626 535 l 626 160 l 640 160 q 717 175 683 160 q 774 216 751 190 q 810 276 797 242 q 822 347 822 310 q 810 419 822 385 q 774 478 797 453 q 717 519 750 504 q 640 535 683 535 l 626 535 m 436 535 l 421 535 q 344 519 378 535 q 288 478 311 504 q 251 419 264 453 q 239 347 239 385 q 251 276 239 310 q 287 216 264 242 q 344 175 310 190 q 421 160 378 160 l 436 160 l 436 535 z "},"х":{"ha":788,"x_min":4,"x_max":783,"o":"m 394 204 l 233 0 l 4 0 l 274 340 l 11 694 l 236 694 l 393 482 l 550 694 l 776 694 l 514 340 l 783 0 l 556 0 l 394 204 z "},"ц":{"ha":897,"x_min":92,"x_max":860,"o":"m 860 -171 l 689 -171 l 689 0 l 92 0 l 92 694 l 282 694 l 282 167 l 554 167 l 554 694 l 744 694 l 744 167 l 860 167 l 860 -171 z "},"ч":{"ha":783,"x_min":50,"x_max":692,"o":"m 501 0 l 501 249 q 465 234 486 240 q 418 223 443 228 q 367 215 393 218 q 317 213 340 213 q 216 227 264 213 q 131 272 168 242 q 72 347 94 301 q 50 456 50 393 l 50 694 l 240 694 l 240 478 q 251 430 240 449 q 279 400 261 411 q 319 384 297 389 q 364 379 340 379 q 437 389 399 379 q 501 417 475 399 l 501 694 l 692 694 l 692 0 l 501 0 z "},"ш":{"ha":1157,"x_min":92,"x_max":1065,"o":"m 92 694 l 282 694 l 282 167 l 483 167 l 483 694 l 674 694 l 674 167 l 875 167 l 875 694 l 1065 694 l 1065 0 l 92 0 l 92 694 z "},"щ":{"ha":1219,"x_min":92,"x_max":1179,"o":"m 1179 -171 l 1010 -171 l 1010 0 l 92 0 l 92 694 l 282 694 l 282 167 l 483 167 l 483 694 l 674 694 l 674 167 l 875 167 l 875 694 l 1065 694 l 1065 167 l 1179 167 l 1179 -171 z "},"ъ":{"ha":811,"x_min":26,"x_max":776,"o":"m 200 529 l 26 529 l 26 694 l 390 694 l 390 488 l 521 488 q 639 465 590 488 q 718 406 688 442 q 763 328 749 371 q 776 247 776 286 q 763 165 776 208 q 718 85 749 121 q 639 24 688 49 q 521 0 590 0 l 200 0 l 200 529 m 390 163 l 499 163 q 570 184 544 163 q 596 246 596 206 q 570 306 596 286 q 499 325 544 325 l 390 325 l 390 163 z "},"ы":{"ha":1044,"x_min":92,"x_max":951,"o":"m 761 694 l 951 694 l 951 0 l 761 0 l 761 694 m 92 694 l 282 694 l 282 488 l 413 488 q 531 465 482 488 q 610 406 579 442 q 654 328 640 371 q 668 247 668 286 q 654 165 668 208 q 610 85 640 121 q 531 24 579 49 q 413 0 482 0 l 92 0 l 92 694 m 282 163 l 390 163 q 463 184 438 163 q 489 246 489 206 q 463 306 489 286 q 390 325 438 325 l 282 325 l 282 163 z "},"ь":{"ha":703,"x_min":92,"x_max":668,"o":"m 92 694 l 282 694 l 282 488 l 413 488 q 531 465 482 488 q 610 406 579 442 q 654 328 640 371 q 668 247 668 286 q 654 165 668 208 q 610 85 640 121 q 531 24 579 49 q 413 0 482 0 l 92 0 l 92 694 m 282 163 l 390 163 q 463 184 438 163 q 489 246 489 206 q 463 306 489 286 q 390 325 438 325 l 282 325 l 282 163 z "},"э":{"ha":778,"x_min":33,"x_max":731,"o":"m 363 -15 q 507 12 440 -15 q 624 88 574 39 q 702 202 674 136 q 731 347 731 268 q 702 492 731 426 q 624 607 674 558 q 507 683 574 656 q 363 710 440 710 q 258 695 308 710 q 166 654 208 681 q 90 591 124 628 q 33 510 56 554 l 199 421 q 262 501 219 469 q 363 532 304 532 q 465 501 421 532 q 528 418 508 469 l 296 418 l 296 292 l 532 292 q 470 198 515 233 q 363 163 425 163 q 262 194 304 163 q 199 274 219 225 l 33 185 q 90 103 56 140 q 166 40 124 67 q 258 -1 208 14 q 363 -15 308 -15 z "},"ю":{"ha":1140,"x_min":92,"x_max":1092,"o":"m 738 -15 q 615 6 672 -15 q 514 64 558 26 q 438 153 469 101 q 393 265 407 204 l 282 265 l 282 0 l 92 0 l 92 694 l 282 694 l 282 431 l 393 431 q 437 542 406 490 q 513 631 468 593 q 615 689 557 668 q 738 710 672 710 q 879 681 814 710 q 992 603 944 653 q 1065 488 1039 554 q 1092 347 1092 422 q 1065 206 1092 272 q 992 91 1039 140 q 879 13 944 42 q 738 -15 814 -15 m 738 163 q 856 215 811 163 q 900 347 900 267 q 856 480 900 428 q 738 532 811 532 q 620 481 664 532 q 576 349 576 429 q 620 215 576 268 q 738 163 664 163 z "},"я":{"ha":751,"x_min":-15,"x_max":660,"o":"m 224 264 q 131 344 164 293 q 97 461 97 394 q 114 553 97 511 q 163 627 131 596 q 244 676 196 658 q 353 694 292 694 l 660 694 l 660 0 l 469 0 l 469 219 l 403 219 l 200 0 l -15 0 l 224 264 m 469 372 l 469 540 l 363 540 q 298 517 319 540 q 276 453 276 493 q 302 393 276 414 q 364 372 328 372 l 469 372 z "},"ѕ":{"ha":639,"x_min":40,"x_max":590,"o":"m 325 -15 q 159 17 233 -15 q 40 118 85 50 l 171 229 q 235 169 193 190 q 326 149 276 149 q 378 160 356 149 q 401 199 401 172 q 384 235 401 221 q 310 265 367 250 l 258 278 q 113 361 163 303 q 67 500 64 419 q 88 586 68 547 q 143 653 108 625 q 225 695 178 681 q 328 710 272 710 q 568 593 488 710 l 442 492 q 325 553 396 553 q 278 541 300 553 q 256 506 256 529 q 267 474 256 490 q 322 446 279 457 l 389 426 q 536 351 482 401 q 590 211 590 301 q 570 119 590 161 q 514 48 550 78 q 429 1 478 18 q 325 -15 381 -15 z "},"є":{"ha":778,"x_min":47,"x_max":744,"o":"m 415 -15 q 271 12 338 -15 q 154 88 204 39 q 76 202 104 136 q 47 347 47 268 q 76 492 47 426 q 154 607 104 558 q 271 683 204 656 q 415 710 338 710 q 519 695 469 710 q 612 654 569 681 q 688 591 654 628 q 744 510 722 554 l 579 421 q 516 501 558 469 q 415 532 474 532 q 313 501 357 532 q 250 418 269 469 l 482 418 l 482 292 l 246 292 q 308 198 263 233 q 415 163 353 163 q 516 194 474 163 q 579 274 558 225 l 744 185 q 688 103 722 140 q 612 40 654 67 q 519 -1 569 14 q 415 -15 469 -15 z "},"і":{"ha":374,"x_min":65,"x_max":308,"o":"m 186 781 q 140 790 161 781 q 101 816 118 800 q 75 854 85 832 q 65 901 65 876 q 75 949 65 926 q 101 987 85 971 q 140 1013 118 1003 q 186 1022 161 1022 q 273 987 238 1022 q 308 901 308 951 q 273 816 308 851 q 186 781 238 781 m 92 694 l 282 694 l 282 0 l 92 0 l 92 694 z "},"ј":{"ha":385,"x_min":-119,"x_max":319,"o":"m 38 -276 q -8 -274 15 -276 q -53 -267 -32 -271 q -92 -257 -74 -262 q -119 -246 -110 -251 l -76 -90 q 13 -111 -33 -111 q 78 -85 53 -111 q 103 6 103 -58 l 103 694 l 293 694 l 293 -25 q 273 -136 293 -89 q 219 -215 253 -183 q 138 -261 185 -246 q 38 -276 92 -276 m 197 781 q 151 790 172 781 q 113 816 129 800 q 86 854 96 832 q 76 901 76 876 q 86 949 76 926 q 113 987 96 971 q 151 1013 129 1003 q 197 1022 172 1022 q 284 987 249 1022 q 319 901 319 951 q 284 816 319 851 q 197 781 249 781 z "},"џ":{"ha":838,"x_min":92,"x_max":746,"o":"m 504 0 l 504 -171 l 335 -171 l 335 0 l 92 0 l 92 694 l 282 694 l 282 168 l 556 168 l 556 694 l 746 694 l 746 0 l 504 0 z "},"љ":{"ha":1154,"x_min":14,"x_max":1119,"o":"m 749 160 l 872 160 q 922 174 903 160 q 940 215 940 188 q 922 258 940 243 q 872 274 903 274 l 749 274 l 749 160 m 749 694 l 749 432 l 892 432 q 997 413 953 432 q 1067 362 1040 393 q 1107 293 1094 331 q 1119 221 1119 256 q 1107 147 1119 186 q 1067 76 1094 108 q 997 22 1040 43 q 892 0 953 0 l 558 0 l 558 528 l 349 528 l 349 250 q 328 131 349 181 q 276 49 308 81 q 201 1 243 17 q 115 -14 160 -14 q 57 -10 82 -14 q 14 -4 32 -7 l 38 154 q 55 152 47 153 q 74 151 63 151 q 109 157 93 151 q 136 176 125 163 q 153 214 147 190 q 158 274 158 238 l 158 694 l 749 694 z "},"њ":{"ha":1150,"x_min":92,"x_max":1115,"o":"m 936 215 q 917 258 936 243 q 868 274 899 274 l 744 274 l 744 160 l 868 160 q 917 174 899 160 q 936 215 936 188 m 1115 221 q 1103 147 1115 186 q 1063 76 1090 108 q 992 22 1035 43 q 886 0 949 0 l 554 0 l 554 267 l 282 267 l 282 0 l 92 0 l 92 694 l 282 694 l 282 432 l 554 432 l 554 694 l 744 694 l 744 432 l 886 432 q 992 413 949 432 q 1063 362 1035 393 q 1103 293 1090 331 q 1115 221 1115 256 z "},"ђ":{"ha":832,"x_min":-31,"x_max":749,"o":"m 378 -90 q 424 -106 400 -101 q 468 -111 447 -111 q 533 -85 508 -111 q 558 6 558 -58 l 558 369 q 527 490 558 444 q 429 536 496 536 q 342 515 381 536 q 282 457 304 493 l 282 0 l 92 0 l 92 788 l -31 788 l -31 914 l 92 914 l 92 1014 l 282 1014 l 282 914 l 513 914 l 513 788 l 282 788 l 282 636 q 364 690 315 671 q 471 710 413 710 q 589 688 538 710 q 676 625 640 665 q 730 528 711 585 q 749 401 749 471 l 749 -25 q 728 -136 749 -89 q 674 -215 708 -183 q 594 -261 640 -246 q 493 -276 547 -276 q 448 -274 471 -276 q 403 -267 425 -271 q 364 -257 382 -262 q 333 -246 346 -251 l 378 -90 z "},"ћ":{"ha":832,"x_min":-31,"x_max":749,"o":"m 558 371 q 526 491 558 446 q 429 536 494 536 q 342 514 381 536 q 282 457 304 492 l 282 0 l 92 0 l 92 788 l -31 788 l -31 914 l 92 914 l 92 1014 l 282 1014 l 282 914 l 513 914 l 513 788 l 282 788 l 282 636 q 364 691 315 672 q 471 710 413 710 q 588 688 536 710 q 676 625 640 665 q 730 528 711 585 q 749 403 749 472 l 749 0 l 558 0 l 558 371 z "},"ї":{"ha":374,"x_min":-83,"x_max":457,"o":"m 92 694 l 282 694 l 282 0 l 92 0 l 92 694 m 335 781 q 288 790 310 781 q 250 816 267 800 q 224 854 233 832 q 214 901 214 876 q 224 949 214 926 q 250 987 233 971 q 288 1013 267 1003 q 335 1022 310 1022 q 422 987 386 1022 q 457 901 457 951 q 422 816 457 851 q 335 781 386 781 m 38 781 q -9 790 13 781 q -47 816 -31 800 q -74 854 -64 832 q -83 901 -83 876 q -74 949 -83 926 q -47 987 -64 971 q -9 1013 -31 1003 q 38 1022 13 1022 q 124 987 89 1022 q 160 901 160 951 q 124 816 160 851 q 38 781 89 781 z "},"ѵ":{"ha":843,"x_min":1,"x_max":843,"o":"m 211 694 l 394 251 l 496 494 q 547 597 521 556 q 601 663 572 638 q 665 699 631 688 q 743 710 700 710 q 801 706 779 710 q 843 696 824 701 l 803 531 q 736 525 763 539 q 688 458 710 511 l 482 0 l 308 0 l 1 694 l 211 694 z "},"ү":{"ha":796,"x_min":1,"x_max":796,"o":"m 303 0 l 1 694 l 213 694 l 397 233 l 583 694 l 796 694 l 493 0 l 493 -269 l 303 -269 l 303 0 z "},"һ":{"ha":832,"x_min":92,"x_max":749,"o":"m 92 0 l 92 1014 l 282 1014 l 282 636 q 364 691 315 672 q 471 710 413 710 q 588 688 536 710 q 676 625 640 665 q 730 528 711 585 q 749 403 749 472 l 749 0 l 558 0 l 558 371 q 526 491 558 446 q 429 536 494 536 q 342 514 381 536 q 282 457 304 492 l 282 0 l 92 0 z "},"ӏ":{"ha":374,"x_min":92,"x_max":282,"o":"m 92 1014 l 282 1014 l 282 0 l 92 0 l 92 1014 z "},"ә":{"ha":803,"x_min":49,"x_max":756,"o":"m 388 710 q 533 684 465 710 q 649 611 600 658 q 727 497 699 564 q 756 347 756 429 q 728 203 756 269 q 652 89 701 138 q 536 13 603 40 q 390 -15 469 -15 q 260 6 322 -15 q 151 71 199 28 q 76 178 104 114 q 49 326 49 242 q 49 354 49 339 q 51 392 49 369 l 569 392 q 549 453 565 426 q 508 499 533 481 q 452 526 483 517 q 386 536 421 536 q 275 510 319 536 q 207 449 231 485 l 64 554 q 195 667 113 625 q 388 710 278 710 m 396 142 q 449 149 422 142 q 499 170 476 156 q 540 208 522 185 q 564 263 557 231 l 238 263 q 297 171 251 200 q 396 142 343 142 z "},"ѣ":{"ha":781,"x_min":24,"x_max":736,"o":"m 24 694 l 160 694 l 160 1014 l 350 1014 l 350 694 l 586 694 l 586 569 l 350 569 l 350 488 l 481 488 q 599 465 550 488 q 678 406 647 442 q 722 328 708 371 q 736 247 736 286 q 722 165 736 208 q 678 85 708 121 q 599 24 647 49 q 481 0 550 0 l 160 0 l 160 569 l 24 569 l 24 694 m 350 325 l 350 163 l 460 163 q 531 184 506 163 q 557 246 557 206 q 531 306 557 286 q 460 325 506 325 l 350 325 z "},"й":{"ha":856,"x_min":92,"x_max":763,"o":"m 92 0 l 92 694 l 282 694 l 282 285 l 593 694 l 763 694 l 763 0 l 574 0 l 574 410 l 263 0 l 92 0 m 439 761 q 345 778 389 761 q 268 827 301 796 q 216 903 235 858 q 197 1003 197 949 l 197 1014 l 322 1014 l 322 1003 q 354 909 322 944 q 439 874 386 874 q 524 909 492 874 q 556 1003 556 944 l 556 1014 l 681 1014 l 681 1003 q 662 903 681 949 q 610 827 643 858 q 533 778 576 796 q 439 761 489 761 z "},"ё":{"ha":803,"x_min":47,"x_max":754,"o":"m 415 -15 q 270 10 338 -15 q 153 83 203 36 q 76 198 104 131 q 47 347 47 265 q 74 490 47 424 q 151 606 101 557 q 267 682 200 654 q 413 710 333 710 q 542 688 481 710 q 651 624 604 667 q 726 517 699 581 q 754 368 754 453 q 754 340 754 356 q 751 303 754 325 l 232 303 q 253 241 236 268 q 294 196 269 214 q 351 168 319 178 q 417 158 382 158 q 527 184 482 158 q 596 246 572 210 l 738 140 q 607 27 689 69 q 415 -15 525 -15 m 564 432 q 506 524 551 494 q 407 553 460 553 q 353 546 381 553 q 303 524 326 539 q 263 487 281 510 q 239 432 246 464 l 564 432 m 247 781 q 201 790 222 781 q 163 816 179 800 q 136 854 146 832 q 126 901 126 876 q 136 949 126 926 q 163 987 146 971 q 201 1013 179 1003 q 247 1022 222 1022 q 334 987 299 1022 q 369 901 369 951 q 334 816 369 851 q 247 781 299 781 m 574 781 q 527 790 549 781 q 489 816 506 800 q 463 854 472 832 q 453 901 453 876 q 463 949 453 926 q 489 987 472 971 q 527 1013 506 1003 q 574 1022 549 1022 q 660 987 625 1022 q 696 901 696 951 q 660 816 696 851 q 574 781 625 781 z "},"ќ":{"ha":765,"x_min":92,"x_max":790,"o":"m 282 281 l 282 0 l 92 0 l 92 694 l 282 694 l 282 411 l 517 694 l 743 694 l 454 353 l 790 0 l 546 0 l 282 281 m 451 1014 l 672 1014 l 479 778 l 338 778 l 451 1014 z "},"ґ":{"ha":594,"x_min":92,"x_max":571,"o":"m 92 694 l 571 694 l 571 528 l 282 528 l 282 0 l 92 0 l 92 694 m 400 694 l 400 865 l 571 865 l 571 694 l 400 694 z "},"ѓ":{"ha":594,"x_min":92,"x_max":589,"o":"m 92 694 l 571 694 l 571 528 l 282 528 l 282 0 l 92 0 l 92 694 m 368 1014 l 589 1014 l 396 778 l 254 778 l 368 1014 z "},"ў":{"ha":792,"x_min":3,"x_max":792,"o":"m 458 -60 q 344 -224 408 -171 q 178 -276 279 -276 q 68 -264 114 -276 l 99 -103 q 129 -108 117 -107 q 160 -110 142 -110 q 220 -89 193 -110 q 272 -14 247 -68 l 294 39 l 3 694 l 211 694 l 403 260 l 582 694 l 792 694 l 458 -60 m 397 761 q 303 778 347 761 q 226 827 260 796 q 174 903 193 858 q 156 1003 156 949 l 156 1014 l 281 1014 l 281 1003 q 313 909 281 944 q 397 874 344 874 q 482 909 450 874 q 514 1003 514 944 l 514 1014 l 639 1014 l 639 1003 q 620 903 639 949 q 568 827 601 858 q 491 778 535 796 q 397 761 447 761 z "},"ѳ":{"ha":822,"x_min":46,"x_max":776,"o":"m 411 -15 q 269 13 336 -15 q 153 90 203 40 q 74 205 103 139 q 46 347 46 271 q 74 490 46 424 q 153 604 103 556 q 269 681 203 653 q 411 710 336 710 q 553 681 486 710 q 669 604 619 653 q 748 490 719 556 q 776 347 776 424 q 748 205 776 271 q 669 90 719 139 q 553 13 619 40 q 411 -15 486 -15 m 411 163 q 480 176 449 163 q 534 215 511 190 q 570 273 557 239 q 583 347 583 307 q 570 422 583 388 q 534 480 557 456 q 480 518 511 504 q 411 532 449 532 q 342 518 374 532 q 287 480 310 504 q 251 422 264 456 q 238 347 238 388 q 251 273 238 307 q 287 215 264 239 q 342 176 310 190 q 411 163 374 163 m 147 410 l 675 410 l 675 289 l 147 289 l 147 410 z "},"ө":{"ha":822,"x_min":46,"x_max":776,"o":"m 411 -15 q 269 13 336 -15 q 153 90 203 40 q 74 205 103 139 q 46 347 46 271 q 74 490 46 424 q 153 604 103 556 q 269 681 203 653 q 411 710 336 710 q 553 681 486 710 q 669 604 619 653 q 748 490 719 556 q 776 347 776 424 q 748 205 776 271 q 669 90 719 139 q 553 13 619 40 q 411 -15 486 -15 m 411 163 q 480 176 449 163 q 534 215 511 190 q 570 273 557 239 q 583 347 583 307 q 570 422 583 388 q 534 480 557 456 q 480 518 511 504 q 411 532 449 532 q 342 518 374 532 q 287 480 310 504 q 251 422 264 456 q 238 347 238 388 q 251 273 238 307 q 287 215 264 239 q 342 176 310 190 q 411 163 374 163 m 147 410 l 675 410 l 675 289 l 147 289 l 147 410 z "},"ғ":{"ha":640,"x_min":28,"x_max":617,"o":"m 138 694 l 617 694 l 617 528 l 328 528 l 328 0 l 138 0 l 138 694 m 28 274 l 28 399 l 475 399 l 475 274 l 28 274 z "},"ұ":{"ha":796,"x_min":1,"x_max":796,"o":"m 303 0 l 1 694 l 213 694 l 397 233 l 583 694 l 796 694 l 493 0 l 493 -269 l 303 -269 l 303 0 m 125 0 l 671 0 l 671 -125 l 125 -125 l 125 0 z "},"ӣ":{"ha":856,"x_min":92,"x_max":763,"o":"m 92 0 l 92 694 l 282 694 l 282 285 l 593 694 l 763 694 l 763 0 l 574 0 l 574 410 l 263 0 l 92 0 m 201 986 l 676 986 l 676 851 l 201 851 l 201 986 z "},"ӯ":{"ha":792,"x_min":3,"x_max":792,"o":"m 458 -60 q 344 -224 408 -171 q 178 -276 279 -276 q 68 -264 114 -276 l 99 -103 q 129 -108 117 -107 q 160 -110 142 -110 q 220 -89 193 -110 q 272 -14 247 -68 l 294 39 l 3 694 l 211 694 l 403 260 l 582 694 l 792 694 l 458 -60 m 160 986 l 635 986 l 635 851 l 160 851 l 160 986 z "},"җ":{"ha":1174,"x_min":-15,"x_max":1163,"o":"m 668 278 l 668 0 l 478 0 l 478 281 l 221 0 l -15 0 l 307 353 l 31 694 l 251 694 l 478 411 l 478 694 l 668 694 l 668 415 l 892 694 l 1113 694 l 835 353 l 1160 0 l 924 0 l 668 278 m 993 0 l 960 0 l 960 167 l 1163 167 l 1163 -171 l 993 -171 l 993 0 z "},"қ":{"ha":799,"x_min":92,"x_max":794,"o":"m 282 281 l 282 0 l 92 0 l 92 694 l 282 694 l 282 411 l 517 694 l 743 694 l 454 353 l 790 0 l 546 0 l 282 281 m 625 0 l 592 0 l 592 167 l 794 167 l 794 -171 l 625 -171 l 625 0 z "},"ң":{"ha":913,"x_min":92,"x_max":874,"o":"m 92 694 l 282 694 l 282 432 l 568 432 l 568 694 l 758 694 l 758 0 l 568 0 l 568 267 l 282 267 l 282 0 l 92 0 l 92 694 m 704 0 l 671 0 l 671 167 l 874 167 l 874 -171 l 704 -171 l 704 0 z "},"ҳ":{"ha":818,"x_min":4,"x_max":796,"o":"m 394 204 l 233 0 l 4 0 l 274 340 l 11 694 l 236 694 l 393 482 l 550 694 l 776 694 l 514 340 l 783 0 l 556 0 l 394 204 m 626 0 l 593 0 l 593 167 l 796 167 l 796 -171 l 626 -171 l 626 0 z "},"ҷ":{"ha":846,"x_min":50,"x_max":807,"o":"m 501 0 l 501 249 q 465 234 486 240 q 418 223 443 228 q 367 215 393 218 q 317 213 340 213 q 216 227 264 213 q 131 272 168 242 q 72 347 94 301 q 50 456 50 393 l 50 694 l 240 694 l 240 478 q 251 430 240 449 q 279 400 261 411 q 319 384 297 389 q 364 379 340 379 q 437 389 399 379 q 501 417 475 399 l 501 694 l 692 694 l 692 0 l 501 0 m 638 0 l 604 0 l 604 167 l 807 167 l 807 -171 l 638 -171 l 638 0 z "},"":{"ha":0,"x_min":-242,"x_max":242,"o":"m 0 761 q -94 778 -50 761 q -171 827 -137 796 q -223 903 -204 858 q -242 1003 -242 949 l -242 1014 l -117 1014 l -117 1003 q -85 909 -117 944 q 0 874 -53 874 q 85 909 53 874 q 117 1003 117 944 l 117 1014 l 242 1014 l 242 1003 q 223 903 242 949 q 171 827 204 858 q 94 778 138 796 q 0 761 50 761 z "},"":{"ha":0,"x_min":-242,"x_max":242,"o":"m 0 1042 q -94 1059 -50 1042 q -171 1108 -137 1076 q -223 1184 -204 1139 q -242 1285 -242 1229 l -117 1285 q -85 1190 -117 1225 q 0 1154 -53 1154 q 85 1190 53 1154 q 117 1285 117 1225 l 242 1285 q 223 1184 242 1229 q 171 1108 204 1139 q 94 1059 138 1076 q 0 1042 50 1042 z "},"₽":{"ha":860,"x_min":68,"x_max":819,"o":"m 68 538 l 186 538 l 186 986 l 483 986 q 617 963 556 986 q 724 899 679 940 q 794 799 769 857 q 819 669 819 740 q 794 539 819 597 q 724 440 769 481 q 617 376 679 399 q 483 354 556 354 l 376 354 l 376 258 l 601 258 l 601 178 l 376 178 l 376 0 l 186 0 l 186 178 l 68 178 l 68 258 l 186 258 l 186 354 l 68 354 l 68 538 m 481 538 q 585 571 546 538 q 624 669 624 604 q 585 769 624 736 q 481 801 546 801 l 376 801 l 376 538 l 481 538 z "},"₴":{"ha":872,"x_min":56,"x_max":811,"o":"m 56 464 l 811 464 l 811 385 l 333 385 q 296 340 307 367 q 285 281 285 313 q 324 197 285 231 q 436 163 363 163 q 557 191 499 163 q 656 278 615 219 l 800 160 q 651 31 744 78 q 440 -17 558 -17 q 301 5 364 -17 q 192 64 238 26 q 120 152 146 101 q 94 263 94 203 q 105 331 94 299 q 135 385 115 363 l 56 385 l 56 464 m 56 619 l 531 619 q 574 707 574 650 q 533 792 574 761 q 431 824 493 824 q 327 802 375 824 q 243 736 279 781 l 118 867 q 263 970 182 938 q 440 1003 344 1003 q 569 983 510 1003 q 671 928 628 964 q 738 844 714 893 q 763 736 763 794 q 731 619 763 664 l 811 619 l 811 540 l 56 540 l 56 619 z "},"…":{"ha":1013,"x_min":49,"x_max":965,"o":"m 169 -11 q 123 -1 144 -11 q 85 24 101 8 q 58 63 68 40 q 49 110 49 85 q 58 157 49 135 q 85 195 68 179 q 123 221 101 211 q 169 231 144 231 q 256 195 221 231 q 292 110 292 160 q 256 24 292 60 q 169 -11 221 -11 m 506 -11 q 459 -1 481 -11 q 421 24 438 8 q 394 63 404 40 q 385 110 385 85 q 394 157 385 135 q 421 195 404 179 q 459 221 438 211 q 506 231 481 231 q 592 195 557 231 q 628 110 628 160 q 592 24 628 60 q 506 -11 557 -11 m 843 -11 q 797 -1 818 -11 q 758 24 775 8 q 732 63 742 40 q 722 110 722 85 q 732 157 722 135 q 758 195 742 179 q 797 221 775 211 q 843 231 818 231 q 930 195 894 231 q 965 110 965 160 q 930 24 965 60 q 843 -11 894 -11 z "},"–":{"ha":815,"x_min":79,"x_max":736,"o":"m 79 481 l 736 481 l 736 297 l 79 297 l 79 481 z "},"—":{"ha":1224,"x_min":79,"x_max":1144,"o":"m 79 481 l 1144 481 l 1144 297 l 79 297 l 79 481 z "},"‹":{"ha":432,"x_min":43,"x_max":375,"o":"m 375 100 l 254 22 l 43 347 l 254 672 l 375 594 l 243 347 l 375 100 z "},"›":{"ha":432,"x_min":57,"x_max":389,"o":"m 189 347 l 57 594 l 178 672 l 389 347 l 178 22 l 57 100 l 189 347 z "},"‘":{"ha":354,"x_min":42,"x_max":336,"o":"m 42 685 q 48 725 42 704 q 65 761 54 746 l 224 1006 l 336 1006 l 228 786 q 269 744 253 771 q 285 685 285 717 q 275 638 285 660 q 249 599 265 615 q 210 574 232 583 q 164 564 189 564 q 77 599 113 564 q 42 685 42 635 z "},"’":{"ha":361,"x_min":31,"x_max":325,"o":"m 325 901 q 319 861 325 882 q 301 825 313 840 l 143 581 l 31 581 l 139 800 q 98 842 114 815 q 82 901 82 869 q 92 949 82 926 q 118 987 101 971 q 156 1013 135 1003 q 203 1022 178 1022 q 290 987 254 1022 q 325 901 325 951 z "},"“":{"ha":640,"x_min":42,"x_max":622,"o":"m 42 685 q 48 725 42 704 q 65 761 54 746 l 224 1006 l 336 1006 l 228 786 q 269 744 253 771 q 285 685 285 717 q 275 638 285 660 q 249 599 265 615 q 210 574 232 583 q 164 564 189 564 q 77 599 113 564 q 42 685 42 635 m 328 685 q 334 725 328 704 q 351 761 340 746 l 510 1006 l 622 1006 l 514 786 q 555 744 539 771 q 571 685 571 717 q 561 638 571 660 q 535 599 551 615 q 497 574 518 583 q 450 564 475 564 q 363 599 399 564 q 328 685 328 635 z "},"”":{"ha":681,"x_min":31,"x_max":644,"o":"m 325 901 q 319 861 325 882 q 301 825 313 840 l 143 581 l 31 581 l 139 800 q 98 842 114 815 q 82 901 82 869 q 92 949 82 926 q 118 987 101 971 q 156 1013 135 1003 q 203 1022 178 1022 q 290 987 254 1022 q 325 901 325 951 m 644 901 q 638 861 644 882 q 621 825 632 840 l 463 581 l 350 581 l 458 800 q 417 842 433 815 q 401 901 401 869 q 411 949 401 926 q 438 987 421 971 q 476 1013 454 1003 q 522 1022 497 1022 q 609 987 574 1022 q 644 901 644 951 z "},"‚":{"ha":388,"x_min":21,"x_max":315,"o":"m 315 110 q 309 69 315 90 q 292 33 303 49 l 133 -211 l 21 -211 l 129 8 q 88 51 104 24 q 72 110 72 78 q 82 157 72 135 q 108 195 92 179 q 147 221 125 211 q 193 231 168 231 q 280 195 244 231 q 315 110 315 160 z "},"„":{"ha":674,"x_min":21,"x_max":601,"o":"m 315 110 q 309 69 315 90 q 292 33 303 49 l 133 -211 l 21 -211 l 129 8 q 88 51 104 24 q 72 110 72 78 q 82 157 72 135 q 108 195 92 179 q 147 221 125 211 q 193 231 168 231 q 280 195 244 231 q 315 110 315 160 m 601 110 q 595 69 601 90 q 578 33 589 49 l 419 -211 l 307 -211 l 415 8 q 374 51 390 24 q 358 110 358 78 q 368 157 358 135 q 394 195 378 179 q 433 221 411 211 q 479 231 454 231 q 566 195 531 231 q 601 110 601 160 z "},"•":{"ha":556,"x_min":89,"x_max":468,"o":"m 278 231 q 205 245 239 231 q 145 285 171 260 q 104 346 119 311 q 89 419 89 381 q 104 493 89 458 q 145 553 119 528 q 205 594 171 579 q 278 608 239 608 q 351 594 317 608 q 412 553 386 579 q 453 493 438 528 q 468 419 468 458 q 453 346 468 381 q 412 285 438 311 q 351 245 386 260 q 278 231 317 231 z "},"−":{"ha":751,"x_min":83,"x_max":668,"o":"m 83 485 l 668 485 l 668 319 l 83 319 l 83 485 z "},"€":{"ha":1075,"x_min":39,"x_max":1026,"o":"m 39 544 l 68 624 l 164 624 q 231 775 185 706 q 342 895 278 844 q 487 974 407 946 q 656 1003 567 1003 q 868 960 772 1003 q 1026 844 964 917 l 900 707 q 796 785 857 754 q 656 815 735 815 q 559 801 604 815 q 476 761 514 786 q 410 701 439 736 q 364 624 382 665 l 857 624 l 831 544 l 342 544 q 338 493 338 519 q 342 443 338 468 l 793 443 l 767 365 l 363 365 q 475 226 399 281 q 656 171 551 171 q 796 201 735 171 q 900 279 857 232 l 1026 142 q 868 26 964 69 q 656 -17 772 -17 q 485 12 565 -17 q 341 92 406 40 q 230 213 276 143 q 163 365 183 282 l 39 365 l 68 443 l 149 443 q 147 468 147 456 q 147 493 147 481 q 147 519 147 506 q 149 544 147 532 l 39 544 z "},"ﬁ":{"ha":1004,"x_min":22,"x_max":939,"o":"m 188 528 l 22 528 l 22 694 l 188 694 l 188 747 q 204 853 188 803 q 255 940 221 903 q 340 1000 289 978 q 457 1022 390 1022 q 564 1009 519 1022 q 635 982 608 996 l 565 826 q 529 842 550 835 q 481 850 508 850 q 406 822 433 850 q 378 746 378 793 l 378 694 l 611 694 l 611 528 l 378 528 l 378 0 l 188 0 l 188 528 m 817 781 q 770 790 792 781 q 732 816 749 800 q 706 854 715 832 q 696 901 696 876 q 706 949 696 926 q 732 987 715 971 q 770 1013 749 1003 q 817 1022 792 1022 q 903 987 868 1022 q 939 901 939 951 q 903 816 939 851 q 817 781 868 781 m 722 694 l 913 694 l 913 0 l 722 0 l 722 694 z "},"ﬂ":{"ha":1004,"x_min":22,"x_max":913,"o":"m 188 528 l 22 528 l 22 694 l 188 694 l 188 747 q 204 853 188 803 q 255 940 221 903 q 340 1000 289 978 q 457 1022 390 1022 q 564 1009 519 1022 q 635 982 608 996 l 565 826 q 529 842 550 835 q 481 850 508 850 q 406 822 433 850 q 378 746 378 793 l 378 694 l 611 694 l 611 528 l 378 528 l 378 0 l 188 0 l 188 528 m 722 1014 l 913 1014 l 913 0 l 722 0 l 722 1014 z "},"˘":{"ha":0,"x_min":-242,"x_max":242,"o":"m 0 761 q -94 778 -50 761 q -171 827 -137 796 q -223 903 -204 858 q -242 1003 -242 949 l -242 1014 l -131 1014 l -131 1003 q -92 905 -131 938 q 0 872 -53 872 q 92 905 53 872 q 131 1003 131 938 l 131 1014 l 242 1014 l 242 1003 q 223 903 242 949 q 171 827 204 858 q 94 778 138 796 q 0 761 50 761 z "},"ˇ":{"ha":0,"x_min":-258,"x_max":258,"o":"m -90 1014 l 0 919 l 90 1014 l 258 1014 l 82 803 l -82 803 l -258 1014 l -90 1014 z "},"ˆ":{"ha":0,"x_min":-258,"x_max":258,"o":"m -82 1014 l 82 1014 l 258 803 l 90 803 l 0 896 l -90 803 l -258 803 l -82 1014 z "},"˙":{"ha":0,"x_min":-122,"x_max":121,"o":"m -122 901 q -87 987 -122 951 q 0 1022 -51 1022 q 47 1013 25 1022 q 85 987 68 1003 q 111 949 101 971 q 121 901 121 926 q 111 854 121 876 q 85 816 101 832 q 47 790 68 800 q 0 781 25 781 q -87 816 -51 781 q -122 901 -122 851 z "},"˝":{"ha":0,"x_min":-267,"x_max":267,"o":"m -194 1014 l 10 1014 l -142 778 l -267 778 l -194 1014 m 63 1014 l 267 1014 l 115 778 l -10 778 l 63 1014 z "},"˛":{"ha":0,"x_min":-149,"x_max":147,"o":"m 1 -283 q -107 -249 -65 -283 q -149 -157 -149 -215 q -124 -68 -149 -104 q -62 0 -99 -32 l 128 0 q 45 -54 74 -28 q 17 -112 17 -81 q 29 -143 17 -135 q 57 -151 42 -151 q 96 -139 75 -151 l 147 -240 q 81 -272 119 -260 q 1 -283 43 -283 z "},"˚":{"ha":0,"x_min":-121,"x_max":122,"o":"m 0 781 q -47 790 -25 781 q -85 816 -68 800 q -111 854 -101 832 q -121 901 -121 876 q -111 949 -121 926 q -85 987 -101 971 q -47 1013 -68 1003 q 0 1022 -25 1022 q 87 987 51 1022 q 122 901 122 951 q 87 816 122 851 q 0 781 51 781 z "},"˜":{"ha":0,"x_min":-262,"x_max":261,"o":"m -257 829 q -198 944 -246 904 q -93 985 -150 985 q -35 975 -62 985 q 14 953 -8 965 q 55 931 36 940 q 90 921 74 921 q 131 938 118 921 q 151 986 143 954 l 261 986 l 256 950 q 197 835 244 875 q 92 794 149 794 q 33 804 60 794 q -15 826 7 814 q -56 849 -37 839 q -92 858 -75 858 q -132 842 -119 858 q -153 793 -144 825 l -262 793 l -257 829 z "}}}
